<svg width="339" height="174" viewBox="0 0 339 174" fill="none" xmlns="http://www.w3.org/2000/svg">
<g clip-path="url(#clip0_558_12613)">
<path d="M44.8889 172.589C44.8889 172.589 -20.4173 107.198 20.1386 68.1009C60.6946 29.0036 92.7484 79.759 114.916 76.017C142.972 71.2886 155.111 0.0684528 197.063 0.000153762C244.79 -0.076026 279.821 28.1499 261.161 95.3719C247.398 144.952 341.999 104.351 328.104 173.553L44.8889 172.589Z" fill="#85B8E6"/>
<path d="M187.325 164.093C178.447 162.662 171.745 165.774 165.3 164.881C160.16 164.167 157.482 158.97 150.575 157.492C152.218 156.523 154.132 155.311 155.047 154.429C156.824 152.722 159.379 149.291 155.047 149.156C151.931 149.059 149.504 154.251 148.388 157.168C147.278 157.08 146.162 157.08 145.052 157.168C146.478 152.571 149.253 143.674 149.938 141.965C150.857 139.639 146.977 131.884 142.396 140.587C139.182 146.691 141.364 153.745 142.954 157.414C141.745 157.61 140.551 157.894 139.383 158.262C135.598 149.621 123.555 124.987 110.5 128.053C96.2682 131.389 126.758 147.95 134.448 160.232C128.166 163.146 122.646 166.684 113.104 164.1C87.7477 157.232 85.7363 172.685 85.7363 172.685L199.052 172.723C199.052 172.723 196.203 165.522 187.325 164.093Z" fill="#ACD29A"/>
<path d="M156.502 108.489C156.617 109.579 158.161 109.54 159.904 109.277C161.648 109.014 161.198 109.474 163.65 109.427C166.103 109.38 166.92 108.542 167.027 108.187C167.123 107.873 165.933 107.65 164.664 107.384L164.182 107.282C162.747 106.967 161.767 105.932 160.519 105.041C159.337 104.198 158.538 100.333 158.538 100.333L155.051 100.315C155.051 100.315 156.146 103.812 156.717 105.028C157.052 105.743 156.694 106.661 156.586 107.349C156.507 107.723 156.478 108.107 156.502 108.489Z" fill="#FFB07B"/>
<path d="M159.909 109.279C161.652 109.016 161.202 109.476 163.654 109.428C166.107 109.381 166.925 108.543 167.031 108.189C167.127 107.875 165.937 107.651 164.668 107.386L164.653 107.41C163.552 107.983 162.317 108.247 161.078 108.174C159.428 108.064 157.727 107.432 156.587 107.347C156.51 107.722 156.484 108.107 156.51 108.489C156.617 109.58 158.161 109.54 159.909 109.279Z" fill="#365DA4"/>
<path d="M129.248 108.316C129.324 109.41 130.866 109.429 132.619 109.235C134.372 109.041 133.904 109.481 136.357 109.525C138.809 109.57 139.657 108.763 139.778 108.414C139.884 108.103 138.706 107.836 137.443 107.522C137.284 107.484 137.125 107.442 136.966 107.401C135.543 107.032 134.603 105.957 133.388 105.025C132.238 104.138 133.185 100.456 133.185 100.456L130.539 99.2056C130.539 99.2056 130.176 103 129.979 104.919C129.899 105.707 129.508 106.495 129.37 107.179C129.279 107.551 129.237 107.933 129.248 108.316Z" fill="#FFB07B"/>
<path d="M132.619 109.234C134.372 109.038 133.904 109.479 136.357 109.524C138.809 109.569 139.657 108.762 139.778 108.413C139.885 108.102 138.706 107.835 137.443 107.521L137.428 107.545C136.306 108.076 135.061 108.292 133.826 108.173C132.181 108 130.504 107.306 129.37 107.178C129.278 107.55 129.237 107.933 129.248 108.316C129.319 109.41 130.866 109.429 132.619 109.234Z" fill="#365DA4"/>
<path d="M135.19 53.6765C135.19 53.6765 134.457 57.2228 133.723 75.2248C132.776 77.6388 131.991 80.1136 131.375 82.6327C130.387 86.7043 129.691 103.711 129.691 103.711C129.691 103.711 130.085 104.278 131.28 104.35C131.881 104.381 132.479 104.253 133.016 103.981C133.016 103.981 139.878 81.7106 143.218 73.0642C146.558 64.4178 148.517 52.0728 148.517 52.0728L135.19 53.6765Z" fill="#2B478B"/>
<path d="M143.443 55.196C143.443 55.196 143.984 58.7791 149.525 75.9195C149.472 78.5122 149.592 81.1055 149.886 83.682C150.37 87.8469 155.979 104.245 155.979 104.245C155.979 104.245 156.723 104.508 157.84 104.208C158.506 104.02 159.134 103.716 159.694 103.31C159.694 103.31 157.544 79.8717 157.685 70.6053C157.827 61.339 155.39 49.0767 155.39 49.0767L143.443 55.196Z" fill="#2B478B"/>
<path d="M153.256 5.55583C152.386 5.00287 151.319 4.89911 150.567 4.89911C150.739 4.77002 150.941 4.68645 151.154 4.65612C150.691 4.56418 149.632 4.97266 149.632 4.97266C143.295 2.15795 141.802 11.6266 141.828 13.845C141.855 16.0634 141.742 18.6101 138.415 20.4319C131.873 24.0176 136.888 31.0984 136.888 31.0984C135.706 34.4792 140.07 38.6205 140.07 38.6205C139.996 36.825 148.234 25.3875 152.674 22.7777C153.798 21.2883 154.306 18.5839 154.344 18.3698C154.055 20.5212 153.626 21.7138 153.262 22.3797C157.073 19.2104 155.557 7.02032 153.256 5.55583Z" fill="#C65447"/>
<path d="M151.874 21.5535C151.896 21.564 149.797 22.6555 148.216 22.2234C146.73 21.8175 145.759 19.8894 145.78 19.8855C146.408 19.7607 146.591 18.8951 146.577 15.1768L146.861 15.2332L151.474 16.1526L151.646 16.1855C151.646 16.1855 151.537 17.692 151.533 19.1105C151.533 19.4113 151.533 19.7068 151.547 19.984C151.579 20.8022 151.67 21.4576 151.874 21.5535Z" fill="#FFB07B"/>
<path d="M151.533 19.1051C151.533 19.4059 151.533 19.7014 151.547 19.9786C148.865 19.8709 147.319 16.8014 146.734 15.4551L151.474 16.1473L151.646 16.1801C151.646 16.1801 151.537 17.6866 151.533 19.1051Z" fill="#EA8E50"/>
<path d="M146.369 14.7119C146.369 14.7119 144.965 12.4948 144.629 10.5982C144.388 9.24402 145.077 4.22667 150.118 4.95038C151.133 5.09143 152.104 5.45858 152.958 6.02477C154.053 6.76424 155.632 8.36008 153.865 12.7391L153.407 14.218L146.369 14.7119Z" fill="#C65447"/>
<path d="M151.928 18.4108C151.928 18.4108 145.647 17.5807 146.225 13.6758C146.803 9.77093 146.38 7.03371 150.414 7.39885C154.449 7.76399 155.009 9.36901 155.13 10.7192C155.251 12.0695 153.576 18.5263 151.928 18.4108Z" fill="#FFB07B"/>
<path d="M153.283 7.72809C153.283 7.72809 150.885 12.0533 148.152 12.3383C145.419 12.6233 144.383 11.7472 144.383 11.7472C145.852 10.7992 146.945 9.37014 147.477 7.70445C147.477 7.70445 152.314 5.35339 153.283 7.72809Z" fill="#C65447"/>
<path d="M152.801 8.03689C152.801 8.03689 153.93 9.25051 154.094 10.2908C154.258 11.331 154.094 13.3997 154.701 13.4181C154.701 13.4181 156.456 10.4983 155.266 8.52024C153.999 6.42398 152.801 8.03689 152.801 8.03689Z" fill="#C65447"/>
<path d="M194.508 61.0883C193.195 58.2959 189.527 55.9856 186.442 55.9843C184.315 55.9673 182.249 56.6902 180.597 58.0293C180.392 58.1947 180.149 58.305 179.89 58.3495C179.631 58.394 179.364 58.3713 179.116 58.2836C178.868 58.1959 178.647 58.046 178.474 57.8484C178.3 57.6507 178.18 57.4118 178.125 57.1545L175.423 44.5993C175.234 43.7204 174.703 42.9527 173.948 42.465C173.193 41.9773 172.275 41.8096 171.396 41.9987L127.69 51.4095C127.264 51.5012 126.861 51.6758 126.503 51.9235C126.145 52.1712 125.839 52.487 125.603 52.8529C125.367 53.2189 125.206 53.6278 125.128 54.0562C125.05 54.4847 125.057 54.9243 125.149 55.3499L134.545 99.0285C134.673 99.6207 134.955 100.169 135.362 100.617C135.769 101.066 136.288 101.398 136.865 101.582L136.291 101.745H137.984H137.997C138.208 101.739 138.419 101.714 138.626 101.67L139.576 101.465L150.795 99.0495C151.155 98.9722 151.488 98.8024 151.762 98.5569C152.037 98.3114 152.242 97.9986 152.359 97.6494C152.476 97.3002 152.499 96.9265 152.427 96.5654C152.356 96.2042 152.191 95.868 151.95 95.5899C150.886 94.3646 150.17 92.8768 149.875 91.281C149.58 89.6853 149.717 88.0396 150.273 86.5148C150.828 84.99 151.781 83.6417 153.033 82.6098C154.285 81.5779 155.79 80.8999 157.392 80.6464C158.995 80.3928 160.635 80.5728 162.145 81.1678C163.654 81.7627 164.976 82.7509 165.975 84.0298C166.974 85.3086 167.612 86.8316 167.824 88.4405C168.036 90.0494 167.813 91.6858 167.179 93.1797C167.052 93.4714 167.025 93.7969 167.102 94.1057C167.179 94.4144 167.356 94.6891 167.605 94.8872L166.948 95.2063H168.465C168.582 95.2094 168.699 95.1984 168.814 95.1735L182.205 92.2839C182.641 92.1904 183.053 92.0119 183.42 91.7588C183.786 91.5056 184.099 91.1827 184.341 90.8085C184.582 90.4342 184.748 90.0161 184.828 89.5778C184.908 89.1395 184.901 88.6898 184.807 88.2543L182.123 75.7765C182.066 75.5118 182.077 75.2369 182.157 74.9779C182.236 74.719 182.38 74.4846 182.575 74.2969C182.77 74.1093 183.01 73.9747 183.272 73.9059C183.534 73.837 183.809 73.8362 184.071 73.9036C185.434 74.2542 186.861 74.2812 188.237 73.9824C193.848 72.7701 197.125 66.6324 194.508 61.0883Z" fill="#0057B2"/>
<path d="M184.898 55.9843C182.771 55.9673 180.705 56.6902 179.053 58.0293C178.848 58.1947 178.605 58.305 178.346 58.3495C178.087 58.394 177.82 58.3713 177.572 58.2836C177.324 58.1959 177.103 58.046 176.929 57.8484C176.756 57.6507 176.636 57.4118 176.581 57.1545L173.88 44.5993C173.691 43.7204 173.16 42.9527 172.405 42.465C171.65 41.9773 170.732 41.8096 169.854 41.9987L126.147 51.4095C125.721 51.501 125.318 51.6756 124.96 51.9232C124.602 52.1708 124.296 52.4867 124.06 52.8527C123.824 53.2186 123.662 53.6276 123.585 54.0561C123.507 54.4846 123.514 54.9242 123.606 55.3499L133.003 99.0284C133.195 99.9201 133.733 100.699 134.499 101.194C135.265 101.689 136.196 101.859 137.087 101.667L149.256 99.0403C149.616 98.963 149.949 98.7932 150.224 98.5477C150.498 98.3022 150.704 97.9894 150.82 97.6402C150.937 97.291 150.96 96.9173 150.889 96.5562C150.817 96.195 150.652 95.8588 150.411 95.5807C149.348 94.3554 148.631 92.8676 148.336 91.2718C148.041 89.6761 148.179 88.0304 148.734 86.5056C149.289 84.9808 150.242 83.6325 151.494 82.6006C152.746 81.5687 154.251 80.8907 155.854 80.6372C157.456 80.3836 159.097 80.5636 160.606 81.1586C162.115 81.7535 163.438 82.7417 164.436 84.0206C165.435 85.2994 166.073 86.8224 166.285 88.4313C166.497 90.0402 166.274 91.6766 165.641 93.1705C165.536 93.4152 165.501 93.6839 165.538 93.9473C165.576 94.2108 165.686 94.4587 165.855 94.6642C166.024 94.8696 166.246 95.0245 166.497 95.112C166.749 95.1995 167.019 95.2162 167.279 95.1604L180.67 92.2708C181.106 92.1771 181.518 91.9985 181.885 91.7453C182.251 91.4921 182.564 91.1691 182.805 90.7949C183.047 90.4207 183.212 90.0026 183.292 89.5644C183.372 89.1262 183.365 88.6766 183.271 88.2411L180.588 75.7634C180.531 75.4987 180.542 75.2238 180.621 74.9648C180.7 74.7058 180.844 74.4714 181.039 74.2837C181.234 74.096 181.474 73.9613 181.736 73.8925C181.998 73.8237 182.273 73.823 182.535 73.8904C183.899 74.241 185.326 74.268 186.702 73.9692C192.306 72.7635 195.582 66.6258 192.965 61.0817C191.646 58.2959 187.984 55.9856 184.898 55.9843Z" fill="#007DFF"/>
<path d="M168.904 39.3799C168.904 39.3799 171.631 39.8265 172.345 41.5996C173.06 43.3728 172.062 44.5746 171.678 44.5706C171.295 44.5667 170.559 44.283 170.215 43.3622C169.871 42.4415 168.904 39.3799 168.904 39.3799Z" fill="#FFB07B"/>
<path d="M131.373 47.293C131.373 47.293 134.433 47.293 135.535 49.099C136.636 50.9049 135.762 52.4023 135.342 52.4666C134.922 52.531 134.066 52.3537 133.524 51.4159C132.981 50.4781 131.373 47.293 131.373 47.293Z" fill="#FFB07B"/>
<path d="M168.982 41.4379C168.711 41.3801 167.524 41.2409 166.016 41.0031C163.236 40.5671 159.363 39.7987 158.064 38.5995C157.712 38.2738 156.891 36.4823 156.039 34.428C155.178 38.9752 155.129 42.4637 155.358 45.1182L136.584 49.1622C138.193 45.9062 140.687 41.8674 140.219 38.5995C140.046 37.3885 139.382 35.7257 139.133 33.858C139.114 33.6978 139.095 33.5362 139.081 33.3733C136.447 35.5431 133.405 37.9362 133.332 38.4143C133.211 39.2168 135.262 48.0984 135.262 48.0984C134.752 49.2713 132.54 49.0178 132.54 49.0178C130.468 47.5375 127.42 39.1472 127.664 37.2887C127.908 35.4302 135.465 24.8373 137.294 22.3063C139.101 19.8041 145.696 19.8672 145.855 19.8685C151.107 23.0208 151.573 20.4004 151.573 20.4004C151.573 20.4004 156.299 21.3002 157.118 22.699C157.938 24.0978 161.5 34.7039 161.752 35.0769C162.277 35.8584 170.901 38.9831 171.056 39.888C171.211 40.793 169.755 41.6047 168.982 41.4379Z" fill="#80BDCC"/>
<path d="M143.125 47.7597L136.578 49.1624C138.209 45.9156 140.351 41.8702 139.883 38.6221C139.708 37.4098 139.314 35.9755 139.125 34.0986C139.107 33.9186 139.075 33.3735 139.075 33.3735C139.075 33.3735 143.712 37.0249 143.794 40.9758C143.837 43.026 143.479 45.7068 143.125 47.7597Z" fill="#5F9AA8"/>
<path d="M166.189 41.0269C163.377 40.5909 159.455 39.8225 158.14 38.6233C157.784 38.2963 156.958 36.5034 156.09 34.4466C156.09 34.4466 155.788 31.1407 156.652 31.2641C157.516 31.3876 158.787 37.2508 159.694 37.6212C160.505 37.9535 164.993 39.6767 166.189 41.0269Z" fill="#5F9AA8"/>
<path d="M304.731 166.976C304.337 168.313 302.499 169.209 302.257 170.837C302.174 171.514 301.898 172.153 301.462 172.676H295.764C295.821 172.362 296.071 172.02 296.814 171.863C298.397 171.517 298.993 169.598 298.896 167.815C298.862 167.037 298.866 166.258 298.911 165.48C298.961 164.459 299.042 163.658 299.042 163.658L302.405 162.87L302.759 163.325L303.097 163.762C303.097 163.762 305.126 165.64 304.731 166.976Z" fill="#2C3A64"/>
<path d="M278.198 172.679H266.67C266.932 172.373 267.374 172.077 268.123 171.955C269.897 171.667 272.969 170.642 273.654 168.368C273.677 168.296 273.696 168.221 273.714 168.145C274.257 165.72 278.215 168.888 278.215 168.888C278.215 168.888 278.227 168.985 278.246 169.151C278.315 169.832 278.469 171.684 278.198 172.679Z" fill="#2C3A64"/>
<path d="M268.594 108.429C268.594 108.429 269.194 115.931 269.907 124.95C270.866 137.2 272.02 152.248 272.139 155.098C272.337 160.049 273.128 167.97 273.128 167.97C273.128 167.97 275.007 169.851 278.774 169.059C278.774 169.059 282.124 157.755 283.083 145.797C283.097 145.6 283.111 145.402 283.127 145.205C284.017 133.03 285.401 107.394 285.401 107.394L268.594 108.429Z" fill="#35488B"/>
<path d="M268.594 108.429C268.594 108.429 269.194 115.931 269.907 124.95L283.073 145.793C283.088 145.596 283.102 145.399 283.118 145.202C284.008 133.026 285.392 107.39 285.392 107.39L268.594 108.429Z" fill="#2C3A64"/>
<path d="M271.338 109.319C271.338 109.319 282.172 136.491 289.295 149.259C296.419 162.027 298.646 165.594 298.646 165.594C298.646 165.594 302.727 163.96 303.098 162.846C303.098 162.846 300.373 138.195 295.604 132.186C292.907 128.791 289.74 118.601 289.592 115.038C289.444 111.475 288.628 104.423 288.628 104.423L271.338 109.319Z" fill="#35488B"/>
<path d="M276.896 67.3786C276.414 64.5337 276.398 62.8472 276.398 62.8472L281.895 58.417C281.692 64.5101 285.595 67.4417 285.595 67.4417C285.595 67.4417 278.269 71.0484 274.035 69.7126C274.838 68.7661 275.808 67.975 276.896 67.3786Z" fill="#935C2F"/>
<path d="M275.104 62.7512C275.104 62.7512 282.098 63.9136 282.754 59.5464C283.411 55.1792 284.755 52.3868 280.317 51.4595C275.88 50.5322 274.761 52.0689 274.188 53.4743C273.614 54.8797 273.303 62.3322 275.104 62.7512Z" fill="#A16D3C"/>
<path d="M250.544 71.7509L249.055 70.8315C249.055 70.8315 247.199 68.0891 244.028 69.7926C244.028 69.7926 242.773 70.5938 243.615 71.265C244.456 71.9361 244.232 71.5565 245.399 72.5285C246.566 73.5004 248.077 73.8419 249.053 73.3166L250.302 73.1983L250.544 71.7509Z" fill="#A16D3C"/>
<path d="M248.776 72.0389C249.159 70.8384 249.341 70.7254 249.341 70.7254C249.341 70.7254 261.38 72.1492 262.516 72.2333C263.652 72.3173 279.414 69.0679 279.414 69.0679L286.862 78.1188C286.862 78.1188 264.917 78.9463 262.049 78.677C257.303 78.2331 248.696 73.8173 248.696 73.8173C248.569 73.2275 248.596 72.6149 248.776 72.0389Z" fill="#0057B2"/>
<path d="M289.455 105.808C289.476 106.275 288.515 106.787 288.098 106.975C284.955 108.384 282.028 109.364 278.721 109.682C274.798 110.085 270.162 109.202 268.573 109.223C268.409 109.222 268.251 109.162 268.128 109.054C268.021 108.969 267.936 104.174 268.021 98.1313C268.021 97.8975 268.021 97.6414 268.042 97.4089V97.3249C268.049 96.6957 268.058 96.0561 268.072 95.4099C268.112 93.6433 268.177 91.8294 268.255 90.0248C268.369 87.369 268.527 84.7579 268.746 82.4436C268.974 80.0281 269.263 77.9358 269.632 76.4516C270.48 73.0367 272.431 70.7881 274.211 69.1331L275.674 67.8407C277.212 68.1801 278.819 67.9855 280.232 67.289C281.907 66.4616 283.731 65.5711 284.026 65.7825C286.287 67.4729 287.809 71.3095 288.589 76.1863C289.023 79.0329 289.228 81.9099 289.202 84.7894C289.202 85.961 289.166 87.1479 289.094 88.3501C288.716 94.786 289.103 100.373 289.325 103.619C289.389 104.555 289.441 105.297 289.455 105.808Z" fill="#007DFF"/>
<path d="M252.279 46.2715L208.056 39.2406C207.609 39.1694 207.152 39.1871 206.712 39.2925C206.271 39.398 205.856 39.5891 205.49 39.8552C205.123 40.1212 204.813 40.4568 204.576 40.8428C204.339 41.2289 204.181 41.6579 204.109 42.1052L202.152 54.4371C202.061 55.0085 202.207 56.6135 202.207 56.6135L203.801 56.8512C203.892 56.8708 203.984 56.8844 204.077 56.892C204.379 56.9159 204.682 56.8747 204.967 56.7711C206.497 56.2188 208.147 56.0864 209.746 56.3877C211.345 56.689 212.834 57.413 214.059 58.4845C215.284 59.556 216.199 60.9359 216.711 62.481C217.223 64.0261 217.311 65.6801 216.968 67.2711C216.625 68.8622 215.863 70.3324 214.76 71.529C213.657 72.7256 212.254 73.605 210.696 74.076C209.139 74.5469 207.484 74.5922 205.903 74.2072C204.322 73.8221 202.874 73.0207 201.707 71.8862C201.474 71.6555 201.17 71.5114 200.844 71.4778L199.176 71.2282L197.099 86.2698C197.029 86.711 197.046 87.1617 197.15 87.5961C197.254 88.0305 197.443 88.4402 197.705 88.8017C197.968 89.1632 198.299 89.4695 198.679 89.703C199.06 89.9365 199.483 90.0928 199.924 90.1628L212.554 92.1724C212.821 92.2147 213.074 92.3247 213.287 92.4918C213.501 92.659 213.668 92.8779 213.773 93.1278C213.878 93.3777 213.918 93.6503 213.888 93.9198C213.859 94.1893 213.761 94.4468 213.604 94.6679C212.786 95.8175 212.247 97.1418 212.029 98.536C211.127 104.215 215.676 109.502 221.806 109.062C224.892 108.841 228.378 106.251 229.496 103.366C230.282 101.383 230.355 99.1885 229.701 97.1582C229.621 96.9075 229.606 96.6404 229.658 96.3823C229.71 96.1242 229.827 95.8836 229.998 95.6835C230.169 95.4834 230.388 95.3304 230.635 95.2391C230.882 95.1478 231.148 95.1212 231.408 95.1618L244.119 97.1819C245.009 97.3233 245.919 97.1053 246.649 96.5757C247.378 96.0462 247.868 95.2484 248.009 94.358L255.04 50.066C255.176 49.1966 254.962 48.3086 254.444 47.5971C253.926 46.8856 253.148 46.4088 252.279 46.2715Z" fill="#4A75CB"/>
<path d="M284.188 76.0576C284.188 76.0576 280.799 91.8846 268.072 95.4099C268.112 93.6433 268.177 91.8295 268.255 90.0248C268.369 87.369 268.527 84.7579 268.746 82.4436C268.95 82.336 269.162 82.2451 269.381 82.1717C273.699 80.7453 284.188 76.0576 284.188 76.0576Z" fill="#0057B2"/>
<path d="M227.852 103.125C228.638 101.143 228.711 98.9483 228.058 96.9179C227.977 96.6666 227.962 96.3988 228.014 96.14C228.066 95.8813 228.184 95.6402 228.356 95.4399C228.528 95.2396 228.748 95.0868 228.996 94.996C229.244 94.9053 229.511 94.8796 229.771 94.9215L242.488 96.9416C242.928 97.0116 243.379 96.9941 243.812 96.8901C244.246 96.7861 244.656 96.5976 245.017 96.3354C245.378 96.0732 245.684 95.7423 245.917 95.3618C246.15 94.9813 246.306 94.5586 246.376 94.1177L253.408 49.8257C253.546 48.9559 253.333 48.0669 252.816 47.3541C252.299 46.6413 251.52 46.1631 250.651 46.0246L206.427 38.9977C205.525 38.8562 204.604 39.0784 203.866 39.6154C203.127 40.1524 202.632 40.9605 202.488 41.8623L200.531 54.1942C200.473 54.5589 200.51 54.9324 200.64 55.278C200.77 55.6236 200.988 55.9293 201.272 56.1649C201.557 56.4006 201.897 56.558 202.261 56.6217C202.624 56.6854 202.998 56.6532 203.346 56.5282C204.876 55.9766 206.526 55.8447 208.124 56.1464C209.722 56.448 211.211 57.1722 212.435 58.2436C213.659 59.3151 214.575 60.6948 215.086 62.2396C215.597 63.7844 215.686 65.4379 215.342 67.0285C214.999 68.6191 214.237 70.0889 213.134 71.2851C212.031 72.4814 210.629 73.3606 209.072 73.8315C207.515 74.3024 205.861 74.3479 204.28 73.9631C202.7 73.5783 201.251 72.7773 200.084 71.6433C199.894 71.4566 199.656 71.3259 199.396 71.2656C199.136 71.2053 198.865 71.2176 198.612 71.3013C198.358 71.385 198.133 71.5368 197.96 71.74C197.787 71.9433 197.674 72.1902 197.632 72.4537L195.478 86.0269C195.336 86.9177 195.554 87.8283 196.084 88.5584C196.613 89.2884 197.411 89.7782 198.302 89.9199L210.935 91.9269C211.203 91.9692 211.456 92.0791 211.669 92.2463C211.882 92.4135 212.049 92.6324 212.155 92.8823C212.26 93.1322 212.299 93.4048 212.27 93.6743C212.24 93.9438 212.143 94.2013 211.986 94.4224C211.166 95.5713 210.627 96.8959 210.41 98.2905C209.508 103.97 214.057 109.256 220.187 108.816C223.249 108.601 226.733 106.011 227.852 103.125Z" fill="#699DEE"/>
<path d="M250.594 81.9539L248.776 81.6531C248.776 81.6531 246.703 78.6532 243.09 80.3396C243.09 80.3396 241.658 81.1422 242.605 81.8921C243.553 82.6421 243.3 82.2297 244.613 83.3146C245.926 84.3995 247.632 84.8329 248.743 84.3023L250.161 84.2288L250.594 81.9539Z" fill="#A16D3C"/>
<path d="M249.204 82.8788C249.263 81.5404 249.976 81.3972 249.976 81.3972C249.976 81.3972 263.756 80.4831 264.937 80.2558C266.119 80.0286 277.096 70.9304 277.096 70.9304C277.096 70.9304 281.338 67.1214 284.31 68.4033C286.894 69.5224 287.702 71.729 287.832 73.7582C287.904 74.9411 287.617 76.1181 287.01 77.1356C286.402 78.1531 285.503 78.964 284.428 79.4625C279.502 81.765 269.649 86.2845 267.405 86.6733C262.416 87.5415 249.574 84.7609 249.574 84.7609C249.308 84.1703 249.181 83.5263 249.204 82.8788Z" fill="#007DFF"/>
<path d="M274.186 53.4691C274.186 53.4691 271.348 51.3676 273.199 48.0919C273.199 48.0919 275.431 48.8327 278.603 48.0919C281.775 47.3511 284.613 48.4005 284.983 49.5104C284.983 49.5104 286.218 50.0056 286.341 51.8562C286.464 53.7068 282.753 59.5412 282.753 59.5412C282.753 59.5412 281.965 58.5534 282.175 57.8744C282.385 57.1953 283.071 55.6836 282.237 55.6836C281.403 55.6836 281.128 56.9182 280.793 56.4244C280.458 55.9305 281.071 53.8631 280.084 53.523C279.097 53.1828 275.297 54.093 274.186 53.4691Z" fill="#2C3A64"/>
<path d="M177.72 171.102L165.219 114.318H168.66C169.053 114.317 169.43 114.161 169.708 113.882C169.986 113.604 170.142 113.227 170.143 112.834V110.916C170.142 110.523 169.986 110.147 169.708 109.869C169.43 109.591 169.053 109.434 168.66 109.434H125.008C124.615 109.435 124.239 109.591 123.961 109.869C123.683 110.147 123.527 110.524 123.526 110.916V112.834C123.527 113.227 123.683 113.604 123.961 113.882C124.238 114.16 124.615 114.317 125.008 114.318H129.439L116.938 171.102C116.898 171.284 116.894 171.472 116.926 171.655C116.958 171.839 117.026 172.014 117.126 172.171C117.226 172.328 117.356 172.463 117.508 172.57C117.661 172.677 117.833 172.753 118.014 172.793C118.196 172.833 118.384 172.837 118.567 172.805C118.75 172.773 118.925 172.704 119.082 172.604C119.239 172.504 119.375 172.374 119.481 172.222C119.588 172.07 119.664 171.898 119.704 171.716L132.34 114.318H162.317L174.954 171.716C175.035 172.083 175.258 172.402 175.575 172.605C175.891 172.808 176.275 172.877 176.642 172.797C177.009 172.714 177.328 172.489 177.53 172.172C177.732 171.854 177.8 171.47 177.72 171.102Z" fill="#C3E0F4"/>
<path d="M260.62 136.327C255.992 131.884 239.336 159.923 239.336 159.923C239.336 159.923 265.247 140.77 260.62 136.327Z" fill="#ACD29A"/>
<path d="M260.063 149.29C255.967 147.651 242.877 161.458 239.928 164.645C237.459 164.323 234.974 164.142 232.485 164.103C211.756 163.733 202.354 173.125 202.354 173.125L260.179 173.322C260.179 173.322 255.059 166.815 240.525 164.728C244.077 163.051 254.573 158.161 258.397 157.224C263.025 156.086 264.69 151.146 260.063 149.29Z" fill="#ACD29A"/>
<path d="M243.754 121.148H231.273C230.903 121.147 230.539 121.242 230.217 121.425C229.896 121.608 229.628 121.872 229.44 122.191C229.251 122.509 229.15 122.872 229.145 123.242C229.14 123.612 229.232 123.977 229.411 124.3C230.165 125.666 227.511 137.499 221.921 137.808C220.212 137.9 218.512 137.509 217.015 136.679C215.518 135.85 214.284 134.616 213.455 133.118C212.627 131.62 212.236 129.919 212.329 128.209C212.421 126.499 212.993 124.85 213.978 123.45C214.132 123.233 214.224 122.978 214.243 122.712C214.262 122.446 214.207 122.18 214.085 121.943C213.964 121.706 213.779 121.507 213.551 121.368C213.324 121.229 213.063 121.155 212.797 121.155H199.055C198.153 121.155 197.289 121.513 196.651 122.151C196.014 122.788 195.656 123.653 195.656 124.555C195.656 124.555 194.41 139.306 193.352 138.777C192.232 138.218 191.008 137.897 189.758 137.834H189.747C189.593 137.826 189.439 137.822 189.283 137.822C189.127 137.822 186.866 137.783 186.866 137.783L186.523 156.005L188.493 156.026C190.36 155.97 191.981 155.795 193.423 155.061C193.658 154.944 193.919 154.888 194.181 154.9C194.444 154.912 194.699 154.991 194.922 155.129C195.146 155.267 195.331 155.46 195.459 155.689C195.587 155.919 195.654 156.177 195.654 156.44V169.312C195.654 170.213 196.012 171.078 196.65 171.716C197.287 172.353 198.151 172.711 199.052 172.711H243.879C244.759 172.711 245.604 172.361 246.227 171.738C246.849 171.115 247.199 170.27 247.199 169.389V124.596C247.199 123.682 246.836 122.805 246.19 122.158C245.544 121.512 244.668 121.148 243.754 121.148Z" fill="#0057B2"/>
<path d="M184.839 155.792C186.919 156.257 189.097 155.985 190.999 155.021C191.234 154.902 191.496 154.845 191.76 154.856C192.023 154.867 192.28 154.946 192.504 155.084C192.729 155.223 192.914 155.417 193.043 155.647C193.171 155.878 193.239 156.137 193.238 156.401V169.273C193.238 170.175 193.596 171.039 194.234 171.677C194.871 172.315 195.735 172.673 196.636 172.673H241.463C241.899 172.673 242.331 172.587 242.734 172.421C243.136 172.254 243.502 172.009 243.811 171.7C244.119 171.392 244.364 171.026 244.53 170.623C244.697 170.22 244.783 169.788 244.783 169.352V124.558C244.783 123.643 244.42 122.766 243.774 122.12C243.128 121.473 242.251 121.109 241.337 121.109H228.855C228.486 121.108 228.122 121.204 227.801 121.387C227.479 121.57 227.212 121.834 227.023 122.152C226.835 122.471 226.734 122.833 226.728 123.203C226.723 123.573 226.815 123.938 226.994 124.261C227.779 125.687 228.169 127.296 228.122 128.923C228.075 130.551 227.594 132.135 226.729 133.514C225.863 134.892 224.644 136.013 223.199 136.761C221.754 137.509 220.135 137.856 218.511 137.766C216.886 137.677 215.315 137.154 213.961 136.252C212.607 135.35 211.519 134.102 210.809 132.637C210.1 131.172 209.796 129.544 209.928 127.922C210.06 126.299 210.624 124.742 211.561 123.411C211.715 123.194 211.807 122.938 211.825 122.672C211.844 122.407 211.79 122.141 211.668 121.904C211.546 121.667 211.361 121.468 211.134 121.328C210.907 121.189 210.646 121.115 210.379 121.114H196.637C195.736 121.114 194.871 121.473 194.234 122.111C193.597 122.749 193.238 123.614 193.238 124.516V137.313C193.238 137.584 193.169 137.851 193.037 138.088C192.905 138.326 192.714 138.525 192.483 138.668C192.253 138.811 191.989 138.892 191.718 138.904C191.447 138.916 191.177 138.859 190.934 138.738C189.671 138.106 188.277 137.778 186.864 137.78C181.117 137.78 176.612 143.105 178.008 149.093C178.712 152.102 181.814 155.14 184.839 155.792Z" fill="#007DFF"/>
<path d="M55.0466 172.928L63.1037 172.987C63.1037 172.987 62.8228 171.036 57.3993 170.533C55.2987 164.691 49.1203 148.973 43.7573 149.715C38.4611 150.45 51.003 164.87 56.1061 170.477C55.4308 170.477 54.7565 170.53 54.0896 170.636C52.8607 168.188 50.424 164.725 46.5117 164.884C42.3499 165.052 48.0202 168.856 51.9246 171.189C49.9474 171.898 48.8788 172.881 48.8788 172.881L54.9561 172.925L55.0663 172.984L55.0466 172.928Z" fill="#ACD29A"/>
<path d="M83.8343 107.802L85.0264 108.77C85.0264 108.77 88.2863 107.6 89.0228 111.477C89.0228 111.477 89.2184 113.13 88.172 113.132C87.1257 113.135 87.5576 112.952 86.0714 113.001C84.5853 113.049 83.363 112.263 83.145 111.06L82.4492 110.035L83.8343 107.802Z" fill="#EA8E50"/>
<path d="M83.6975 109.875C84.648 108.882 84.5718 108.148 84.5718 108.148C84.5718 108.148 73.5595 99.1337 72.4422 98.3929C71.6807 97.8911 63.5711 90.6987 59.7796 86.3092C57.8969 84.1381 55.5692 84.9813 52.908 85.747L50.7142 86.3762C48.0635 87.138 47.3742 90.8419 49.5483 92.6479C55.6729 97.7217 65.8608 103.43 67.7658 104.629C72.4987 107.608 81.761 111.146 81.761 111.146C82.4845 110.856 83.1429 110.423 83.6975 109.875Z" fill="#1E3D70"/>
<path d="M96.5875 165.2C96.5875 165.2 99.2605 167.203 103.355 166.145C103.355 166.145 106.657 165.391 107.381 167.04C107.381 167.04 102.317 169.613 101.036 170.323C100.071 170.849 99.0662 171.691 98.3494 172.338C98.2156 172.459 98.0586 172.552 97.8879 172.61C97.7171 172.669 97.5363 172.692 97.3564 172.678C97.1765 172.664 97.0014 172.613 96.8416 172.53C96.6819 172.446 96.5409 172.33 96.4273 172.19C96.2041 171.917 95.9494 171.59 95.6698 171.211C94.8821 170.153 93.0703 166.734 93.0703 166.734L96.5875 165.2Z" fill="#233862"/>
<path d="M97.8354 164.28C97.8354 164.28 96.2074 168.034 92.4526 167.345C92.4526 167.345 84.7867 161.011 79.5287 154.432C77.8219 152.295 76.3673 150.132 75.5126 148.153C72.0256 140.076 62.6149 128.031 56.6309 121.926L71.5976 116.508C71.5976 116.508 76.3922 126.158 82.7728 138.012C87.3731 146.549 92.7926 156.233 97.8354 164.28Z" fill="#2B478B"/>
<path d="M82.7748 138.011L79.5267 154.429C77.82 152.292 76.3653 150.129 75.5106 148.15C72.0236 140.073 62.613 128.028 56.6289 121.923L71.5957 116.505C71.5957 116.505 76.3942 126.153 82.7748 138.011Z" fill="#233862"/>
<path d="M70.5019 167.332C70.5019 167.332 70.3391 170.326 73.9692 170.727C73.9692 170.727 76.0435 170.737 76.0487 172.643L65.4998 172.677C65.4998 172.677 65.1926 171.908 65.1191 170.261C65.0613 168.996 66.344 165.688 66.344 165.688L70.5019 167.332Z" fill="#233862"/>
<path d="M66.6947 116.504C66.6947 116.504 73.364 123.835 77.5915 137.043C79.8956 144.229 73.3706 162.298 72.0984 168.575C72.0984 168.575 67.7213 168.947 64.728 167.787C64.728 167.787 64.5008 154.821 66.2509 144.827C67.2303 139.234 57.4691 132.865 53.2049 122.761C50.3034 115.886 53.8324 116.003 58.1715 115.838L66.6947 116.504Z" fill="#2B478B"/>
<path d="M58.992 83.795C55.2805 85.8966 47.6855 83.9579 47.6855 83.9579C47.6855 83.9579 50.7695 80.43 49.3647 74.748L52.278 76.2283L55.4065 77.8176C55.5716 78.7463 55.686 79.6833 55.7492 80.6244C55.786 81.088 55.8175 81.6068 55.8398 82.1729C56.9808 82.5163 58.0492 83.0661 58.992 83.795Z" fill="#FFB07B"/>
<path d="M72.601 116.126C72.601 116.782 71.85 117.09 71.6899 117.121C70.1945 117.396 66.0156 119.022 62.2503 119.395C59.081 119.727 56.1389 119.411 52.9053 118.762C52.4773 118.675 51.4716 118.404 51.4007 117.995C51.3115 117.545 38.9284 92.7424 48.5557 82.0877C48.7815 81.8382 50.6813 82.2887 52.4182 82.7011C53.8832 83.0478 55.4203 82.9223 56.8098 82.3426L58.439 83.2002C60.4399 84.3153 64.2262 88.278 64.6686 91.3882C64.8944 92.9644 65.7977 94.1465 66.0603 95.5322C66.1574 96.047 66.2563 96.5492 66.357 97.0387C66.5539 98.0019 66.757 98.9169 66.9661 99.7838C67.5333 102.136 68.1307 104.16 68.7175 105.91C69.3411 107.767 69.9542 109.311 70.5004 110.604C71.2107 112.28 71.8133 113.532 72.1848 114.492C72.4448 115.167 72.601 115.696 72.601 116.126Z" fill="#2A4E96"/>
<path d="M72.181 114.492C54.7027 106.252 48.6504 90.4346 48.6504 90.4346C48.6504 90.4346 62.8504 95.6752 66.3532 97.0386C66.5501 98.0018 66.7532 98.9168 66.9623 99.7837C67.5295 102.136 68.1269 104.16 68.7137 105.91C69.3373 107.767 69.9504 109.311 70.4966 110.604C71.2069 112.28 71.8068 113.531 72.181 114.492Z" fill="#1E3D70"/>
<path d="M121.549 96.9702L117.805 85.094C117.639 84.5679 117.275 84.1271 116.79 83.8647C116.306 83.6024 115.738 83.5392 115.207 83.6886C115.152 83.7044 115.097 83.7241 115.043 83.7438L113.73 84.1825C113.73 84.1825 111.674 86.2998 110.199 86.7266C105.665 88.0401 101.361 85.622 99.707 81.1997C97.869 76.2795 100.001 70.8773 104.944 69.3182C106.635 68.785 109.963 69.7793 109.963 69.7793L111.3 69.3353C111.484 69.2807 111.656 69.1897 111.805 69.0677C111.954 68.9457 112.077 68.7952 112.166 68.625C112.256 68.4548 112.311 68.2683 112.328 68.0766C112.345 67.8848 112.323 67.6916 112.265 67.5083L108.141 54.4369C108.007 54.0119 107.791 53.6174 107.505 53.276C107.219 52.9346 106.868 52.653 106.473 52.4472C106.078 52.2414 105.646 52.1155 105.203 52.0768C104.759 52.038 104.312 52.087 103.887 52.2211L91.7208 56.0603C91.4627 56.1419 91.188 56.1561 90.9228 56.1015C90.6576 56.047 90.4109 55.9254 90.2059 55.7485C90.0009 55.5716 89.8445 55.3452 89.7517 55.0908C89.6588 54.8364 89.6325 54.5625 89.6754 54.2951C89.8953 52.9053 89.7888 51.4834 89.3642 50.142C87.6404 44.6715 81.2244 41.9815 75.9532 45.1062C73.2973 46.6823 71.3398 50.5426 71.6273 53.616C71.8081 55.7358 72.7207 57.7266 74.2084 59.2468C74.3921 59.4351 74.5246 59.6674 74.593 59.9214C74.6615 60.1755 74.6637 60.4429 74.5994 60.6981C74.5352 60.9533 74.4066 61.1877 74.226 61.3791C74.0453 61.5704 73.8187 61.7122 73.5677 61.7909L61.3252 65.6537C60.468 65.9245 59.7533 66.5247 59.3382 67.3225C58.9231 68.1202 58.8417 69.0502 59.1117 69.908L72.5594 112.565C72.8237 113.402 73.4099 114.101 74.1889 114.506C74.9679 114.912 75.876 114.991 76.7134 114.727L119.304 101.289C119.735 101.153 120.135 100.934 120.482 100.643C120.828 100.352 121.114 99.9964 121.322 99.5953C121.531 99.1942 121.658 98.7558 121.697 98.3054C121.736 97.8549 121.686 97.4012 121.549 96.9702Z" fill="#4A75CB"/>
<path d="M70.3318 54.0441C70.5127 56.1638 71.4252 58.1546 72.9129 59.6748C73.0983 59.863 73.2321 60.0958 73.3015 60.3507C73.3708 60.6056 73.3735 60.8741 73.3091 61.1303C73.2448 61.3865 73.1156 61.6219 72.934 61.8137C72.7524 62.0055 72.5245 62.1473 72.2723 62.2255L60.0297 66.0883C59.6052 66.2223 59.2112 66.4386 58.8702 66.7249C58.5293 67.0112 58.248 67.3619 58.0426 67.7569C57.8372 68.152 57.7115 68.5837 57.6729 69.0274C57.6343 69.471 57.6835 69.9179 57.8175 70.3426L71.264 112.999C71.5291 113.836 72.1156 114.534 72.8945 114.938C73.6734 115.343 74.581 115.422 75.4179 115.157L118.009 101.719C118.439 101.584 118.839 101.364 119.185 101.074C119.531 100.784 119.816 100.428 120.025 100.027C120.233 99.6268 120.361 99.1889 120.4 98.7389C120.439 98.2889 120.39 97.8356 120.254 97.4048L116.509 85.5286C116.399 85.1784 116.199 84.863 115.929 84.6134C115.66 84.3639 115.33 84.1888 114.973 84.1053C114.615 84.0218 114.242 84.0329 113.89 84.1373C113.538 84.2418 113.219 84.4361 112.965 84.7012C111.845 85.8763 110.431 86.7301 108.87 87.1739C107.309 87.6177 105.658 87.6354 104.088 87.225C102.517 86.8146 101.086 85.9912 99.9411 84.8403C98.7965 83.6894 97.9807 82.2529 97.5785 80.6799C97.1763 79.107 97.2023 77.4551 97.6538 75.8957C98.1053 74.3362 98.9659 72.9261 100.146 71.8118C101.326 70.6975 102.783 69.9196 104.366 69.559C105.948 69.1983 107.598 69.268 109.144 69.7607C109.398 69.8422 109.668 69.8523 109.927 69.7902C110.186 69.728 110.422 69.5958 110.611 69.4082C110.8 69.2205 110.933 68.9846 110.997 68.7262C111.06 68.4677 111.052 68.1968 110.972 67.9429L106.845 54.8702C106.575 54.0123 105.975 53.2971 105.177 52.8818C104.379 52.4665 103.449 52.3852 102.592 52.6558L90.4254 56.495C90.1672 56.5765 89.8925 56.5907 89.6274 56.5362C89.3622 56.4816 89.1154 56.3601 88.9104 56.1832C88.7054 56.0063 88.5491 55.7798 88.4562 55.5254C88.3634 55.271 88.3371 54.9971 88.3799 54.7297C88.6007 53.3382 88.4941 51.9144 88.0687 50.5713C86.3449 45.1021 79.9289 42.4122 74.6578 45.5356C72.0018 47.1065 70.0443 50.9706 70.3318 54.0441Z" fill="#699DEE"/>
<path d="M82.4062 109.717L83.916 110.271C83.916 110.271 86.9356 108.132 88.8235 111.611C88.8235 111.611 89.5049 113.131 88.4296 113.461C87.3544 113.79 87.743 113.48 86.228 113.986C84.7129 114.492 83.2202 114.126 82.6478 113.044L81.6211 112.29L82.4062 109.717Z" fill="#FFB07B"/>
<path d="M83.6505 111.854C84.2085 110.396 84.4632 109.736 84.4632 109.736C84.4632 109.736 73.0517 100.43 71.8885 99.6313C71.1008 99.0875 63.2078 93.1954 59.3611 88.5905C58.4249 87.4714 57.2024 86.628 55.8242 86.1502C54.4459 85.6725 52.9639 85.5785 51.5364 85.8782L49.1404 86.3813C46.252 86.9881 45.3081 90.6513 47.5518 92.5755C53.872 97.9961 64.5312 104.282 66.5189 105.59C71.4526 108.836 82.3665 113.384 82.3665 113.384C82.3665 113.384 83.212 112.998 83.6505 111.854Z" fill="#2A4E96"/>
<path d="M55.7533 80.6246C52.1048 80.8295 49.7324 77.8152 49.7324 77.8152C49.7324 77.8152 51.3814 76.8957 52.282 76.2285L55.4106 77.8178C55.5757 78.7465 55.6901 79.6835 55.7533 80.6246Z" fill="#EA8E50"/>
<path d="M57.3082 76.8757C57.3082 76.8757 51.7783 80.8449 49.3613 77.363C46.9443 73.881 44.6009 72.0474 48.0288 69.3654C51.4567 66.6833 53.0728 67.5266 54.1625 68.4972C55.2522 69.4678 58.6854 75.754 57.3082 76.8757Z" fill="#FFB07B"/>
<path d="M54.7471 65.3519C54.6348 64.5665 54.418 63.7997 54.1025 63.0718C54.1025 63.0718 53.7559 64.51 51.1288 64.3117C48.5018 64.1133 44.3399 64.5744 42.9522 67.5638C42.8643 67.7542 42.7855 67.9578 42.7146 68.1509C42.4639 67.4876 42.4035 66.4933 42.4035 66.4933C41.9046 67.7818 42.4035 69.3947 42.4035 69.3947C42.3956 69.4407 42.3903 69.488 42.3825 69.5352C41.8035 70.0252 41.3164 71.5501 41.3164 71.5501C41.491 71.1245 41.9177 70.8474 42.2984 70.6766C42.2866 73.0067 43.2306 75.2842 44.8887 75.9619C47.3136 76.9536 47.2939 76.197 49.7319 77.8152C49.7319 77.8152 50.3884 77.0035 49.9394 76.4584C49.4903 75.9133 47.8086 75.12 48.7499 74.3267C49.6912 73.5334 50.0391 74.4252 50.3857 73.8801C50.7323 73.335 48.998 71.7484 51.2286 70.2603C53.4592 68.7721 54.9453 66.6916 54.7471 65.3519Z" fill="#233862"/>
<path d="M197.07 172.698C197.07 172.698 194.274 168.564 189.899 168.897C188.57 168.998 186.409 169.323 183.898 169.668C182.005 163.059 176.788 147.35 169.749 146.465C162.563 145.562 176.628 163.033 182.379 169.873C181.329 170.011 180.241 170.146 179.142 170.267C176.096 167.014 170.789 162.195 166.358 162.565C161.927 162.935 170.233 167.531 176.236 170.536C172.552 170.812 169.06 170.782 166.927 169.957C161.7 167.936 156.896 172.7 156.896 172.7L197.07 172.698Z" fill="#82B378"/>
<path d="M337.68 172.677H0.383359C0.171636 172.677 0 172.849 0 173.061V173.191C0 173.403 0.171636 173.574 0.383359 173.574H337.68C337.892 173.574 338.063 173.403 338.063 173.191V173.061C338.063 172.849 337.892 172.677 337.68 172.677Z" fill="#2E3552"/>
</g>
<defs>
<clipPath id="clip0_558_12613">
<rect width="338.063" height="173.574" fill="white"/>
</clipPath>
</defs>
</svg>
