<svg width="895" height="544" viewBox="0 0 895 544" fill="none" xmlns="http://www.w3.org/2000/svg">
<g clip-path="url(#clip0_1555_17965)">
<path d="M17.9074 544L300.478 542.531L375.802 542.507H400.752L476.216 542.486L820.986 542.39C820.986 542.39 899.844 441.14 815.61 344.975C728.272 245.271 685.808 326.471 658.962 186.123C591.398 -167.16 -76.7023 38.4564 98.5351 339.095C161.632 447.32 -25.6671 389.786 17.9074 544Z" fill="#EBF3FA"/>
<path d="M303.674 463.136L301.997 462.216C301.138 461.744 300.5 460.949 300.225 460.007C299.95 459.064 300.059 458.051 300.53 457.19L308.227 443.114C308.699 442.253 309.493 441.615 310.435 441.339C311.377 441.064 312.389 441.174 313.25 441.645L315.65 442.96C315.739 443.002 315.818 443.062 315.883 443.136C315.947 443.209 315.996 443.296 316.027 443.389C316.057 443.482 316.068 443.581 316.06 443.678C316.051 443.776 316.023 443.871 315.976 443.958C315.929 444.044 315.866 444.12 315.789 444.181C315.712 444.242 315.624 444.287 315.529 444.313C315.435 444.339 315.336 444.345 315.239 444.331C315.142 444.318 315.048 444.284 314.965 444.234L312.565 442.915C312.041 442.629 311.425 442.562 310.852 442.73C310.279 442.898 309.796 443.287 309.51 443.811L301.799 457.876C301.513 458.401 301.446 459.018 301.614 459.591C301.782 460.165 302.17 460.648 302.693 460.935L304.37 461.855C304.894 462.141 305.51 462.208 306.083 462.04C306.655 461.872 307.138 461.483 307.425 460.959L312.534 451.615C312.576 451.526 312.636 451.447 312.709 451.382C312.783 451.317 312.869 451.268 312.962 451.237C313.055 451.207 313.154 451.196 313.251 451.205C313.349 451.213 313.444 451.242 313.53 451.288C313.616 451.335 313.692 451.399 313.753 451.476C313.814 451.552 313.859 451.641 313.885 451.736C313.911 451.83 313.917 451.929 313.903 452.026C313.89 452.124 313.856 452.217 313.806 452.301L308.694 461.653C308.461 462.08 308.147 462.458 307.769 462.764C307.391 463.069 306.957 463.298 306.491 463.435C306.025 463.573 305.536 463.618 305.053 463.566C304.569 463.515 304.101 463.368 303.674 463.136Z" fill="#AFCDFB"/>
<path d="M296.528 477.918L293.524 476.274C290.737 474.743 289.798 471.066 291.433 468.072L303.008 446.908C303.05 446.819 303.11 446.74 303.184 446.675C303.257 446.611 303.343 446.561 303.436 446.531C303.53 446.5 303.628 446.489 303.726 446.498C303.823 446.507 303.918 446.535 304.004 446.582C304.091 446.628 304.167 446.692 304.228 446.769C304.289 446.846 304.333 446.934 304.359 447.029C304.385 447.124 304.391 447.223 304.378 447.32C304.364 447.417 304.331 447.511 304.28 447.595L292.705 468.759C291.45 471.049 292.132 473.847 294.22 474.99L297.224 476.638C299.312 477.784 302.024 476.851 303.286 474.578L316.469 450.468C317.724 448.178 317.041 445.38 314.953 444.237C314.795 444.141 314.679 443.987 314.63 443.808C314.581 443.629 314.603 443.437 314.691 443.274C314.779 443.11 314.927 442.987 315.103 442.929C315.28 442.871 315.472 442.884 315.639 442.963C318.427 444.495 319.366 448.171 317.731 451.165L304.541 475.268C302.919 478.258 299.319 479.449 296.528 477.918Z" fill="#AFCDFB"/>
<path opacity="0.6" d="M548.547 73.9812H217.177C208.112 73.9812 200.764 81.3388 200.764 90.415V368.402C200.764 377.478 208.112 384.836 217.177 384.836H548.547C557.612 384.836 564.96 377.478 564.96 368.402V90.415C564.96 81.3388 557.612 73.9812 548.547 73.9812Z" fill="white"/>
<path d="M213.018 73.9812H552.696C555.946 73.9812 559.062 75.2739 561.36 77.5749C563.659 79.8759 564.95 82.9967 564.95 86.2507V108.483H200.764V86.2507C200.764 82.9967 202.055 79.8759 204.353 77.5749C206.651 75.2739 209.768 73.9812 213.018 73.9812Z" fill="#699DEE"/>
<path d="M215.49 91.019C215.49 90.2042 215.732 89.4077 216.184 88.7303C216.636 88.0528 217.278 87.5248 218.03 87.213C218.782 86.9012 219.609 86.8196 220.407 86.9786C221.205 87.1375 221.938 87.5299 222.514 88.106C223.089 88.6821 223.481 89.4162 223.64 90.2153C223.799 91.0144 223.717 91.8428 223.406 92.5955C223.094 93.3483 222.567 93.9917 221.89 94.4443C221.214 94.897 220.418 95.1386 219.605 95.1386C218.513 95.1386 217.467 94.7046 216.695 93.932C215.924 93.1594 215.49 92.1116 215.49 91.019Z" fill="#DDE7FE"/>
<path d="M232.777 91.019C232.777 90.2042 233.019 89.4077 233.471 88.7303C233.923 88.0528 234.565 87.5248 235.317 87.213C236.069 86.9012 236.896 86.8196 237.694 86.9786C238.492 87.1375 239.226 87.5299 239.801 88.106C240.376 88.6821 240.768 89.4162 240.927 90.2153C241.086 91.0144 241.004 91.8428 240.693 92.5955C240.381 93.3483 239.854 93.9917 239.178 94.4443C238.501 94.897 237.705 95.1386 236.892 95.1386C235.801 95.1386 234.754 94.7046 233.982 93.932C233.211 93.1594 232.777 92.1116 232.777 91.019Z" fill="#DDE7FE"/>
<path d="M250.064 91.019C250.064 90.2042 250.306 89.4077 250.758 88.7303C251.21 88.0528 251.853 87.5248 252.604 87.213C253.356 86.9012 254.183 86.8196 254.981 86.9786C255.78 87.1375 256.513 87.5299 257.088 88.106C257.664 88.6821 258.055 89.4162 258.214 90.2153C258.373 91.0144 258.291 91.8428 257.98 92.5955C257.669 93.3483 257.141 93.9917 256.465 94.4443C255.788 94.897 254.993 95.1386 254.179 95.1386C253.088 95.1386 252.041 94.7046 251.27 93.932C250.498 93.1594 250.064 92.1116 250.064 91.019Z" fill="#DDE7FE"/>
<path opacity="0.5" d="M332.865 135.844H229.625V239.215H332.865V135.844Z" fill="#CDE0FB"/>
<path opacity="0.5" d="M443.058 143.551H360.942C360.428 143.552 359.92 143.451 359.445 143.255C358.97 143.058 358.539 142.77 358.176 142.407C357.813 142.043 357.525 141.611 357.329 141.136C357.133 140.661 357.032 140.151 357.033 139.637C357.033 139.124 357.133 138.616 357.329 138.142C357.525 137.667 357.813 137.237 358.175 136.874C358.537 136.511 358.968 136.223 359.441 136.027C359.915 135.831 360.422 135.73 360.935 135.73H443.058C444.091 135.732 445.082 136.145 445.812 136.877C446.542 137.61 446.953 138.602 446.953 139.637C446.953 140.673 446.544 141.667 445.814 142.401C445.083 143.134 444.092 143.548 443.058 143.551Z" fill="#7C9AF2"/>
<path opacity="0.5" d="M541.248 138.312H459.132C458.097 138.312 457.105 137.9 456.373 137.168C455.642 136.435 455.23 135.441 455.23 134.405C455.23 133.892 455.331 133.384 455.527 132.91C455.722 132.436 456.01 132.005 456.372 131.642C456.735 131.279 457.165 130.991 457.639 130.795C458.112 130.599 458.62 130.498 459.132 130.499H541.248C541.761 130.498 542.268 130.599 542.742 130.795C543.215 130.991 543.646 131.279 544.008 131.642C544.37 132.005 544.658 132.436 544.854 132.91C545.05 133.384 545.15 133.892 545.15 134.405C545.15 135.441 544.739 136.435 544.007 137.168C543.275 137.9 542.283 138.312 541.248 138.312Z" fill="#7C9AF2"/>
<g opacity="0.3">
<path d="M459.306 173.624H359.56C359.228 173.624 358.899 173.558 358.592 173.431C358.286 173.304 358.007 173.117 357.772 172.882C357.537 172.646 357.351 172.367 357.225 172.06C357.098 171.752 357.033 171.423 357.033 171.09C357.033 170.419 357.299 169.776 357.773 169.301C358.247 168.827 358.89 168.56 359.56 168.56H459.306C459.976 168.56 460.619 168.827 461.093 169.301C461.567 169.776 461.833 170.419 461.833 171.09C461.833 171.423 461.768 171.752 461.641 172.06C461.515 172.367 461.329 172.646 461.094 172.882C460.859 173.117 460.58 173.304 460.274 173.431C459.967 173.558 459.638 173.624 459.306 173.624Z" fill="#BDD1F9"/>
<path d="M497.23 173.624H470.901C470.23 173.624 469.587 173.357 469.112 172.882C468.638 172.407 468.371 171.762 468.371 171.09C468.372 170.419 468.639 169.776 469.113 169.301C469.588 168.827 470.231 168.56 470.901 168.56H497.23C497.562 168.56 497.891 168.625 498.198 168.752C498.505 168.879 498.784 169.065 499.019 169.3C499.254 169.535 499.44 169.814 499.568 170.121C499.695 170.429 499.76 170.758 499.76 171.09C499.761 171.423 499.696 171.753 499.569 172.061C499.442 172.368 499.255 172.648 499.02 172.883C498.785 173.118 498.506 173.305 498.199 173.432C497.892 173.559 497.562 173.624 497.23 173.624Z" fill="#BDD1F9"/>
<path d="M397.196 189.327H359.56C358.89 189.327 358.247 189.06 357.773 188.586C357.299 188.111 357.033 187.468 357.033 186.796C357.033 186.464 357.098 186.135 357.225 185.827C357.351 185.52 357.537 185.241 357.772 185.005C358.007 184.77 358.286 184.583 358.592 184.456C358.899 184.328 359.228 184.263 359.56 184.263H397.196C397.528 184.263 397.857 184.328 398.164 184.456C398.471 184.583 398.75 184.77 398.984 185.005C399.219 185.241 399.405 185.52 399.532 185.827C399.659 186.135 399.724 186.464 399.723 186.796C399.723 187.468 399.457 188.111 398.983 188.586C398.509 189.06 397.866 189.327 397.196 189.327Z" fill="#BDD1F9"/>
<path d="M458.143 189.327H406.583C405.913 189.327 405.269 189.06 404.795 188.586C404.321 188.111 404.054 187.468 404.053 186.796C404.053 186.125 404.319 185.48 404.794 185.005C405.268 184.53 405.912 184.263 406.583 184.263H458.143C458.475 184.263 458.804 184.328 459.111 184.456C459.417 184.583 459.696 184.77 459.931 185.005C460.166 185.241 460.352 185.52 460.478 185.827C460.605 186.135 460.67 186.464 460.67 186.796C460.67 187.468 460.404 188.111 459.93 188.586C459.456 189.06 458.813 189.327 458.143 189.327Z" fill="#BDD1F9"/>
<path d="M497.23 189.327H470.901C470.231 189.327 469.588 189.06 469.113 188.586C468.639 188.111 468.372 187.468 468.371 186.796C468.371 186.125 468.638 185.48 469.112 185.005C469.587 184.53 470.23 184.263 470.901 184.263H497.23C497.562 184.262 497.892 184.328 498.199 184.455C498.506 184.582 498.785 184.769 499.02 185.004C499.255 185.239 499.442 185.519 499.569 185.826C499.696 186.134 499.761 186.464 499.76 186.796C499.76 187.129 499.695 187.458 499.568 187.766C499.44 188.073 499.254 188.352 499.019 188.587C498.784 188.822 498.505 189.008 498.198 189.135C497.891 189.262 497.562 189.327 497.23 189.327Z" fill="#BDD1F9"/>
<path d="M410.626 202.904H359.56C358.89 202.904 358.247 202.637 357.773 202.163C357.299 201.688 357.033 201.045 357.033 200.374C357.033 200.041 357.098 199.712 357.225 199.405C357.351 199.097 357.537 198.818 357.772 198.583C358.007 198.347 358.286 198.161 358.592 198.033C358.899 197.906 359.228 197.84 359.56 197.84H410.626C410.959 197.84 411.288 197.905 411.595 198.032C411.902 198.159 412.181 198.346 412.416 198.581C412.651 198.817 412.838 199.096 412.965 199.404C413.092 199.711 413.157 200.041 413.157 200.374C413.157 200.706 413.091 201.036 412.964 201.343C412.837 201.65 412.65 201.929 412.415 202.164C412.18 202.399 411.901 202.585 411.594 202.712C411.287 202.839 410.958 202.904 410.626 202.904Z" fill="#BDD1F9"/>
<path d="M508.144 202.904H424.623C423.952 202.904 423.31 202.637 422.836 202.163C422.362 201.688 422.096 201.045 422.096 200.374C422.095 200.041 422.16 199.712 422.287 199.405C422.414 199.097 422.6 198.818 422.835 198.583C423.069 198.347 423.348 198.161 423.655 198.033C423.962 197.906 424.29 197.84 424.623 197.84H508.144C508.476 197.84 508.805 197.906 509.112 198.033C509.419 198.161 509.697 198.347 509.932 198.583C510.167 198.818 510.353 199.097 510.48 199.405C510.606 199.712 510.671 200.041 510.671 200.374C510.671 201.045 510.405 201.688 509.931 202.163C509.457 202.637 508.814 202.904 508.144 202.904Z" fill="#BDD1F9"/>
</g>
<g opacity="0.3">
<path d="M459.306 223.512H359.56C358.89 223.512 358.247 223.244 357.773 222.769C357.299 222.294 357.033 221.65 357.033 220.979C357.033 220.308 357.299 219.664 357.773 219.189C358.247 218.714 358.89 218.446 359.56 218.445H459.306C459.976 218.446 460.619 218.714 461.093 219.189C461.567 219.664 461.833 220.308 461.833 220.979C461.833 221.65 461.567 222.294 461.093 222.769C460.619 223.244 459.976 223.512 459.306 223.512Z" fill="#BDD1F9"/>
<path d="M497.23 223.512H470.901C470.231 223.512 469.588 223.244 469.113 222.769C468.639 222.294 468.372 221.651 468.371 220.979C468.372 220.307 468.639 219.663 469.113 219.188C469.588 218.713 470.231 218.446 470.901 218.445H497.23C497.901 218.445 498.545 218.712 499.019 219.187C499.494 219.663 499.76 220.307 499.76 220.979C499.76 221.651 499.494 222.295 499.019 222.77C498.545 223.245 497.901 223.512 497.23 223.512Z" fill="#BDD1F9"/>
<path d="M397.196 239.215H359.56C359.228 239.215 358.899 239.149 358.592 239.022C358.286 238.895 358.007 238.708 357.772 238.473C357.537 238.237 357.351 237.958 357.225 237.651C357.098 237.343 357.033 237.014 357.033 236.681C357.033 236.01 357.299 235.367 357.773 234.892C358.247 234.418 358.89 234.151 359.56 234.151H397.196C397.866 234.151 398.509 234.418 398.983 234.892C399.457 235.367 399.723 236.01 399.723 236.681C399.724 237.014 399.659 237.343 399.532 237.651C399.405 237.958 399.219 238.237 398.984 238.473C398.75 238.708 398.471 238.895 398.164 239.022C397.857 239.149 397.528 239.215 397.196 239.215Z" fill="#BDD1F9"/>
<path d="M458.143 239.215H406.583C405.912 239.215 405.268 238.948 404.794 238.473C404.319 237.998 404.053 237.353 404.053 236.681C404.054 236.01 404.321 235.367 404.795 234.892C405.269 234.418 405.913 234.151 406.583 234.151H458.143C458.813 234.151 459.456 234.418 459.93 234.892C460.404 235.367 460.67 236.01 460.67 236.681C460.67 237.014 460.605 237.343 460.478 237.651C460.352 237.958 460.166 238.237 459.931 238.473C459.696 238.708 459.417 238.895 459.111 239.022C458.804 239.149 458.475 239.215 458.143 239.215Z" fill="#BDD1F9"/>
</g>
<path d="M275.913 151.255H286.576L315.377 217.271H303.219L296.581 201.449H265.627L258.894 217.271H247.109L275.913 151.255ZM292.371 191.239L281.056 165.021L269.834 191.239H292.371Z" fill="#BDD1F9"/>
<path d="M287.295 260.036H229.625V271.183H287.295V260.036Z" fill="#F99746"/>
<path d="M287.295 271.183H229.625V282.33H287.295V271.183Z" fill="#ED7D2B"/>
<path d="M287.295 282.333H229.625V293.48H287.295V282.333Z" fill="#474FEA"/>
<path d="M329.786 266.346H298.054C297.418 266.346 296.807 266.093 296.357 265.642C295.907 265.191 295.654 264.58 295.654 263.943C295.654 263.305 295.907 262.694 296.357 262.243C296.807 261.793 297.418 261.54 298.054 261.54H329.786C330.423 261.54 331.033 261.793 331.483 262.243C331.934 262.694 332.186 263.305 332.186 263.943C332.186 264.58 331.934 265.191 331.483 265.642C331.033 266.093 330.423 266.346 329.786 266.346Z" fill="#BDD1F9"/>
<path d="M319.096 274.832H298.054C297.418 274.832 296.807 274.579 296.357 274.128C295.907 273.678 295.654 273.067 295.654 272.429C295.654 271.792 295.907 271.181 296.357 270.73C296.807 270.279 297.418 270.026 298.054 270.026H319.096C319.732 270.026 320.343 270.279 320.793 270.73C321.243 271.181 321.496 271.792 321.496 272.429C321.496 273.067 321.243 273.678 320.793 274.128C320.343 274.579 319.732 274.832 319.096 274.832Z" fill="#BDD1F9"/>
<path d="M287.295 317.673H229.625V340.451H287.295V317.673Z" fill="#F99746"/>
<path d="M287.295 334.827H229.625V351.117H287.295V334.827Z" fill="#007DFF"/>
<path d="M229.625 317.673L250.313 335.074L229.625 351.117V317.673Z" fill="#474FEA"/>
<path d="M329.786 323.989H298.054C297.418 323.989 296.807 323.736 296.357 323.285C295.907 322.835 295.654 322.224 295.654 321.586C295.654 320.949 295.907 320.338 296.357 319.887C296.807 319.436 297.418 319.183 298.054 319.183H329.786C330.423 319.183 331.033 319.436 331.483 319.887C331.934 320.338 332.186 320.949 332.186 321.586C332.186 322.224 331.934 322.835 331.483 323.285C331.033 323.736 330.423 323.989 329.786 323.989Z" fill="#BDD1F9"/>
<path d="M319.096 332.469H298.054C297.418 332.469 296.807 332.216 296.357 331.765C295.907 331.314 295.654 330.703 295.654 330.066C295.654 329.428 295.907 328.817 296.357 328.366C296.807 327.916 297.418 327.663 298.054 327.663H319.096C319.732 327.663 320.343 327.916 320.793 328.366C321.243 328.817 321.496 329.428 321.496 330.066C321.496 330.703 321.243 331.314 320.793 331.765C320.343 332.216 319.732 332.469 319.096 332.469Z" fill="#BDD1F9"/>
<path d="M568.638 102.132C568.638 102.132 570.136 120.055 566.06 119.784C561.983 119.513 553.929 111.624 537.677 112.918C521.426 114.212 501.547 117.762 489.529 96.4672C477.512 75.1723 504.9 69.0444 504.9 69.0444L568.638 102.145V102.132Z" fill="#233862"/>
<path d="M534.096 100.82L615.975 107.563L617.679 103.914L539.177 45.8958L459.883 36.6199L458.357 39.8847L534.096 100.82Z" fill="#2B478B"/>
<path d="M589.804 162.563C589.631 161.958 589.283 161.419 588.804 161.012C588.325 160.605 587.737 160.35 587.113 160.279C586.489 160.207 585.858 160.322 585.3 160.609C584.741 160.897 584.28 161.344 583.976 161.893C583.671 162.443 583.535 163.071 583.587 163.697C583.638 164.324 583.874 164.921 584.264 165.413C584.655 165.906 585.182 166.271 585.78 166.463C586.378 166.656 587.019 166.666 587.623 166.493C588.024 166.379 588.398 166.186 588.725 165.927C589.052 165.667 589.324 165.345 589.527 164.98C589.729 164.615 589.858 164.214 589.905 163.799C589.953 163.384 589.918 162.964 589.804 162.563Z" fill="#6F2931"/>
<path d="M587.089 163.445C590.374 163.191 591.138 193.11 591.138 193.11C591.138 193.11 588.999 194.119 587.946 193.882C586.894 193.645 586.355 189.605 586.355 189.605L586.252 193.841C586.252 193.841 582.652 193.965 581.404 193.089C581.404 193.089 581.891 163.85 587.089 163.445Z" fill="#6F2931"/>
<path d="M588.157 164.118L587.564 98.7502L587.142 98.4344L544.37 66.7546L542.834 68.8385L585.178 100.199L586.134 164.008L588.157 164.118Z" fill="#6F2931"/>
<path d="M490.422 406.069H689.423C697.147 406.069 704.554 409.141 710.016 414.61C715.478 420.078 718.546 427.495 718.546 435.229V451.707C718.546 459.617 715.408 467.202 709.822 472.795C704.237 478.388 696.661 481.53 688.761 481.53H490.422V406.069Z" fill="#FCECDB"/>
<path d="M888.687 437.114V448.463C888.706 454.27 887.268 459.988 884.504 465.093C879.159 474.918 869.219 481.52 857.84 481.52H484.311C481.839 481.52 479.854 479.374 479.854 476.73V475.014C479.854 472.367 481.856 470.208 484.311 470.208H712.01C713.24 468.599 714.31 466.875 715.205 465.058C717.414 460.574 718.557 455.639 718.545 450.64V436.221C718.548 433.633 718.238 431.055 717.622 428.541C716.633 424.489 714.837 420.678 712.342 417.336H484.311C481.839 417.336 479.854 415.191 479.854 412.53V410.834C479.854 408.187 481.856 406.028 484.311 406.028H859.722C872.95 406.028 884.106 415.53 887.569 428.517C888.319 431.321 888.695 434.211 888.687 437.114Z" fill="#699DEE"/>
<path d="M887.569 428.559H717.622C716.633 424.506 714.837 420.695 712.342 417.353H484.311C481.839 417.353 479.854 415.208 479.854 412.547V410.851C479.854 408.204 481.856 406.045 484.311 406.045H859.722C872.95 406.069 884.106 415.571 887.569 428.559Z" fill="#548EE2"/>
<path d="M490.422 443.794L518.081 445.064L490.422 445.827V443.794Z" fill="#F4D2B8"/>
<path d="M490.422 455.635L556.221 456.901L490.422 457.667V455.635Z" fill="#F4D2B8"/>
<path d="M656.141 540.052H461.439C453.982 540.052 446.831 537.086 441.559 531.807C436.286 526.528 433.324 519.367 433.324 511.901V507.823C433.324 500.812 436.106 494.089 441.057 489.131C446.008 484.174 452.723 481.389 459.725 481.389H656.141V540.093V540.052Z" fill="#6F2931"/>
<path d="M868.676 540.052H646.771C639.488 540.052 632.502 537.155 627.352 531.998C622.201 526.841 619.308 519.847 619.308 512.554V508.269C619.308 501.138 622.137 494.298 627.174 489.255C632.211 484.212 639.042 481.379 646.164 481.379H868.676V540.083V540.052Z" fill="#FCECDB"/>
<path d="M604.639 540.052H876.156C878.41 540.052 880.236 538.223 880.236 535.967V535.359C880.236 533.103 878.41 531.274 876.156 531.274H604.639C602.386 531.274 600.559 533.103 600.559 535.359V535.967C600.559 538.223 602.386 540.052 604.639 540.052Z" fill="#6F2931"/>
<path d="M604.639 490.14L876.156 490.14C878.41 490.14 880.236 488.311 880.236 486.054V485.447C880.236 483.191 878.41 481.361 876.156 481.361L604.639 481.361C602.386 481.361 600.559 483.191 600.559 485.447V486.054C600.559 488.311 602.386 490.14 604.639 490.14Z" fill="#6F2931"/>
<path d="M868.667 510.71L838.434 511.695L868.667 512.289V510.71Z" fill="#F4D2B8"/>
<path d="M868.668 497.201L796.738 498.19L868.668 498.784V497.201Z" fill="#F4D2B8"/>
<path d="M797.479 497.991C799.472 499.762 800.902 502.08 801.593 504.658C801.781 505.418 801.888 506.196 801.912 506.979C802.083 512.471 801.912 524.95 801.912 524.95L811.011 518.716L820.087 524.95V508.057C820.087 504.86 819.309 501.754 817.862 499.721C817.176 498.733 816.312 498.005 815.349 498.005L797.479 497.991Z" fill="#699DEE"/>
<path d="M797.479 497.991C799.472 499.762 800.902 502.08 801.593 504.658L819.83 504.905C819.83 504.905 819.113 498.969 815.349 497.991H797.479Z" fill="#568CDB"/>
<path d="M440.373 320H632.719C640.886 320 648.718 323.249 654.493 329.031C660.268 334.813 663.512 342.655 663.512 350.832V374.702C663.512 383.064 660.194 391.083 654.289 396.996C648.384 402.909 640.375 406.23 632.023 406.23H440.373V320Z" fill="#FCECDB"/>
<path d="M663.604 353.455V372.014C663.556 379.94 659.887 386.817 654.498 390.493C651.857 392.324 648.726 393.312 645.515 393.329H434.486C432.014 393.329 430.008 395.732 430.008 398.685V400.889C430.008 403.844 432.014 406.241 434.486 406.241H799.018C809.479 406.241 818.722 400.023 824.304 390.507C828.014 384.068 829.943 376.756 829.893 369.322V354.68C829.91 349.516 828.932 344.396 827.013 339.603C822.326 328.009 812.396 320.014 800.904 320.014H434.486C432.014 320.014 430.008 322.417 430.008 325.366V327.553C430.008 330.512 432.014 332.908 434.486 332.908H646.145C651.206 332.908 655.783 335.483 658.982 339.603C661.997 343.588 663.621 348.455 663.604 353.455Z" fill="#AFCDFB"/>
<path d="M430.029 398.684V400.888C430.029 403.844 432.035 406.241 434.507 406.241H799.039C809.5 406.241 818.744 400.023 824.325 390.507H654.505C651.865 392.338 648.734 393.326 645.522 393.343H434.487C432.028 393.336 430.029 395.739 430.029 398.684Z" fill="#A4C4F4"/>
<path d="M440.373 363.112L467.425 364.564L440.373 365.436V363.112Z" fill="#F4D2B8"/>
<path d="M440.373 343.269L504.732 344.718L440.373 345.59V343.269Z" fill="#F4D2B8"/>
<path d="M504.068 344.429C504.068 344.429 499.82 347.176 498.414 351.659C498.154 352.473 498.005 353.318 497.972 354.172C497.739 360.146 497.972 373.658 497.972 373.658L485.433 366.902L472.926 373.658V355.343C472.926 351.879 473.999 348.508 475.991 346.304C476.958 345.233 478.13 344.429 479.457 344.429H504.068Z" fill="#6F2931"/>
<path d="M504.067 344.429C504.067 344.429 499.819 347.176 498.414 351.659L473.285 351.927C473.285 351.927 474.269 345.49 479.457 344.429H504.067Z" fill="#6F2931"/>
<path d="M183.746 398.599C183.746 398.599 223.027 415.736 230.156 415.42C237.284 415.104 281.242 402.032 281.242 402.032L280.121 409.584C280.121 409.584 246.215 429.111 234.363 430.22C222.705 431.308 182.782 419.732 178.932 417.288C175.081 414.844 172.541 401.074 183.746 398.599Z" fill="#ED985F"/>
<path d="M177.844 335.562C177.844 335.562 163.351 332.816 156.134 338.082C143.054 347.643 142.368 380.6 137.458 385.509C132.548 390.418 120.747 388.324 119.698 413.728C118.649 439.132 124.399 441.254 117.545 452.593C110.691 463.932 120.445 475.282 120.445 475.282C120.445 475.282 116.451 469.023 118.162 464.506C118.162 464.506 119.825 474.461 126.154 476.813C132.483 479.164 133.416 480.864 134.427 484.293C134.427 484.293 188.401 456.599 188.459 436.956C188.517 417.312 199.088 397.857 193.894 389.347C193.894 389.347 196.204 392.986 196.489 397.037C196.489 397.037 199.599 391.067 194.206 385.509C188.812 379.951 200.535 368.447 198.8 355.127C197.607 345.981 191.199 335.96 177.844 335.562Z" fill="#233862"/>
<path d="M188.518 417.315C185.068 419.718 180.742 421.686 175.314 422.942C154.958 427.652 147.155 410.425 144.227 398.599C146.353 397.421 148.701 396.698 151.122 396.477C152.592 396.305 154.142 396.189 155.424 396.134C157.708 394.38 161.116 387.208 161.867 376.064L162.827 376.322L178.869 380.72C178.869 380.72 178.132 385.825 177.772 390.651C177.495 394.428 177.45 398.039 178.167 398.921C179.418 399.193 180.169 399.371 180.169 399.371C183.518 405.072 186.314 411.081 188.518 417.315Z" fill="#FFB27D"/>
<path d="M178.868 380.716C178.868 380.716 178.131 385.818 177.775 390.648C168.685 389.738 164.465 381.073 162.822 376.319L178.868 380.716Z" fill="#ED985F"/>
<path d="M181.581 385.509C181.581 385.509 160.008 384.317 160.958 370.877C161.908 357.437 159.758 348.219 173.572 348.422C187.386 348.625 189.687 353.915 190.472 358.498C191.257 363.081 187.218 385.471 181.581 385.509Z" fill="#FFB27D"/>
<path d="M190.368 350.979C187.327 346.695 184.749 347.402 183.251 348.518C171.936 341.189 163.663 350.235 163.663 350.235C161.53 359.775 154.189 364.801 154.189 364.801C154.189 364.801 157.94 367.509 167.163 365.831C169.978 365.316 172.591 363.524 174.861 361.289C172.191 365.021 169.025 368.371 165.449 371.245C176.623 367.015 182.047 352.267 182.592 350.705C183.823 351.982 186.233 354.739 186.844 357.313C187.673 360.812 191.25 366.284 193.317 366.191C193.314 366.188 194.928 357.399 190.368 350.979Z" fill="#233862"/>
<path d="M138.083 461.234C136.132 451.278 129.782 411.421 136.132 398.599C138.415 393.995 147.368 393.58 157.187 393.981C160.245 395.959 171.889 403.422 176.676 402.492L176.943 402.43C179.196 401.864 180.029 400.281 178.167 398.915C181.816 398.676 185.48 398.907 189.07 399.601C192.482 400.243 201.687 405.012 201.687 405.012C201.687 405.012 197.052 413.395 190.219 416.289C191.381 426.698 189.653 431.288 178.866 455.329C169.757 475.632 180.084 493.923 180.084 493.923C180.084 493.923 126.439 537.11 126.141 515.122C125.932 498.571 140.572 473.977 138.083 461.234Z" fill="#F9DDBF"/>
<path d="M182.757 540.886C184.198 540.724 185.587 540.249 186.826 539.493C188.064 538.738 189.124 537.72 189.929 536.513C190.19 536.125 190.464 535.706 190.759 535.263C196.865 525.994 199.241 497.661 212.977 467.465C216.323 460.115 228.33 458.793 231.604 450.482C231.604 450.482 239.662 423.546 216.175 422.75C192.689 421.953 153.281 497.699 152.653 505.643C152.057 513.336 137.132 546.039 182.757 540.886Z" fill="#68252E"/>
<path d="M276.084 540.268H242.672C242.672 540.268 241.424 534.93 243.618 531.298C245.559 528.085 244.815 526.255 243.375 523.594C245.149 524.363 247.072 524.726 249.004 524.655C250.671 524.559 252.433 523.804 253.976 522.904C255.416 524.549 261.577 531.538 263.501 532.922C265.685 534.491 275.426 533.931 276.084 540.268Z" fill="#233862"/>
<path d="M232.369 430.539C234.381 445.644 242.24 493.336 256.105 516.601C260.562 524.102 244.842 528.308 244.76 528.273C242.648 527.721 239.134 524.353 237.512 522.89C226.256 512.742 203.397 483.967 203.397 460.921C203.397 449.678 203.198 428.201 211.365 422.746C216.402 419.385 231.57 424.535 232.369 430.539Z" fill="#68252E"/>
<path d="M162.823 540.268C162.823 540.268 164.061 538.552 166.221 535.266C168.792 531.367 171.638 523.694 175.087 513.858C178.711 503.535 183.014 490.833 188.39 477.616C190.05 473.534 191.819 469.404 193.684 465.285C197.03 457.931 206.233 458.947 209.507 450.636C209.507 450.636 222.282 421.826 198.799 421.033C175.317 420.24 130.686 498.101 128.122 505.643C125.314 513.896 111.616 548.164 162.823 540.268Z" fill="#6F2931"/>
<path d="M251.563 540.268H218.141C218.141 540.268 216.893 534.93 219.087 531.298C221.031 528.085 220.283 526.255 218.847 523.594C220.621 524.364 222.545 524.726 224.477 524.655C226.143 524.559 227.905 523.804 229.448 522.904C230.885 524.549 237.046 531.538 238.969 532.922C241.147 534.491 250.887 533.931 251.563 540.268Z" fill="#2B478B"/>
<path d="M175.087 513.855C178.711 503.535 183.014 490.833 188.39 477.616C186.987 467.602 183.96 458.841 178.865 455.302C178.865 455.312 166.515 493.628 175.087 513.855Z" fill="#6F2931"/>
<path d="M212.857 429.468C214.87 444.573 217.705 493.322 231.571 516.601C236.028 524.102 220.308 528.308 220.222 528.273C218.113 527.721 214.595 524.353 212.977 522.89C201.721 512.732 178.869 483.97 178.869 460.911C178.869 449.668 192.049 429.094 200.212 423.635C205.242 420.285 212.058 423.464 212.857 429.468Z" fill="#6F2931"/>
<path d="M185.62 377.778C185.62 377.778 183.58 376.971 177.844 377.434C177.844 377.434 178.149 379.676 182.38 379.896C184.776 380.026 185.62 377.778 185.62 377.778Z" fill="white"/>
<path d="M285.417 386.192L278.488 373.675L263.494 415.561L272.34 425.067L285.417 386.192Z" fill="#163560"/>
<path d="M249.232 393.525L235.295 433.389L272.341 425.067L285.418 386.192L249.232 393.525Z" fill="#1C468A"/>
<path d="M236.035 431.377L235.387 430.241L248.573 392.519L249.232 393.525L236.035 431.377Z" fill="#EFDECE"/>
<path d="M248.574 392.519L283.694 385.674L285.418 386.192L249.233 393.525L248.574 392.519Z" fill="#FCECDB"/>
<path d="M285.418 386.192L277.923 374.283L273.146 387.73L283.693 385.673L285.418 386.192Z" fill="#EFDECE"/>
<path d="M259.926 399.299C258.723 399.066 256.155 398.091 253.521 397.37C254.303 396.762 255.171 396.017 255.414 395.252C255.88 393.775 256.192 393.298 254.636 393.765C253.079 394.232 247.634 396.735 247.634 396.735C244.549 397.638 241.693 402.018 241.693 402.018C241.693 402.018 203.398 415.503 198.8 415.736C191.669 416.08 144.227 398.599 144.227 398.599C133.029 401.074 135.542 414.851 139.396 417.295C143.25 419.739 177.385 432.174 197.618 432.4C207.866 432.52 245.142 408.53 245.142 408.53C245.142 408.53 249.5 406.536 252.925 407.157C256.35 407.779 264.284 407.157 265.995 404.352C267.706 401.548 261.949 399.687 259.926 399.299Z" fill="#FFB27D"/>
<path d="M168.67 407.226C168.67 407.226 164.428 420.676 149.853 423.739C149.853 423.739 125.788 416.313 137.771 399.9C137.771 399.9 149.617 391.084 168.67 407.226Z" fill="#F9DDBF"/>
<path d="M284.794 400.312C284.805 399.944 284.762 399.576 284.667 399.22C284.667 399.22 281.239 393.782 280.107 393.559C276.678 392.873 276.678 397.397 277.412 400.312C277.927 402.196 278.9 403.923 280.244 405.338L280.107 409.591C285.891 406.409 284.794 400.312 284.794 400.312Z" fill="#FFB27D"/>
<path d="M656.704 391.098C662.999 402.248 670.984 406.594 670.984 406.594L704.334 406.828C704.334 406.828 651.9 382.591 656.704 391.098Z" fill="#233862"/>
<path d="M681.711 477.211C682.572 478.213 682.675 479.329 682.236 480.517C681.423 482.711 678.78 485.152 675.722 487.582C675.331 487.894 674.981 488.179 674.693 488.444L674.456 488.65L674.275 488.811C671.412 491.42 672.478 492.028 667.328 497.325C661.452 503.357 657.437 503.439 656.298 502.876C655.338 502.399 657.327 499.189 659.525 495.584C659.631 495.409 659.734 495.241 659.844 495.059C660.138 494.579 660.426 494.091 660.718 493.61C663.3 489.271 662.658 487.222 662.089 480.73C661.637 475.457 654.107 451.23 654.107 451.23L665.295 449.38C665.295 449.38 668.525 468.652 672.211 471.646C674.182 473.239 676.404 473.273 678.3 474.458C678.434 474.54 678.564 474.626 678.694 474.712C679.806 475.407 680.821 476.247 681.711 477.211Z" fill="#FFB27D"/>
<path d="M681.712 477.211C682.573 478.213 682.676 479.329 682.237 480.517C681.246 482.707 678.668 485.134 675.698 487.561C675.311 487.877 674.968 488.169 674.67 488.444L674.433 488.65L674.251 488.811C671.389 491.42 672.455 492.028 667.305 497.325C661.428 503.357 657.413 503.439 656.275 502.876C655.315 502.399 657.304 499.189 659.501 495.584C663.591 494.019 667.195 491.399 669.949 487.991C673.49 483.528 675.873 477.781 678.287 474.458C678.421 474.54 678.551 474.626 678.681 474.712C679.798 475.406 680.818 476.246 681.712 477.211Z" fill="#233862"/>
<path d="M591.658 469.586C590.945 473.036 586.032 472.425 580.549 471.042C575.067 469.658 576.359 471.265 568.549 470.355C560.739 469.446 558.39 466.497 558.16 465.333C557.954 464.303 561.819 463.96 565.964 463.513C566.488 463.458 566.992 463.397 567.534 463.335C572.218 462.782 575.663 459.782 579.929 457.33C583.971 455.01 590.046 445.473 590.046 445.473L600.761 446.396C600.761 446.396 595.073 454.914 592.875 458.618C591.579 460.798 591.627 463.692 591.771 465.927C591.897 467.146 591.859 468.377 591.658 469.586Z" fill="#FFB27D"/>
<path d="M580.547 471.042C575.061 469.669 576.357 471.265 568.547 470.355C560.737 469.446 558.388 466.497 558.158 465.333C557.953 464.303 561.817 463.96 565.962 463.513L566.003 463.592C569.337 465.768 573.197 467 577.173 467.156C582.474 467.324 588.104 465.841 591.766 465.927C591.894 467.149 591.857 468.384 591.656 469.597C590.946 473.037 586.033 472.425 580.547 471.042Z" fill="#233862"/>
<path d="M633.23 401.232L643.06 428.304L655.897 463.664C658.233 463.854 660.583 463.656 662.854 463.077C665.991 462.195 669.598 459.85 669.598 459.85C669.598 459.85 666.231 421.967 659.607 400.188C657.893 394.596 655.997 390.071 653.864 387.517C643.444 375.007 633.23 401.232 633.23 401.232Z" fill="#233862"/>
<path d="M643.722 358.426C650.301 356.366 669.008 359.205 687.793 363.026L691.781 356.551L732.434 353.661C732.434 353.661 745.631 383.528 738.16 402.444C737.059 405.225 734.388 406.381 730.727 406.416C730.727 406.416 706.476 406.838 698.621 406.783C678.416 406.639 655.955 392.574 653.041 391.966C648.271 390.978 646.293 400.528 641.445 410.539C636.597 420.549 596.235 454.697 596.235 454.697C596.235 454.697 590.063 454.718 587.526 453.743C584.783 452.693 583.803 451.34 583.803 451.34C583.803 451.34 628.889 363.105 643.722 358.426Z" fill="#2B478B"/>
<path d="M692.413 300.525C706.813 308.603 736.063 325.345 736.217 325.242C736.217 325.242 746.976 329.389 753.127 325.363C763.376 318.651 768.975 300.432 750.429 284.589C741.172 276.693 734.582 274.733 733.667 262.213C733.169 255.422 724.066 232.953 708.637 234.917C707.352 235.1 706.054 235.177 704.756 235.147C702.013 235.041 699.298 235.722 696.929 237.11C688.206 242.243 670.744 297.284 692.413 300.525Z" fill="#233862"/>
<path d="M704.588 293.82C704.526 293.861 711.692 296.368 716.509 294.27C721.042 292.303 724.515 284.884 724.45 284.881C722.393 284.771 720.15 282.955 718.498 271.149L717.62 271.458L702.877 276.655C702.877 276.655 703.906 281.393 704.567 285.897C705.109 289.659 705.397 293.292 704.588 293.82Z" fill="#FFB27D"/>
<path d="M702.867 276.641C702.867 276.641 703.495 279.961 704.369 284.706C712.831 283.24 716.397 276.013 717.621 271.444L702.867 276.641Z" fill="#ED975D"/>
<path d="M700.641 281.321C700.641 281.321 720.795 278.756 719.005 266.216C717.215 253.675 718.614 244.897 705.674 246.002C692.735 247.107 690.931 252.25 690.496 256.583C690.06 260.915 695.351 281.664 700.641 281.321Z" fill="#FFB27D"/>
<path d="M691.291 249.72C691.291 249.72 704.1 260.932 712.861 261.89C721.621 262.848 724.96 260.053 724.96 260.053C721.484 256.894 718.694 253.053 716.762 248.769C716.323 247.761 715.622 246.889 714.733 246.242C713.844 245.596 712.799 245.199 711.705 245.092C705.438 244.509 693.574 244.176 691.291 249.72Z" fill="#233862"/>
<path d="M699.346 248.779C699.346 248.779 695.001 252.926 693.623 256.016C692.293 258.992 691.847 266.136 692.872 268.982C692.872 268.982 686.245 255.855 690.095 249.528C694.175 242.813 699.346 248.779 699.346 248.779Z" fill="#233862"/>
<path d="M687.427 323.395C687.746 364.207 687.365 355.666 691.795 359.583C692.865 360.523 695.878 361.1 699.852 361.388C712.343 362.308 734.327 360.403 735.167 358.096C738.109 350.114 736.089 347.615 738.596 335.38C738.853 334.079 739.175 332.671 739.549 331.14C741.606 322.74 743.588 319.89 736.566 306.323C730.203 294.033 723.572 284.05 722.965 284.403C705.873 294.4 704.56 285.886 704.56 285.886C704.56 285.886 687.266 303.491 687.427 323.395Z" fill="#F9DDBF"/>
<path d="M643.061 428.311L655.897 463.671C658.233 463.861 660.583 463.663 662.854 463.084C665.991 462.202 669.598 459.857 669.598 459.857C669.598 459.857 666.231 421.974 659.607 400.195L643.061 428.311Z" fill="#2B478B"/>
<path d="M704.556 285.883C704.556 285.883 687.022 288.732 684.91 296.268C682.798 303.803 670.387 348.106 670.387 348.106C670.387 348.106 679.277 349.771 683.416 345.682C687.554 341.594 697.998 307.576 697.998 307.576L704.556 285.883Z" fill="#F9DDBF"/>
<path d="M699.863 361.388C712.354 362.308 734.338 360.403 735.178 358.096C738.12 350.114 736.1 347.615 738.607 335.38L732.699 318.342C732.699 318.342 733.56 337.275 727.951 342.215C722.341 347.155 705.061 351.663 702.325 355.803C700.988 357.787 700.114 359.785 699.863 361.388Z" fill="#F2CCAA"/>
<path d="M714.228 353.53C714.228 353.53 701.916 350.695 699.92 351.776C697.925 352.857 693.032 356.812 692.415 358.199C691.798 359.586 696.852 357.169 698.491 356.747C699.557 356.469 702.341 357.461 703.723 357.931C709.528 359.916 713.1 358.941 713.1 358.941L714.228 353.53Z" fill="#FFB27D"/>
<path d="M722.973 284.393C722.973 284.393 739.519 285.533 745.194 293.576C753.182 304.905 768.851 353.026 759.632 359.363C749.253 366.504 712.608 360.918 712.608 360.918C712.608 360.918 711.428 355.199 713.146 352.445C714.864 349.692 742.495 345.425 743.778 344.158C745.06 342.891 728.03 319.176 728.057 315.352C728.085 311.527 722.973 284.393 722.973 284.393Z" fill="#F9DDBF"/>
<path d="M699.3 355.209C699.3 355.209 696.691 358.525 695.844 358.92C695.415 359.148 694.93 359.248 694.445 359.208L696.211 356.084L699.3 355.209Z" fill="#FFB27D"/>
<path d="M699.922 351.776L692.379 355.377C692.379 355.377 692.694 355.903 693.62 355.865C694.546 355.827 696.884 354.993 696.884 354.993L699.922 351.776Z" fill="#FFB27D"/>
<path d="M697.453 364.307L638.039 363.884L620.48 319.259L679.803 319.678L697.453 364.307Z" fill="#6F2931"/>
<path d="M637.355 362.147L715.809 362.7L715.796 364.434L638.038 363.884L637.355 362.147Z" fill="#ED7D2B"/>
<path d="M653.192 341.741C652.753 340.173 653.669 338.913 655.229 338.923C656.789 338.933 658.414 340.214 658.849 341.779C659.285 343.345 658.373 344.611 656.813 344.598C655.253 344.584 653.627 343.307 653.192 341.741Z" fill="white"/>
<path d="M336.371 504.718L336.365 540.651L516.883 540.683L516.889 504.75L336.371 504.718Z" fill="#C65447"/>
<path d="M336.374 540.663L309.843 529.3L294.414 522.688L310.206 515.932L336.384 504.73C336.384 504.73 339.878 513.477 339.929 521.706C340.011 534.618 336.374 540.663 336.374 540.663Z" fill="#FCECDB"/>
<path d="M537.881 516.687V528.047C537.88 531.402 536.548 534.62 534.178 536.992C531.808 539.365 528.594 540.697 525.243 540.697H516.891V504.764H525.973C527.537 504.763 529.086 505.071 530.531 505.67C531.976 506.269 533.289 507.147 534.395 508.254C535.501 509.362 536.378 510.676 536.976 512.123C537.574 513.57 537.882 515.121 537.881 516.687Z" fill="#FCECDB"/>
<path d="M310.206 515.932C310.865 519.56 311.434 525.122 309.843 529.3L294.414 522.688L310.206 515.932Z" fill="#2B478B"/>
<path d="M375.172 317.645C375.172 317.645 378.405 331.693 387.83 331.693C395.912 331.693 406.993 313.406 406.993 313.406L375.172 317.645Z" fill="#C65447"/>
<path d="M483.397 525.132L477.345 529.303C477.345 529.303 448.223 498.221 441.19 468.426C439.939 463.108 439.431 457.863 439.966 452.885C439.966 452.885 439.541 451.536 438.797 449.15C438.766 449.043 438.732 448.937 438.698 448.83C438.355 447.783 437.985 446.551 437.549 445.157C436.137 440.656 434.196 434.494 431.988 427.481C426.896 411.345 415.256 374.956 410.281 359.796L446.035 346.843C446.035 346.843 450.098 356.112 455.933 381.317C456.832 384.606 457.73 388.245 458.574 392.206C459.527 396.697 460.415 401.606 461.155 406.91C462.544 416.909 463.26 426.991 463.298 437.086C463.319 441.594 463.209 446.273 462.955 451.096C462.76 454.632 463.298 459.335 464.272 464.711C468.774 489.23 483.397 525.132 483.397 525.132Z" fill="#2B478B"/>
<path d="M502.445 540.11H473.539C473.539 540.11 472.459 535.496 474.355 532.355C476.035 529.575 475.383 527.992 474.149 525.692C475.683 526.357 477.347 526.67 479.018 526.608C480.458 526.526 481.98 525.874 483.317 525.094C484.558 526.516 489.886 532.561 491.546 533.759C493.459 535.119 501.863 534.635 502.445 540.11Z" fill="#233862"/>
<path d="M461.151 406.91L438.694 448.83C438.351 447.783 437.981 446.551 437.545 445.157C436.133 440.656 434.192 434.494 431.984 427.481C426.892 411.345 415.252 374.956 410.277 359.796L446.031 346.843C446.031 346.843 450.094 356.112 455.93 381.317C456.828 384.606 457.726 388.245 458.57 392.206C459.516 396.697 460.411 401.606 461.151 406.91Z" fill="#233862"/>
<path d="M409.693 531.051C409.693 531.051 407.695 535.967 409.577 540.11H425.301C425.301 540.11 425.644 536.375 419.921 532.039C415.601 528.757 409.693 531.051 409.693 531.051Z" fill="#233862"/>
<path d="M426.806 211.044C426.806 210.258 427.217 201.809 440.04 201.057C440.04 201.057 433.749 201.963 432.723 204.768C432.723 204.768 436.937 201.232 440.462 202.252C443.987 203.271 446.191 209.358 446.263 211.377C446.335 213.395 444.549 219.959 442.337 220.56C441.454 220.762 440.539 220.785 439.646 220.629C440.304 221.605 440.904 222.619 441.442 223.667C446.819 234.069 442.183 246.325 437.818 245.295C435.021 244.632 433.32 249.49 433.32 249.49L406.412 226.321C406.412 226.321 415.841 205.517 426.806 211.044Z" fill="#2C3A64"/>
<path d="M409.893 281.437C412.875 283.497 416.616 285.214 421.31 286.305C438.912 290.377 445.653 275.481 448.194 265.254C446.355 264.235 444.324 263.611 442.231 263.421C440.959 263.27 439.619 263.17 438.511 263.115C436.536 261.601 433.588 255.394 432.94 245.761L432.11 245.985L418.238 249.788C418.238 249.788 418.872 254.203 419.184 258.371C419.424 261.636 419.462 264.756 418.841 265.522C417.758 265.755 417.11 265.91 417.11 265.91C414.212 270.842 411.796 276.042 409.893 281.437Z" fill="#FFB27D"/>
<path d="M418.238 249.788C418.238 249.788 418.876 254.2 419.185 258.371C427.043 257.585 430.691 250.091 432.111 245.981L418.238 249.788Z" fill="#ED985F"/>
<path d="M418.077 256.417C418.077 256.417 436.17 251.759 433.101 240.523C430.032 229.287 430.3 221.113 418.618 223.608C406.937 226.104 405.871 231.006 405.984 235.009C406.097 239.012 413.29 257.338 418.077 256.417Z" fill="#FFB27D"/>
<path d="M404.806 228.614C406.664 224.47 408.971 224.631 410.428 225.325C418.787 217.196 427.332 223.464 427.332 223.464C430.76 231.195 437.82 234.216 437.82 234.216C437.82 234.216 435.077 237.152 426.989 237.282C424.513 237.323 422 236.252 419.696 234.731C422.585 237.449 425.831 239.759 429.344 241.597C419.154 239.881 412.071 228.305 411.344 227.072C410.518 228.363 408.944 231.109 408.855 233.396C408.742 236.486 409.952 242.504 408.169 242.775C408.193 242.768 402.022 234.831 404.806 228.614Z" fill="#2C3A64"/>
<path d="M412.886 264.979C412.886 264.979 443.278 257.592 456.492 268.505L449.874 360.722L390.436 346.342C390.436 346.342 392.109 340.505 403.505 324.992C414.902 309.478 409.944 286.717 412.886 264.979Z" fill="#FFB27D"/>
<path d="M430.587 350.461C430.587 350.461 430.553 350.774 430.491 351.371C430.464 351.625 430.43 351.937 430.392 352.298C430.135 354.701 429.651 359.274 429.02 365.237C427.388 380.878 424.831 405.997 423.085 425.826C421.714 441.329 420.853 453.599 421.323 455.569C422.729 461.498 421.323 532.369 421.323 532.369C416.269 534.796 408.61 532.369 408.61 532.369C408.61 532.369 395.156 468.515 397.038 459.627C398.92 450.739 395.78 443.173 395.78 443.173C385.336 394.455 386.485 367.451 388.542 354.543C388.941 351.871 389.538 349.231 390.328 346.647C390.527 345.987 390.767 345.339 391.045 344.708C414.106 338.484 430.587 350.461 430.587 350.461Z" fill="#2B478B"/>
<path d="M460.574 294.809C459.107 305.904 453.237 319.482 451.142 326.787C451.142 326.787 454.646 352.161 451.3 359.126C450.919 359.919 450.45 360.475 449.874 360.726C437.479 366.133 389.214 360.884 387.178 345.277C386.437 339.613 405.562 319.688 406.676 317.271C407.139 316.269 407.63 313.028 405.387 306.309C402.209 316.121 384.668 313.299 384.668 313.299C386.725 309.773 391.868 285.368 397.584 274.352C401.89 266.071 413.386 264.873 413.386 264.873C413.386 264.873 418.186 272.47 429.744 271.396C441.302 270.321 443.435 263.225 443.435 263.225C443.435 263.225 453.697 264.599 456.861 267.146C457.41 267.602 462.498 280.274 460.574 294.809Z" fill="#C65447"/>
<path d="M451.143 326.787C451.143 326.787 454.647 352.161 451.301 359.126C442.273 354.588 435.155 342.304 436.797 328.634C438.011 318.528 439.818 316.221 445.218 310.439C449.189 306.189 458.364 305.949 457.644 307.971C455.504 313.989 452.25 322.929 451.143 326.787Z" fill="#C65447"/>
<path d="M413.451 296.786L434.146 330.028H398.931L379.213 297.504L413.451 296.786Z" fill="#1C468A"/>
<path d="M433.07 328.36L433.426 327.199L413.842 295.739L413.451 296.786L433.07 328.36Z" fill="#EFDECE"/>
<path d="M413.842 295.739L380.67 296.687L379.213 297.504L413.451 296.786L413.842 295.739Z" fill="#FCECDB"/>
<path d="M379.213 297.504L360.605 287.421L382.298 321.528L398.931 330.028L379.213 297.504Z" fill="#163560"/>
<path d="M477.687 320.8C475.695 321.713 470.579 327.745 468.752 328.353C460.523 331.099 425.596 323.783 425.596 323.783L426.679 317.655C426.679 317.655 460.965 318.565 464.737 317.556C465.447 317.364 469.153 311.562 470.566 310.728L477.687 320.8Z" fill="#FFB27D"/>
<path d="M426.683 317.659C426.683 317.659 422.548 314.291 419.753 315.053C416.959 315.815 412.845 319.355 411.319 320.203C409.793 321.051 405.645 324.037 407.746 325.85C409.848 327.663 416.393 326.104 418.989 324.717C421.584 323.33 425.603 323.8 425.603 323.8L426.683 317.659Z" fill="#FFB27D"/>
<path d="M420.546 314.943C420.546 314.943 415.52 314.343 414.145 314.37C412.77 314.398 413.147 314.713 413.905 315.764C414.663 316.814 417.279 317.24 417.399 317.614C417.519 317.988 420.546 314.943 420.546 314.943Z" fill="#FFB27D"/>
<path d="M443.434 263.225C443.434 263.225 458.342 264.997 462.446 271.396C467.634 279.491 479.881 311.72 479.486 319.842C479.486 319.842 470.531 335.102 439.827 332.658C439.827 332.658 436.632 321.36 443.092 317.632C443.092 317.632 458.863 314.823 460.677 313.22L447.82 289.824L443.434 263.225Z" fill="#C65447"/>
<path d="M383.982 309.657C383.519 307.775 379.426 308.949 378.044 310.034C377.636 310.392 377.283 310.807 376.995 311.267C376.95 310.954 376.916 310.652 376.892 310.419C376.816 309.533 375.788 307.95 375.52 309.135C375.253 310.319 374.835 315.314 374.835 315.314C374.783 319.324 377.358 320.979 379.011 319.674C380.663 318.37 384.428 311.538 383.982 309.657Z" fill="#FFB27D"/>
<path d="M893.79 540.1H1.21031C0.541873 540.1 0 540.643 0 541.312V542.105C0 542.774 0.541873 543.317 1.21031 543.317H893.79C894.458 543.317 895 542.774 895 542.105V541.312C895 540.643 894.458 540.1 893.79 540.1Z" fill="#2E3552"/>
</g>
<defs>
<clipPath id="clip0_1555_17965">
<rect width="895" height="544" fill="white"/>
</clipPath>
</defs>
</svg>
