<svg width="78" height="73" viewBox="0 0 78 73" fill="none" xmlns="http://www.w3.org/2000/svg">
<path d="M72.6872 14.1249C72.6282 13.9908 72.5474 13.8674 72.4481 13.7597L72.3751 13.68C72.1253 13.4137 71.8092 13.2185 71.4591 13.1147C71.1091 13.0108 70.7377 13.002 70.3831 13.089C70.0198 13.182 69.6882 13.371 69.423 13.6362C69.1578 13.9014 68.9688 14.2331 68.8758 14.5964C68.7512 15.0689 68.5302 15.5104 68.2266 15.8932C67.923 16.2761 67.5434 16.5919 67.1118 16.8209C66.6801 17.0498 66.2058 17.1869 65.7186 17.2234C65.2313 17.26 64.7418 17.1953 64.2808 17.0334C63.5941 16.7697 62.995 16.3189 62.5514 15.732C62.1077 15.1452 61.8374 14.4458 61.7709 13.7132C61.7576 13.6274 61.7576 13.54 61.7709 13.4542C62.1627 11.6812 63.2649 10.5058 64.7921 10.2269C65.1611 10.1599 65.5055 9.99523 65.7892 9.74998C66.073 9.50473 66.2859 9.1879 66.4057 8.83246C66.5199 8.48443 66.5382 8.11204 66.4588 7.75447C66.3793 7.3969 66.205 7.06734 65.9541 6.80045L60.9276 1.40838C60.6346 1.1191 60.2627 0.922751 59.8586 0.843937C59.754 0.820044 59.647 0.808904 59.5398 0.810742C59.0469 0.824616 58.5755 1.01556 58.2118 1.34862L53.4177 5.7114C53.1437 5.05855 52.7546 4.46027 52.269 3.94505C51.1703 2.78479 49.6631 2.0978 48.0667 2.02963C46.4703 1.96146 44.9101 2.51744 43.7165 3.57981C42.5595 4.6774 41.8804 6.18592 41.8257 7.77984C41.7711 9.37377 42.3453 10.9253 43.4244 12.0996C43.8993 12.6243 44.4636 13.0605 45.091 13.3878L40.3633 17.8037C40.2741 17.8863 40.196 17.98 40.1309 18.0826C39.8955 18.381 39.7504 18.7404 39.7126 19.1186C39.6993 19.2244 39.6993 19.3315 39.7126 19.4373C39.7686 19.8451 39.9495 20.2256 40.2305 20.5263L45.1906 25.9715C45.4366 26.2437 45.7517 26.4442 46.1024 26.5518C46.4531 26.6593 46.8264 26.6699 47.1827 26.5825C47.5468 26.4926 47.8801 26.3065 48.1476 26.0436C48.4151 25.7808 48.607 25.4508 48.7032 25.0883C49.1083 23.5876 50.3699 22.5849 52.1627 22.3392C52.2485 22.3258 52.3359 22.3258 52.4217 22.3392C53.149 22.4666 53.8266 22.7936 54.3788 23.2837C54.9311 23.7739 55.3363 24.4078 55.5492 25.1149C55.6742 25.5876 55.6998 26.0811 55.6242 26.5643C55.5487 27.0474 55.3737 27.5096 55.1103 27.9215C54.8469 28.3335 54.5008 28.6863 54.094 28.9576C53.6873 29.2289 53.2286 29.4128 52.747 29.4976C52.3771 29.5613 52.0311 29.723 51.7449 29.966C51.4588 30.2089 51.2431 30.5241 51.1202 30.8788C51.0002 31.2275 50.9763 31.602 51.051 31.9631C51.1258 32.3242 51.2965 32.6585 51.5452 32.9307L51.6182 33.0104C51.7174 33.1197 51.8341 33.2117 51.9635 33.2827L56.7178 38.3693C57.0447 38.7353 57.4927 38.9711 57.9794 39.0334H58.1388H58.3114C58.5441 38.997 58.7688 38.9206 58.9754 38.8076C59.1279 38.727 59.2705 38.6289 59.4004 38.5154L64.5929 33.7807C64.6573 33.723 64.7152 33.6584 64.7656 33.5882C64.9533 33.329 65.0791 33.0301 65.1332 32.7147C65.1873 32.3992 65.1683 32.0756 65.0776 31.7687C64.9905 31.4679 64.8348 31.1915 64.6229 30.961C64.4109 30.7306 64.1483 30.5524 63.8559 30.4406C63.2772 30.2214 62.7662 29.854 62.3741 29.3753C61.982 28.8965 61.7226 28.3232 61.6217 27.7126C61.5209 27.102 61.5821 26.4757 61.7994 25.8963C62.0167 25.3168 62.3824 24.8047 62.8599 24.411L62.9528 24.3247C63.29 23.9846 63.6914 23.715 64.1336 23.5314C64.5759 23.3479 65.0503 23.2541 65.5292 23.2556C66.287 23.2673 67.0212 23.5211 67.6245 23.9798C68.2278 24.4386 68.6686 25.0784 68.8824 25.8055C68.9658 26.1061 69.1186 26.3828 69.3285 26.6135C69.5384 26.8441 69.7996 27.0223 70.0909 27.1336C70.3893 27.2506 70.7109 27.2965 71.0301 27.2677C71.3494 27.2388 71.6575 27.1361 71.9302 26.9676C72.0067 26.9282 72.0762 26.8766 72.136 26.8149L77.2755 22.0204C77.5734 21.7424 77.7815 21.3817 77.8731 20.9845C77.9009 20.8717 77.912 20.7553 77.9063 20.6392C77.8948 20.147 77.7062 19.6754 77.3751 19.3111L72.6872 14.1249ZM71.067 24.2649C70.7865 23.6493 70.41 23.0822 69.9515 22.5849C68.8068 21.3468 67.2172 20.6141 65.5323 20.5481C63.8475 20.4821 62.2055 21.0882 60.9675 22.2329C59.7294 23.3777 58.9968 24.9674 58.9308 26.6523C58.8648 28.3373 59.4708 29.9794 60.6155 31.2175C61.0694 31.7194 61.6062 32.1395 62.2025 32.4593L58.1587 36.1447L54.0751 31.7753C55.5326 31.2798 56.749 30.2517 57.4804 28.8971C58.2119 27.5424 58.4044 25.9614 58.0193 24.4708C57.6947 23.3061 57.0527 22.2547 56.1651 21.4338C55.2774 20.613 54.1791 20.0551 52.9927 19.8224C52.6059 19.7282 52.2045 19.7102 51.8108 19.7693C50.6677 19.8761 49.5735 20.2848 48.6402 20.9533C47.7068 21.6219 46.9678 22.5264 46.4987 23.5743L42.5147 19.2314L47.2092 14.8487C47.4104 14.6622 47.5709 14.4361 47.6807 14.1847C47.8225 13.9335 47.91 13.6553 47.9375 13.3682C47.9649 13.0811 47.9317 12.7914 47.84 12.5179C47.7484 12.2303 47.5926 11.9673 47.3843 11.7487C47.1761 11.5301 46.921 11.3617 46.6382 11.2562C46.1278 11.0596 45.6723 10.743 45.3102 10.3332C44.684 9.66139 44.347 8.77038 44.3718 7.85233C44.3967 6.93429 44.7814 6.0628 45.443 5.42587C46.1351 4.81582 47.0371 4.4984 47.9587 4.54052C48.8803 4.58264 49.7496 4.981 50.3832 5.65164C50.7596 6.05878 51.0368 6.54741 51.1933 7.07936C51.2712 7.37445 51.416 7.64767 51.6163 7.87795C51.8166 8.10822 52.0672 8.28939 52.3486 8.40746C52.6121 8.52422 52.8971 8.58453 53.1853 8.58453C53.4735 8.58453 53.7585 8.52422 54.0219 8.40746C54.2683 8.3154 54.4939 8.17545 54.6859 7.99573L59.4402 3.65949L63.4243 7.95589C62.3429 8.33855 61.3824 9.00109 60.6405 9.87599C59.8986 10.7509 59.402 11.8069 59.2012 12.9363C59.1292 13.329 59.1269 13.7314 59.1945 14.1249C59.3294 15.3232 59.7935 16.4608 60.5354 17.4114C61.2773 18.362 62.2681 19.0885 63.3977 19.5103C64.8516 20.0243 66.4464 19.9673 67.86 19.3511C69.2736 18.7348 70.4008 17.6051 71.0139 16.1901L75.0444 20.6127L71.067 24.2649Z" fill="#0057B2"/>
<path d="M8.19428 70.9146C8.19777 71.4606 8.41668 71.9831 8.80339 72.3686C9.19009 72.7541 9.71332 72.9714 10.2593 72.9731L34.0839 72.8336C34.1457 72.8405 34.208 72.8405 34.2698 72.8336C34.5258 72.9434 34.8014 72.9999 35.0799 72.9996L42.4703 72.9532C42.5564 72.963 42.6432 72.963 42.7293 72.9532C43.0411 72.8887 43.3336 72.7525 43.5837 72.5554C43.8338 72.3583 44.0346 72.1058 44.1702 71.8177C44.3136 71.537 44.3883 71.2264 44.3883 70.9112C44.3883 70.5961 44.3136 70.2854 44.1702 70.0048C43.8523 69.347 43.7266 68.6129 43.8077 67.8868C43.8887 67.1608 44.1732 66.4724 44.6283 65.901C44.6802 65.8315 44.7429 65.771 44.8143 65.7217C45.5432 65.1797 46.4227 64.878 47.3309 64.8584C48.2667 64.8601 49.1638 65.2318 49.8268 65.8923C50.4898 66.5529 50.8647 67.4486 50.87 68.3845C50.8763 68.9372 50.7511 69.4835 50.5048 69.9782C50.3647 70.2563 50.2917 70.5633 50.2917 70.8747C50.2917 71.1861 50.3647 71.4931 50.5048 71.7712C50.6445 72.0595 50.8491 72.3114 51.1025 72.5073C51.356 72.7032 51.6514 72.8376 51.9656 72.9001C52.0518 72.9069 52.1384 72.9069 52.2246 72.9001L59.2431 72.8536C59.5154 72.8545 59.7851 72.8012 60.0366 72.6968C60.288 72.5924 60.5162 72.439 60.7078 72.2456C60.8993 72.0521 61.0505 71.8225 61.1524 71.57C61.2544 71.3176 61.3051 71.0473 61.3016 70.7751L61.2617 63.4706C61.2617 63.1994 61.208 62.931 61.1037 62.6807C60.9993 62.4305 60.8464 62.2034 60.6537 62.0126C60.4611 61.8218 60.2326 61.671 59.9813 61.5691C59.7301 61.4672 59.4611 61.416 59.19 61.4186C58.7869 61.4205 58.3928 61.538 58.0546 61.7573C57.4844 62.1186 56.8239 62.312 56.1489 62.3151C55.5044 62.3153 54.8721 62.1398 54.3199 61.8075C53.7677 61.4753 53.3165 60.9987 53.0148 60.4292C52.6951 59.7657 52.5656 59.0266 52.6406 58.294C52.7156 57.5614 52.9922 56.8638 53.4397 56.2789C53.489 56.2076 53.5495 56.1448 53.619 56.093C54.3539 55.5527 55.237 55.2513 56.1489 55.2297C56.8143 55.2289 57.4661 55.4177 58.028 55.7742C58.4311 56.0175 58.9031 56.1214 59.3711 56.0698C59.8392 56.0182 60.2772 55.814 60.6176 55.4887C60.8152 55.2888 60.9681 55.0494 61.0666 54.7861C61.165 54.5229 61.2066 54.2419 61.1887 53.9614L61.1488 46.5905C61.1418 46.0427 60.9189 45.5198 60.5284 45.1356C60.138 44.7513 59.6116 44.5368 59.0638 44.5386H52.7624C52.9844 43.8979 53.0967 43.2244 53.0944 42.5464C53.0787 40.9347 52.4288 39.394 51.2854 38.258C50.1421 37.122 48.5973 36.4822 46.9856 36.477C45.5728 36.4975 44.1997 36.9468 43.048 37.7653C43.2397 37.5079 43.4128 37.2372 43.5659 36.9551C44.0969 35.8758 44.3191 34.6706 44.2077 33.4729C44.0964 32.2751 43.656 31.1315 42.9351 30.1685C42.706 29.8398 42.4205 29.5543 42.0918 29.3252C41.2398 28.7095 40.2545 28.3037 39.216 28.141C38.1775 27.9783 37.1152 28.0632 36.1158 28.3889L36.0759 22.0871C36.0535 21.5451 35.8201 21.0335 35.4256 20.6613C35.0311 20.2891 34.5067 20.0858 33.9644 20.0949L27.643 20.1348C27.9814 19.1251 28.0681 18.0481 27.8956 16.9974C27.7232 15.9466 27.2969 14.9538 26.6537 14.1052C26.426 13.779 26.1401 13.4976 25.8104 13.2752C24.6607 12.4702 23.2961 12.0284 21.8927 12.0068C21.0883 12.0068 20.2917 12.1657 19.5488 12.4744C18.8059 12.7831 18.1313 13.2355 17.5637 13.8056C16.9961 14.3757 16.5467 15.0523 16.2412 15.7966C15.9358 16.5409 15.7804 17.3381 15.7839 18.1426C15.7904 18.8449 15.9161 19.541 16.1557 20.2012L9.83437 20.241C9.56318 20.2427 9.295 20.2979 9.04512 20.4033C8.79524 20.5087 8.56855 20.6623 8.37803 20.8553C8.1875 21.0483 8.03686 21.2769 7.93469 21.5282C7.83253 21.7794 7.78084 22.0483 7.78259 22.3195L7.82243 29.7103C7.8159 29.7965 7.8159 29.8831 7.82243 29.9693C7.88495 30.2802 8.01868 30.5724 8.21312 30.8229C8.40756 31.0735 8.65742 31.2755 8.94309 31.4132C9.22875 31.5509 9.54245 31.6205 9.85954 31.6165C10.1766 31.6126 10.4885 31.5352 10.7706 31.3904C11.4302 31.0801 12.1628 30.9587 12.8871 31.0396C13.6115 31.1205 14.2993 31.4005 14.8742 31.8486C14.9473 31.8956 15.0105 31.9565 15.0601 32.0279C15.514 32.6089 15.7978 33.3045 15.8798 34.0372C15.9619 34.77 15.839 35.5111 15.5249 36.1782C15.2235 36.7542 14.7703 37.2369 14.2144 37.5739C13.6585 37.911 13.021 38.0897 12.3709 38.0906C11.8238 38.0907 11.2844 37.961 10.7972 37.7122C10.5191 37.5723 10.2121 37.4995 9.90078 37.4997C9.42626 37.5081 8.96912 37.6798 8.60632 37.9858C8.24352 38.2918 7.99719 38.7134 7.90876 39.1797C7.89861 39.2635 7.89861 39.3482 7.90876 39.432L7.9486 46.4577C7.95086 46.6448 7.99629 46.8289 8.08139 46.9955C8.08139 46.9955 8.08139 47.0553 8.08139 47.0885L8.12122 53.1247C7.11164 52.7864 6.03472 52.6996 4.98401 52.8721C3.9333 53.0445 2.94057 53.4709 2.09205 54.1141C1.76712 54.3433 1.48598 54.6289 1.26204 54.9575C0.549586 55.9285 0.120272 57.0781 0.0218087 58.2785C-0.076655 59.4789 0.159589 60.6831 0.704276 61.7573C1.40095 63.0435 2.5364 64.0367 3.90384 64.5559C5.27129 65.0751 6.77974 65.0859 8.15444 64.5862L8.19428 70.9146ZM43.7518 46.2252C43.9317 45.9265 44.0328 45.587 44.0456 45.2386C44.0584 44.8901 43.9824 44.5441 43.8249 44.2331C43.5036 43.5773 43.3761 42.8435 43.4572 42.1178C43.5384 41.392 43.8249 40.7045 44.2831 40.1359C44.3301 40.0628 44.391 39.9996 44.4623 39.95C45.1923 39.4108 46.0716 39.1114 46.9789 39.0933C47.5824 39.0908 48.1764 39.243 48.7043 39.5352C49.2323 39.8275 49.6766 40.2501 49.9948 40.7628C50.3131 41.2755 50.4947 41.8612 50.5224 42.4641C50.5501 43.0669 50.4228 43.6668 50.1529 44.2065C49.992 44.5175 49.9158 44.8653 49.9321 45.2151C49.9485 45.5648 50.0567 45.9041 50.2458 46.1987C50.4322 46.5029 50.6939 46.7538 51.0057 46.9271C51.3175 47.1005 51.6687 47.1903 52.0254 47.1881L58.5791 47.1483L58.619 53.1645C57.5622 52.7269 56.4102 52.5696 55.2748 52.7081C54.1394 52.8465 53.0589 53.276 52.1383 53.9547C51.8114 54.1865 51.5281 54.4742 51.3016 54.8048C50.5889 55.7728 50.1583 56.9194 50.0575 58.1174C49.9567 59.3153 50.1897 60.5177 50.7306 61.5913C51.4649 62.9713 52.7012 64.0165 54.1842 64.5109C55.6671 65.0052 57.2833 64.9109 58.6987 64.2475V70.2638L53.0812 70.297C53.3896 69.3788 53.4754 68.4004 53.3313 67.4425C53.1872 66.4847 52.8174 65.5748 52.2525 64.788C51.6876 64.0012 50.9437 63.36 50.0821 62.9174C49.2206 62.4747 48.2662 62.2432 47.2976 62.2421C45.8648 62.2652 44.4738 62.7289 43.3136 63.5702C42.9839 63.7959 42.7 64.082 42.477 64.4135C41.8492 65.2596 41.4355 66.2452 41.2713 67.2859C41.1071 68.3266 41.1973 69.3916 41.5341 70.3899L35.558 70.4298L35.5182 63.8491C35.5164 63.3019 35.2983 62.7776 34.9114 62.3907C34.5245 62.0038 34.0003 61.7857 33.4531 61.7839C33.1247 61.7843 32.8012 61.864 32.5102 62.0163C32.0053 62.2845 31.4419 62.4237 30.8701 62.4214C30.2262 62.4229 29.594 62.2487 29.0418 61.9176C28.4895 61.5864 28.038 61.1108 27.736 60.5421C27.4154 59.8792 27.2848 59.1405 27.3587 58.4079C27.4325 57.6752 27.7079 56.9774 28.1543 56.3918C28.2037 56.3225 28.2643 56.2619 28.3336 56.2125C28.91 55.7581 29.6007 55.4718 30.3295 55.3851C31.0582 55.2984 31.7968 55.4147 32.4637 55.7211C32.8541 55.9123 33.2942 55.978 33.7234 55.909C34.1526 55.84 34.5499 55.6399 34.8608 55.336C35.0538 55.1426 35.2061 54.9126 35.3088 54.6594C35.4114 54.4062 35.4623 54.135 35.4584 53.8618L35.4186 47.2811L41.979 47.2412C42.3371 47.2396 42.6886 47.1451 42.9994 46.967C43.3101 46.789 43.5693 46.5334 43.7518 46.2252ZM41.2286 44.6647H36.1888V39.9301C37.1814 40.2726 38.2459 40.3517 39.2783 40.1596C40.3106 39.9676 41.2755 39.5109 42.0786 38.8344C41.4878 39.6706 41.1029 40.6346 40.9552 41.6477C40.8075 42.6609 40.9012 43.6946 41.2286 44.6647ZM12.4439 40.6273C13.5589 40.6174 14.65 40.3029 15.5991 39.7177C16.5483 39.1325 17.3194 38.2989 17.829 37.3071C18.3615 36.2281 18.5844 35.0226 18.4731 33.8246C18.3617 32.6265 17.9204 31.4828 17.1982 30.5205C16.9689 30.1938 16.6834 29.9105 16.3549 29.6838C15.5047 29.0645 14.5195 28.6561 13.4805 28.4921C12.4415 28.3282 11.3785 28.4134 10.3789 28.7409L10.3457 22.7644L16.926 22.7246C17.2837 22.7249 17.6354 22.632 17.9463 22.455C18.2571 22.278 18.5165 22.023 18.6989 21.7152C18.8819 21.4171 18.9831 21.076 18.9924 20.7263C19.0017 20.3766 18.9188 20.0306 18.752 19.7231C18.4701 19.1828 18.3323 18.579 18.3517 17.97C18.3711 17.3609 18.5471 16.7671 18.8627 16.2459C19.1784 15.7247 19.623 15.2936 20.1538 14.9942C20.6845 14.6949 21.2834 14.5374 21.8927 14.5369C22.7829 14.5591 23.6457 14.8483 24.3695 15.3669C24.4408 15.4162 24.5036 15.4767 24.5554 15.5462C25.01 16.124 25.2958 16.8162 25.3814 17.5463C25.4669 18.2765 25.3488 19.0161 25.0401 19.6832C24.8824 19.999 24.8082 20.3499 24.8246 20.7025C24.8411 21.0551 24.9476 21.3976 25.1341 21.6973C25.3206 21.997 25.5807 22.244 25.8898 22.4145C26.1988 22.585 26.5464 22.6735 26.8993 22.6714H33.4863L33.5261 29.2256C33.5296 29.7716 33.7485 30.2942 34.1353 30.6797C34.522 31.0652 35.0452 31.2824 35.5912 31.2841C35.9146 31.2837 36.2332 31.2063 36.5208 31.0584C37.1814 30.7526 37.9132 30.6336 38.6366 30.7144C39.36 30.7951 40.0475 31.0726 40.6244 31.5166C40.6951 31.5643 40.756 31.6251 40.8037 31.6958C41.2618 32.2748 41.5482 32.9707 41.6304 33.7044C41.7125 34.4381 41.5871 35.1802 41.2685 35.8461C40.9693 36.4226 40.5175 36.9058 39.9625 37.2431C39.4075 37.5803 38.7705 37.7587 38.1211 37.7586C37.5796 37.7599 37.0453 37.6349 36.5607 37.3934C36.1736 37.2052 35.7377 37.1418 35.3131 37.212C34.8884 37.2822 34.4961 37.4825 34.1901 37.7852C33.9956 37.9778 33.8419 38.2075 33.7381 38.4608C33.6342 38.7141 33.5825 38.9857 33.5859 39.2594L33.6191 45.2358C33.4891 45.345 33.3731 45.4699 33.2738 45.6077C33.2273 45.6741 33.1875 45.7471 33.1477 45.8135L26.8529 45.8534C26.7171 45.8542 26.5836 45.8183 26.4667 45.7493C26.3498 45.6803 26.2537 45.5809 26.1889 45.4616C26.1153 45.3369 26.0765 45.1947 26.0765 45.0499C26.0765 44.9051 26.1153 44.7629 26.1889 44.6382C27.2911 42.8984 27.1583 40.7203 25.8303 38.8078C25.6932 38.613 25.5223 38.4443 25.3256 38.3098C24.3867 37.639 23.2656 37.2707 22.1119 37.254C21.2495 37.257 20.4037 37.4916 19.663 37.9333C18.9223 38.3751 18.3138 39.0077 17.9012 39.765C17.4887 40.5224 17.2871 41.3767 17.3176 42.2386C17.3481 43.1005 17.6096 43.9384 18.0747 44.6647C18.1533 44.7877 18.1978 44.9294 18.2036 45.0753C18.2095 45.2211 18.1764 45.3659 18.1079 45.4948C18.0431 45.6151 17.9475 45.7161 17.8308 45.7873C17.7141 45.8585 17.5806 45.8973 17.4439 45.8998L10.4984 45.9397V40.3219C11.1262 40.5279 11.7832 40.631 12.4439 40.6273ZM6.07609 62.4015C5.43078 62.4008 4.79751 62.2266 4.24261 61.8971C3.68772 61.5677 3.23162 61.0951 2.92206 60.5288C2.59976 59.8637 2.46882 59.122 2.54387 58.3867C2.61892 57.6514 2.89701 56.9515 3.34703 56.3652C3.39238 56.2967 3.45108 56.2379 3.51966 56.1926C4.09396 55.734 4.78495 55.4451 5.5147 55.3582C6.24445 55.2714 6.98394 55.3902 7.64978 55.7012C7.96577 55.8605 8.31741 55.936 8.67094 55.9203C9.02447 55.9046 9.36803 55.7983 9.66868 55.6117C9.96932 55.425 10.217 55.1642 10.3878 54.8543C10.5587 54.5444 10.6471 54.1958 10.6445 53.8419L10.6113 48.483L17.4372 48.4432C18.0354 48.4416 18.622 48.2786 19.1351 47.9711C19.6482 47.6637 20.0687 47.2234 20.3522 46.6967C20.6404 46.1652 20.7801 45.566 20.7567 44.9619C20.7333 44.3578 20.5477 43.7712 20.2194 43.2636C19.9915 42.904 19.8695 42.4874 19.8675 42.0617C19.8646 41.7629 19.9219 41.4667 20.036 41.1906C20.1501 40.9145 20.3186 40.6642 20.5315 40.4546C21.3482 39.6312 22.6298 39.5715 23.8516 40.3418C24.1686 40.7503 24.3594 41.2426 24.4007 41.7581C24.442 42.2735 24.3319 42.7898 24.084 43.2436C23.7617 43.7532 23.5819 44.3398 23.5632 44.9424C23.5445 45.545 23.6876 46.1416 23.9777 46.6702C24.2667 47.1927 24.6912 47.6276 25.2065 47.9291C25.7219 48.2306 26.309 48.3875 26.906 48.3834L32.9153 48.3502V53.1048C31.9045 52.7749 30.8293 52.6926 29.7801 52.8648C28.7309 53.037 27.7384 53.4586 26.8861 54.0942C26.5617 54.3214 26.2806 54.6048 26.0561 54.9309C25.3458 55.9003 24.9172 57.0471 24.8176 58.2447C24.718 59.4423 24.9513 60.6441 25.4917 61.7175C26.0137 62.7036 26.796 63.5277 27.7537 64.1002C28.7113 64.6727 29.8076 64.9717 30.9232 64.9647C31.6261 64.9647 32.3232 64.8387 32.9817 64.5928L33.0149 70.0911C32.9626 70.1486 32.9159 70.2108 32.8754 70.2771L10.7573 70.4099L10.7175 63.8291C10.7171 63.4707 10.6232 63.1187 10.445 62.8077C10.2669 62.4967 10.0106 62.2377 9.70156 62.0561C9.40402 61.8721 9.06327 61.7697 8.71358 61.7592C8.36389 61.7487 8.01759 61.8305 7.70954 61.9964C7.2069 62.2643 6.64568 62.4035 6.07609 62.4015Z" fill="#0057B2"/>
</svg>
