<svg width="90" height="70" viewBox="0 0 90 70" fill="none" xmlns="http://www.w3.org/2000/svg">
<g clip-path="url(#clip0_834_19488)">
<path d="M11.8899 24.4387H48.9981C49.2747 24.4164 49.5328 24.2907 49.7209 24.0867C49.909 23.8828 50.0135 23.6155 50.0135 23.338C50.0135 23.0605 49.909 22.7932 49.7209 22.5892C49.5328 22.3853 49.2747 22.2596 48.9981 22.2373H11.8899C11.6133 22.2596 11.3553 22.3853 11.1671 22.5892C10.979 22.7932 10.8745 23.0605 10.8745 23.338C10.8745 23.6155 10.979 23.8828 11.1671 24.0867C11.3553 24.2907 11.6133 24.4164 11.8899 24.4387Z" fill="#0057B2"/>
<path d="M48.9977 52.6045H11.8894C11.5966 52.6045 11.3157 52.7208 11.1086 52.9279C10.9015 53.135 10.7852 53.4159 10.7852 53.7088C10.7852 54.0016 10.9015 54.2825 11.1086 54.4896C11.3157 54.6967 11.5966 54.8131 11.8894 54.8131H48.9977C49.2906 54.8131 49.5715 54.6967 49.7786 54.4896C49.9857 54.2825 50.102 54.0016 50.102 53.7088C50.102 53.4159 49.9857 53.135 49.7786 52.9279C49.5715 52.7208 49.2906 52.6045 48.9977 52.6045Z" fill="#0057B2"/>
<path d="M87.64 3.34177L87.5683 3.26291C86.9709 2.6043 86.2459 2.07401 85.4373 1.70421C84.6287 1.33441 83.7533 1.13282 82.8644 1.1117C81.1318 1.1895 79.486 1.89262 78.2321 3.09082L63.8907 17.4322C63.7883 17.5349 63.707 17.6567 63.6516 17.7908C63.5963 17.925 63.5679 18.0687 63.5681 18.2138C63.5713 18.3083 63.5857 18.4022 63.6111 18.4934L62.7578 19.3467L62.3706 18.9595L60.8647 20.4654V0.810547H0V69.814H60.8862V39.2956L71.8287 28.3459L71.4415 27.9587L72.2948 27.1054C72.3861 27.1302 72.4799 27.1446 72.5744 27.1484C72.7196 27.149 72.8634 27.1208 72.9976 27.0654C73.1318 27.01 73.2536 26.9286 73.3561 26.8258L87.4679 12.7641C88.7466 11.4696 89.5112 9.7545 89.6192 7.9382C89.6218 7.07733 89.4475 6.22507 89.1071 5.43438C88.7666 4.64368 88.2673 3.93141 87.64 3.34177ZM58.6848 41.5256V67.6126H2.2014V3.01908H58.6848V22.6453L46.3871 34.943L47.2691 35.8249L46.968 37.5459H11.889C11.6124 37.5683 11.3544 37.6939 11.1662 37.8979C10.9781 38.1019 10.8736 38.3691 10.8736 38.6466C10.8736 38.9241 10.9781 39.1914 11.1662 39.3954C11.3544 39.5993 11.6124 39.725 11.889 39.7473H46.5879L45.6629 45.1397L54.9848 43.5263L55.8309 44.3796L58.6992 41.5113L59.7963 40.407L58.6848 41.5256ZM48.524 44.0497L46.4803 44.4369H46.3369L46.717 42.2212L47.1974 42.6945L48.2228 36.75L54.0239 42.551L48.0722 43.5765L48.524 44.0497ZM55.8237 41.2675L49.4992 34.943L62.4064 22.0357L68.731 28.3603L55.8237 41.2675ZM70.2727 27.6002L63.1665 20.4941L63.8836 19.777L70.9897 26.8831L70.2727 27.6002ZM85.9263 11.165L72.5744 24.5168L66.2499 18.1923L79.7882 4.65402C80.6257 3.86397 81.7149 3.3943 82.8644 3.32746C83.4559 3.35104 84.0366 3.49402 84.5714 3.74788C85.1062 4.00174 85.5842 4.36122 85.9764 4.80462L86.0338 4.86195C86.4576 5.24397 86.7999 5.70763 87.0402 6.22515C87.2805 6.74266 87.4138 7.30337 87.4321 7.87365C87.3344 9.11412 86.801 10.2801 85.9263 11.165Z" fill="#0057B2"/>
<path d="M63.8688 14.5854C63.9587 14.6754 64.0655 14.7468 64.183 14.7955C64.3005 14.8442 64.4264 14.8692 64.5536 14.8692C64.6808 14.8692 64.8068 14.8442 64.9243 14.7955C65.0418 14.7468 65.1485 14.6754 65.2384 14.5854L75.3921 4.43172C75.4821 4.34182 75.5535 4.23507 75.6022 4.11757C75.6509 4.00007 75.6759 3.87411 75.6759 3.74691C75.6759 3.61972 75.6509 3.4938 75.6022 3.3763C75.5535 3.2588 75.4821 3.152 75.3921 3.0621C75.2096 2.88212 74.9636 2.78125 74.7073 2.78125C74.451 2.78125 74.205 2.88212 74.0225 3.0621L63.8545 13.2086C63.6749 13.3899 63.5742 13.6347 63.5742 13.8899C63.5742 14.145 63.6749 14.3898 63.8545 14.5711L63.8688 14.5854Z" fill="#0057B2"/>
</g>
<defs>
<clipPath id="clip0_834_19488">
<rect width="89.6478" height="69.0035" fill="white" transform="translate(0 0.810547)"/>
</clipPath>
</defs>
</svg>
