<svg width="53" height="53" viewBox="0 0 53 53" fill="none" xmlns="http://www.w3.org/2000/svg">
<path d="M37.9664 10.6975C40.255 12.4217 43.0912 13.2852 45.9665 13.133C47.049 13.0991 48.1257 12.9623 49.1817 12.7246C47.1751 9.45456 44.4668 6.65809 41.2473 4.53184C38.0278 2.4056 34.3753 1.00122 30.5466 0.41748L33.6003 5.20883C34.8773 7.21103 36.1947 9.28297 37.9664 10.6975ZM9.53424 31.9497C10.8314 29.7981 12.058 27.766 12.1892 25.6094C12.3053 23.8313 11.6844 21.9387 11.0535 20.1307L10.4175 18.2381C9.31048 15.7013 8.19332 13.1745 7.06607 10.6576C6.95502 10.4385 6.84901 10.2243 6.75311 9.99519C6.70264 9.87566 6.65721 9.75613 6.61179 9.63161C6.56636 9.50709 6.4856 9.36266 6.42503 9.2232C5.61786 10.1412 4.87581 11.1131 4.20417 12.1319C1.15711 16.8134 -0.29784 22.3316 0.0507152 27.8848C0.399271 33.4381 2.53317 38.737 6.14238 43.0117C6.00707 40.8071 6.35126 38.5994 7.15186 36.5369C7.81611 34.9455 8.61297 33.4112 9.53424 31.9497ZM52.1799 32.7466H51.9679L51.0089 32.7964L50.5849 32.8711C48.2277 33.2895 45.9968 33.683 44.2049 34.7688C43.01 35.5203 42.0378 36.5704 41.3871 37.8125C40.7364 39.0547 40.4304 40.4446 40.5001 41.8412C40.5757 42.6596 40.7089 43.4717 40.8989 44.2718C41.1898 45.4607 41.3589 46.6754 41.4036 47.8976C46.7533 44.3099 50.5922 38.919 52.2001 32.7367L52.1799 32.7466ZM50.8978 28.7621C51.6045 28.6326 52.2707 28.4882 52.9168 28.3388C53.1246 25.7566 52.9426 23.1582 52.3767 20.6288C52.0587 20.6736 51.7458 20.7234 51.4278 20.7882C49.8228 21.1706 48.2487 21.6701 46.7186 22.2824C45.9059 22.5812 45.0681 22.89 44.1949 23.1689C42.0093 23.8861 38.7134 24.7527 35.4073 23.9907C34.2103 23.7113 33.0701 23.233 32.0356 22.5762C30.0814 21.3442 28.5711 19.535 27.7201 17.4063C26.9781 15.5237 26.8317 13.6111 26.7106 11.7683C26.6399 10.817 26.5693 9.92049 26.4229 9.06382C26.127 7.42979 25.5985 5.84522 24.8532 4.35714C24.2013 2.9214 23.3108 1.60329 22.2184 0.457324C18.8524 1.00507 15.6253 2.18887 12.7141 3.94375C12.4422 4.46899 12.2452 5.0288 12.1286 5.60728C11.5885 8.56078 13.8245 11.6986 15.5558 13.8004C15.788 14.0859 16.0252 14.3698 16.2675 14.6521C18.448 17.2719 20.9162 20.2353 21.4865 23.9957C22.072 27.8706 20.5275 31.3122 19.0385 34.6393C17.8776 37.2192 16.7874 39.6547 16.7571 42.1102C16.7167 45.0537 18.2713 48.1766 21.0726 50.6868C21.6609 51.2191 22.2793 51.718 22.925 52.181C24.4969 52.392 26.0849 52.462 27.6696 52.3901C28.3692 52.0068 28.9919 51.5004 29.5069 50.896C30.8899 49.2125 31.2028 46.7571 31.334 44.3514C31.334 44.0227 31.3694 43.689 31.3845 43.3553C31.5057 40.8052 31.6318 38.1655 32.7726 35.6503C33.4466 34.194 34.418 32.8906 35.6261 31.8219C36.8343 30.7532 38.253 29.9421 39.7935 29.4395C42.1002 28.7073 44.4775 28.7323 46.9205 28.8269H47.1072C48.3085 28.8767 49.4643 28.9165 50.5697 28.8269L50.8978 28.7621Z" fill="url(#paint0_linear_493_2464)"/>
<defs>
<linearGradient id="paint0_linear_493_2464" x1="21.0432" y1="0.83518" x2="32.7324" y2="56.6691" gradientUnits="userSpaceOnUse">
<stop stop-color="#2AD3F8"/>
<stop offset="0.98" stop-color="#933CFF"/>
</linearGradient>
</defs>
</svg>
