<svg width="753" height="424" viewBox="0 0 753 424" fill="none" xmlns="http://www.w3.org/2000/svg">
<g opacity="0.45">
<g opacity="0.83">
<mask id="mask0_862_18847" style="mask-type:luminance" maskUnits="userSpaceOnUse" x="0" y="0" width="753" height="424">
<path d="M752.42 0.230469H0.350098V423.23H752.42V0.230469Z" fill="white"/>
</mask>
<g mask="url(#mask0_862_18847)">
<path d="M64.2496 513.964C101.299 476.915 101.299 416.847 64.2496 379.798C27.2006 342.749 -32.8677 342.749 -69.9168 379.798C-106.966 416.847 -106.966 476.915 -69.9168 513.964C-32.8677 551.013 27.2006 551.013 64.2496 513.964Z" fill="#D7EAEA"/>
<path d="M448.23 378.33C449.401 378.33 450.35 377.381 450.35 376.21C450.35 375.039 449.401 374.09 448.23 374.09C447.059 374.09 446.11 375.039 446.11 376.21C446.11 377.381 447.059 378.33 448.23 378.33Z" fill="#68A8DE"/>
<path d="M467.33 378.33C468.501 378.33 469.45 377.381 469.45 376.21C469.45 375.039 468.501 374.09 467.33 374.09C466.159 374.09 465.21 375.039 465.21 376.21C465.21 377.381 466.159 378.33 467.33 378.33Z" fill="#68A8DE"/>
<path d="M486.43 378.33C487.601 378.33 488.55 377.381 488.55 376.21C488.55 375.039 487.601 374.09 486.43 374.09C485.259 374.09 484.31 375.039 484.31 376.21C484.31 377.381 485.259 378.33 486.43 378.33Z" fill="#68A8DE"/>
<path d="M505.53 378.33C506.701 378.33 507.65 377.381 507.65 376.21C507.65 375.039 506.701 374.09 505.53 374.09C504.359 374.09 503.41 375.039 503.41 376.21C503.41 377.381 504.359 378.33 505.53 378.33Z" fill="#68A8DE"/>
<path d="M526.71 376.21C526.71 376.629 526.586 377.039 526.353 377.388C526.12 377.736 525.789 378.008 525.402 378.168C525.014 378.329 524.588 378.371 524.177 378.289C523.765 378.207 523.388 378.005 523.091 377.709C522.795 377.412 522.593 377.035 522.511 376.623C522.429 376.212 522.471 375.786 522.632 375.399C522.792 375.011 523.064 374.68 523.412 374.447C523.761 374.214 524.171 374.09 524.59 374.09C525.152 374.09 525.692 374.313 526.089 374.711C526.487 375.108 526.71 375.648 526.71 376.21Z" fill="#68A8DE"/>
<path d="M543.72 378.33C544.891 378.33 545.84 377.381 545.84 376.21C545.84 375.039 544.891 374.09 543.72 374.09C542.549 374.09 541.6 375.039 541.6 376.21C541.6 377.381 542.549 378.33 543.72 378.33Z" fill="#68A8DE"/>
<path d="M562.82 378.33C563.991 378.33 564.94 377.381 564.94 376.21C564.94 375.039 563.991 374.09 562.82 374.09C561.649 374.09 560.7 375.039 560.7 376.21C560.7 377.381 561.649 378.33 562.82 378.33Z" fill="#68A8DE"/>
<path d="M581.92 378.33C583.091 378.33 584.04 377.381 584.04 376.21C584.04 375.039 583.091 374.09 581.92 374.09C580.749 374.09 579.8 375.039 579.8 376.21C579.8 377.381 580.749 378.33 581.92 378.33Z" fill="#68A8DE"/>
<path d="M601.02 378.33C602.191 378.33 603.14 377.381 603.14 376.21C603.14 375.039 602.191 374.09 601.02 374.09C599.849 374.09 598.9 375.039 598.9 376.21C598.9 377.381 599.849 378.33 601.02 378.33Z" fill="#68A8DE"/>
<path d="M620.12 378.33C621.291 378.33 622.24 377.381 622.24 376.21C622.24 375.039 621.291 374.09 620.12 374.09C618.949 374.09 618 375.039 618 376.21C618 377.381 618.949 378.33 620.12 378.33Z" fill="#68A8DE"/>
<path d="M639.22 378.33C640.391 378.33 641.34 377.381 641.34 376.21C641.34 375.039 640.391 374.09 639.22 374.09C638.049 374.09 637.1 375.039 637.1 376.21C637.1 377.381 638.049 378.33 639.22 378.33Z" fill="#68A8DE"/>
<path d="M448.23 395.31C449.401 395.31 450.35 394.361 450.35 393.19C450.35 392.019 449.401 391.07 448.23 391.07C447.059 391.07 446.11 392.019 446.11 393.19C446.11 394.361 447.059 395.31 448.23 395.31Z" fill="#68A8DE"/>
<path d="M467.33 395.31C468.501 395.31 469.45 394.361 469.45 393.19C469.45 392.019 468.501 391.07 467.33 391.07C466.159 391.07 465.21 392.019 465.21 393.19C465.21 394.361 466.159 395.31 467.33 395.31Z" fill="#68A8DE"/>
<path d="M486.43 395.31C487.601 395.31 488.55 394.361 488.55 393.19C488.55 392.019 487.601 391.07 486.43 391.07C485.259 391.07 484.31 392.019 484.31 393.19C484.31 394.361 485.259 395.31 486.43 395.31Z" fill="#68A8DE"/>
<path d="M505.53 395.31C506.701 395.31 507.65 394.361 507.65 393.19C507.65 392.019 506.701 391.07 505.53 391.07C504.359 391.07 503.41 392.019 503.41 393.19C503.41 394.361 504.359 395.31 505.53 395.31Z" fill="#68A8DE"/>
<path d="M526.71 393.19C526.708 393.608 526.582 394.017 526.348 394.365C526.114 394.712 525.782 394.982 525.395 395.141C525.007 395.3 524.581 395.341 524.171 395.258C523.76 395.175 523.383 394.972 523.088 394.675C522.792 394.378 522.591 394 522.51 393.589C522.429 393.179 522.472 392.753 522.633 392.366C522.793 391.979 523.065 391.649 523.413 391.416C523.762 391.184 524.171 391.06 524.59 391.06C524.869 391.06 525.146 391.115 525.404 391.222C525.662 391.329 525.896 391.486 526.093 391.684C526.29 391.882 526.446 392.117 526.552 392.375C526.658 392.634 526.711 392.91 526.71 393.19Z" fill="#68A8DE"/>
<path d="M543.72 395.31C544.891 395.31 545.84 394.361 545.84 393.19C545.84 392.019 544.891 391.07 543.72 391.07C542.549 391.07 541.6 392.019 541.6 393.19C541.6 394.361 542.549 395.31 543.72 395.31Z" fill="#68A8DE"/>
<path d="M562.82 395.31C563.991 395.31 564.94 394.361 564.94 393.19C564.94 392.019 563.991 391.07 562.82 391.07C561.649 391.07 560.7 392.019 560.7 393.19C560.7 394.361 561.649 395.31 562.82 395.31Z" fill="#68A8DE"/>
<path d="M581.92 395.31C583.091 395.31 584.04 394.361 584.04 393.19C584.04 392.019 583.091 391.07 581.92 391.07C580.749 391.07 579.8 392.019 579.8 393.19C579.8 394.361 580.749 395.31 581.92 395.31Z" fill="#68A8DE"/>
<path d="M601.02 395.31C602.191 395.31 603.14 394.361 603.14 393.19C603.14 392.019 602.191 391.07 601.02 391.07C599.849 391.07 598.9 392.019 598.9 393.19C598.9 394.361 599.849 395.31 601.02 395.31Z" fill="#68A8DE"/>
<path d="M620.12 395.31C621.291 395.31 622.24 394.361 622.24 393.19C622.24 392.019 621.291 391.07 620.12 391.07C618.949 391.07 618 392.019 618 393.19C618 394.361 618.949 395.31 620.12 395.31Z" fill="#68A8DE"/>
<path d="M639.22 395.31C640.391 395.31 641.34 394.361 641.34 393.19C641.34 392.019 640.391 391.07 639.22 391.07C638.049 391.07 637.1 392.019 637.1 393.19C637.1 394.361 638.049 395.31 639.22 395.31Z" fill="#68A8DE"/>
<path d="M448.23 412.29C449.401 412.29 450.35 411.341 450.35 410.17C450.35 408.999 449.401 408.05 448.23 408.05C447.059 408.05 446.11 408.999 446.11 410.17C446.11 411.341 447.059 412.29 448.23 412.29Z" fill="#68A8DE"/>
<path d="M467.33 412.29C468.501 412.29 469.45 411.341 469.45 410.17C469.45 408.999 468.501 408.05 467.33 408.05C466.159 408.05 465.21 408.999 465.21 410.17C465.21 411.341 466.159 412.29 467.33 412.29Z" fill="#68A8DE"/>
<path d="M486.43 412.29C487.601 412.29 488.55 411.341 488.55 410.17C488.55 408.999 487.601 408.05 486.43 408.05C485.259 408.05 484.31 408.999 484.31 410.17C484.31 411.341 485.259 412.29 486.43 412.29Z" fill="#68A8DE"/>
<path d="M505.53 412.29C506.701 412.29 507.65 411.341 507.65 410.17C507.65 408.999 506.701 408.05 505.53 408.05C504.359 408.05 503.41 408.999 503.41 410.17C503.41 411.341 504.359 412.29 505.53 412.29Z" fill="#68A8DE"/>
<path d="M526.71 410.16C526.71 410.579 526.586 410.989 526.353 411.338C526.12 411.686 525.789 411.958 525.402 412.119C525.014 412.279 524.588 412.321 524.177 412.239C523.765 412.158 523.388 411.956 523.091 411.659C522.795 411.363 522.593 410.985 522.511 410.574C522.429 410.162 522.471 409.736 522.632 409.349C522.792 408.961 523.064 408.63 523.412 408.397C523.761 408.164 524.171 408.04 524.59 408.04C525.152 408.04 525.692 408.263 526.089 408.661C526.487 409.059 526.71 409.598 526.71 410.16Z" fill="#68A8DE"/>
<path d="M543.72 412.29C544.891 412.29 545.84 411.341 545.84 410.17C545.84 408.999 544.891 408.05 543.72 408.05C542.549 408.05 541.6 408.999 541.6 410.17C541.6 411.341 542.549 412.29 543.72 412.29Z" fill="#68A8DE"/>
<path d="M562.82 412.29C563.991 412.29 564.94 411.341 564.94 410.17C564.94 408.999 563.991 408.05 562.82 408.05C561.649 408.05 560.7 408.999 560.7 410.17C560.7 411.341 561.649 412.29 562.82 412.29Z" fill="#68A8DE"/>
<path d="M581.92 412.29C583.091 412.29 584.04 411.341 584.04 410.17C584.04 408.999 583.091 408.05 581.92 408.05C580.749 408.05 579.8 408.999 579.8 410.17C579.8 411.341 580.749 412.29 581.92 412.29Z" fill="#68A8DE"/>
<path d="M601.02 412.29C602.191 412.29 603.14 411.341 603.14 410.17C603.14 408.999 602.191 408.05 601.02 408.05C599.849 408.05 598.9 408.999 598.9 410.17C598.9 411.341 599.849 412.29 601.02 412.29Z" fill="#68A8DE"/>
<path d="M620.12 412.29C621.291 412.29 622.24 411.341 622.24 410.17C622.24 408.999 621.291 408.05 620.12 408.05C618.949 408.05 618 408.999 618 410.17C618 411.341 618.949 412.29 620.12 412.29Z" fill="#68A8DE"/>
<path d="M639.22 412.29C640.391 412.29 641.34 411.341 641.34 410.17C641.34 408.999 640.391 408.05 639.22 408.05C638.049 408.05 637.1 408.999 637.1 410.17C637.1 411.341 638.049 412.29 639.22 412.29Z" fill="#68A8DE"/>
<path d="M307.78 -54.7037C293.68 -50.6337 279.08 -59.9037 269.41 -70.9437C259.74 -81.9837 252.41 -95.3737 240.61 -104.064C215.48 -122.504 175.61 -110.814 160.5 -83.5637C145.39 -56.3137 153.51 -19.7037 175.56 2.2963C197.61 24.2963 230.81 32.8063 261.82 29.5363C289.05 26.6663 315.76 15.0163 334.4 -5.05367C353.04 -25.1237 362.77 -53.8937 357.46 -80.7637C354.35 -96.5037 337.56 -117.014 329.76 -96.8237C323.71 -81.1637 329.71 -61.0037 307.78 -54.7037Z" fill="#ACDBDF" fill-opacity="0.68"/>
<g opacity="0.71">
<path d="M707.758 341.275C721.458 338.699 730.475 325.505 727.899 311.805C725.323 298.106 712.129 289.088 698.429 291.665C684.729 294.241 675.712 307.435 678.288 321.134C680.865 334.834 694.059 343.851 707.758 341.275Z" fill="#D7EAEA"/>
</g>
<g opacity="0.65">
<path d="M30.4512 218.517C30.9919 223.482 30.0478 228.496 27.7385 232.925C25.4291 237.354 21.8583 240.998 17.4775 243.397C13.0967 245.796 8.10289 246.842 3.12766 246.402C-1.84758 245.963 -6.58072 244.057 -10.4731 240.928C-14.3654 237.798 -17.2421 233.584 -18.7393 228.819C-20.2364 224.054 -20.2869 218.952 -18.8841 214.158C-17.4813 209.365 -14.6884 205.095 -10.8587 201.889C-7.02893 198.683 -2.33435 196.685 2.63124 196.147C9.28646 195.426 15.9555 197.378 21.1723 201.573C26.3891 205.767 29.7266 211.862 30.4512 218.517Z" fill="#92B1BB"/>
</g>
<path d="M786.747 6.0701C799.154 -19.9651 788.106 -51.1286 762.071 -63.5356C736.035 -75.9426 704.872 -64.8947 692.465 -38.8596C680.058 -12.8244 691.106 18.3391 717.141 30.7461C743.176 43.1531 774.34 32.1053 786.747 6.0701Z" fill="#ACDBDF"/>
<g opacity="0.72">
<path d="M647.775 418.776C668.169 398.383 668.169 365.319 647.775 344.926C627.382 324.532 594.318 324.532 573.925 344.925C553.532 365.319 553.532 398.383 573.925 418.776C594.318 439.169 627.382 439.169 647.775 418.776Z" fill="#D7EAEA"/>
</g>
<path d="M4.28961 61.38C5.22297 61.38 5.97961 60.6234 5.97961 59.69C5.97961 58.7566 5.22297 58 4.28961 58C3.35625 58 2.59961 58.7566 2.59961 59.69C2.59961 60.6234 3.35625 61.38 4.28961 61.38Z" fill="#007DFF" fill-opacity="0.58"/>
<path d="M19.4898 61.38C20.4232 61.38 21.1798 60.6234 21.1798 59.69C21.1798 58.7566 20.4232 58 19.4898 58C18.5564 58 17.7998 58.7566 17.7998 59.69C17.7998 60.6234 18.5564 61.38 19.4898 61.38Z" fill="#007DFF" fill-opacity="0.58"/>
<path d="M4.28961 74.8898C5.22297 74.8898 5.97961 74.1331 5.97961 73.1998C5.97961 72.2664 5.22297 71.5098 4.28961 71.5098C3.35625 71.5098 2.59961 72.2664 2.59961 73.1998C2.59961 74.1331 3.35625 74.8898 4.28961 74.8898Z" fill="#007DFF" fill-opacity="0.58"/>
<path d="M19.4898 74.8898C20.4232 74.8898 21.1798 74.1331 21.1798 73.1998C21.1798 72.2664 20.4232 71.5098 19.4898 71.5098C18.5564 71.5098 17.7998 72.2664 17.7998 73.1998C17.7998 74.1331 18.5564 74.8898 19.4898 74.8898Z" fill="#007DFF" fill-opacity="0.58"/>
<path d="M4.28961 88.4005C5.22297 88.4005 5.97961 87.6439 5.97961 86.7105C5.97961 85.7771 5.22297 85.0205 4.28961 85.0205C3.35625 85.0205 2.59961 85.7771 2.59961 86.7105C2.59961 87.6439 3.35625 88.4005 4.28961 88.4005Z" fill="#007DFF" fill-opacity="0.58"/>
<path d="M19.4898 88.4005C20.4232 88.4005 21.1798 87.6439 21.1798 86.7105C21.1798 85.7771 20.4232 85.0205 19.4898 85.0205C18.5564 85.0205 17.7998 85.7771 17.7998 86.7105C17.7998 87.6439 18.5564 88.4005 19.4898 88.4005Z" fill="#007DFF" fill-opacity="0.58"/>
<path d="M5.97961 100.26C5.97961 100.595 5.8805 100.921 5.6948 101.199C5.5091 101.477 5.24515 101.694 4.93634 101.822C4.62754 101.95 4.28774 101.983 3.95991 101.918C3.63208 101.853 3.33095 101.692 3.0946 101.455C2.85825 101.219 2.69729 100.918 2.63208 100.59C2.56687 100.262 2.60034 99.9224 2.72825 99.6136C2.85616 99.3048 3.07278 99.0408 3.3507 98.8551C3.62862 98.6694 3.95536 98.5703 4.28962 98.5703C4.73783 98.5703 5.16769 98.7484 5.48462 99.0653C5.80156 99.3822 5.97961 99.8121 5.97961 100.26Z" fill="#007DFF" fill-opacity="0.58"/>
<path d="M21.1798 100.26C21.1798 100.595 21.0807 100.921 20.895 101.199C20.7093 101.477 20.4453 101.694 20.1365 101.822C19.8277 101.95 19.4879 101.983 19.1601 101.918C18.8323 101.853 18.5311 101.692 18.2948 101.455C18.0584 101.219 17.8975 100.918 17.8323 100.59C17.7671 100.262 17.8005 99.9224 17.9284 99.6136C18.0564 99.3048 18.273 99.0408 18.5509 98.8551C18.8288 98.6694 19.1556 98.5703 19.4898 98.5703C19.938 98.5703 20.3679 98.7484 20.6848 99.0653C21.0017 99.3822 21.1798 99.8121 21.1798 100.26Z" fill="#007DFF" fill-opacity="0.58"/>
<path d="M5.97961 113.73C5.97961 114.064 5.8805 114.391 5.6948 114.669C5.5091 114.947 5.24515 115.163 4.93634 115.291C4.62754 115.419 4.28774 115.453 3.95991 115.388C3.63208 115.322 3.33095 115.161 3.0946 114.925C2.85825 114.689 2.69729 114.388 2.63208 114.06C2.56687 113.732 2.60034 113.392 2.72825 113.083C2.85616 112.774 3.07278 112.511 3.3507 112.325C3.62862 112.139 3.95536 112.04 4.28962 112.04C4.73783 112.04 5.16769 112.218 5.48462 112.535C5.80156 112.852 5.97961 113.282 5.97961 113.73Z" fill="#007DFF" fill-opacity="0.58"/>
<path d="M21.1798 113.73C21.1798 114.064 21.0807 114.391 20.895 114.669C20.7093 114.947 20.4453 115.163 20.1365 115.291C19.8277 115.419 19.4879 115.453 19.1601 115.388C18.8323 115.322 18.5311 115.161 18.2948 114.925C18.0584 114.689 17.8975 114.388 17.8323 114.06C17.7671 113.732 17.8005 113.392 17.9284 113.083C18.0564 112.774 18.273 112.511 18.5509 112.325C18.8288 112.139 19.1556 112.04 19.4898 112.04C19.938 112.04 20.3679 112.218 20.6848 112.535C21.0017 112.852 21.1798 113.282 21.1798 113.73Z" fill="#007DFF" fill-opacity="0.58"/>
<path d="M5.97961 127.26C5.97961 127.595 5.8805 127.921 5.6948 128.199C5.5091 128.477 5.24515 128.694 4.93634 128.822C4.62754 128.95 4.28774 128.983 3.95991 128.918C3.63208 128.853 3.33095 128.692 3.0946 128.455C2.85825 128.219 2.69729 127.918 2.63208 127.59C2.56687 127.262 2.60034 126.922 2.72825 126.614C2.85616 126.305 3.07278 126.041 3.3507 125.855C3.62862 125.669 3.95536 125.57 4.28962 125.57C4.51155 125.57 4.7313 125.614 4.93634 125.699C5.14138 125.784 5.32769 125.908 5.48462 126.065C5.64155 126.222 5.76604 126.409 5.85097 126.614C5.9359 126.819 5.97961 127.038 5.97961 127.26Z" fill="#007DFF" fill-opacity="0.58"/>
<path d="M21.1798 127.26C21.1798 127.595 21.0807 127.921 20.895 128.199C20.7093 128.477 20.4453 128.694 20.1365 128.822C19.8277 128.95 19.4879 128.983 19.1601 128.918C18.8323 128.853 18.5311 128.692 18.2948 128.455C18.0584 128.219 17.8975 127.918 17.8323 127.59C17.7671 127.262 17.8005 126.922 17.9284 126.614C18.0564 126.305 18.273 126.041 18.5509 125.855C18.8288 125.669 19.1556 125.57 19.4898 125.57C19.7117 125.57 19.9315 125.614 20.1365 125.699C20.3416 125.784 20.5279 125.908 20.6848 126.065C20.8417 126.222 20.9662 126.409 21.0512 126.614C21.1361 126.819 21.1798 127.038 21.1798 127.26Z" fill="#007DFF" fill-opacity="0.58"/>
<path d="M4.28961 142.45C5.22297 142.45 5.97961 141.694 5.97961 140.76C5.97961 139.827 5.22297 139.07 4.28961 139.07C3.35625 139.07 2.59961 139.827 2.59961 140.76C2.59961 141.694 3.35625 142.45 4.28961 142.45Z" fill="#007DFF" fill-opacity="0.58"/>
<path d="M19.4898 142.45C20.4232 142.45 21.1798 141.694 21.1798 140.76C21.1798 139.827 20.4232 139.07 19.4898 139.07C18.5564 139.07 17.7998 139.827 17.7998 140.76C17.7998 141.694 18.5564 142.45 19.4898 142.45Z" fill="#007DFF" fill-opacity="0.58"/>
<path d="M5.97961 154.26C5.97961 154.595 5.8805 154.921 5.6948 155.199C5.5091 155.477 5.24515 155.694 4.93634 155.822C4.62754 155.95 4.28774 155.983 3.95991 155.918C3.63208 155.853 3.33095 155.692 3.0946 155.455C2.85825 155.219 2.69729 154.918 2.63208 154.59C2.56687 154.262 2.60034 153.922 2.72825 153.614C2.85616 153.305 3.07278 153.041 3.3507 152.855C3.62862 152.669 3.95536 152.57 4.28962 152.57C4.73783 152.57 5.16769 152.748 5.48462 153.065C5.80156 153.382 5.97961 153.812 5.97961 154.26Z" fill="#007DFF" fill-opacity="0.58"/>
<path d="M21.1798 154.26C21.1798 154.595 21.0807 154.921 20.895 155.199C20.7093 155.477 20.4453 155.694 20.1365 155.822C19.8277 155.95 19.4879 155.983 19.1601 155.918C18.8323 155.853 18.5311 155.692 18.2948 155.455C18.0584 155.219 17.8975 154.918 17.8323 154.59C17.7671 154.262 17.8005 153.922 17.9284 153.614C18.0564 153.305 18.273 153.041 18.5509 152.855C18.8288 152.669 19.1556 152.57 19.4898 152.57C19.938 152.57 20.3679 152.748 20.6848 153.065C21.0017 153.382 21.1798 153.812 21.1798 154.26Z" fill="#007DFF" fill-opacity="0.58"/>
<path d="M5.97958 167.77C5.98156 168.105 5.88413 168.432 5.69964 168.711C5.51515 168.991 5.25191 169.209 4.94328 169.338C4.63465 169.468 4.29454 169.503 3.96605 169.439C3.63757 169.374 3.3355 169.214 3.09815 168.978C2.86079 168.742 2.69885 168.441 2.63282 168.113C2.5668 167.785 2.59968 167.445 2.72729 167.135C2.8549 166.826 3.0715 166.562 3.34963 166.375C3.62777 166.189 3.95491 166.09 4.28958 166.09C4.73607 166.09 5.16442 166.267 5.48107 166.581C5.79772 166.896 5.97694 167.323 5.97958 167.77Z" fill="#007DFF" fill-opacity="0.58"/>
<path d="M21.1798 167.77C21.1818 168.105 21.0843 168.432 20.8998 168.711C20.7153 168.991 20.4521 169.209 20.1435 169.338C19.8348 169.468 19.4947 169.503 19.1662 169.439C18.8378 169.374 18.5357 169.214 18.2983 168.978C18.061 168.742 17.899 168.441 17.833 168.113C17.767 167.785 17.7999 167.445 17.9275 167.135C18.0551 166.826 18.2717 166.562 18.5498 166.375C18.828 166.189 19.1551 166.09 19.4898 166.09C19.9363 166.09 20.3646 166.267 20.6813 166.581C20.9979 166.896 21.1771 167.323 21.1798 167.77Z" fill="#007DFF" fill-opacity="0.58"/>
<path d="M5.97961 181.26C5.97961 181.595 5.8805 181.921 5.6948 182.199C5.5091 182.477 5.24515 182.694 4.93634 182.822C4.62754 182.95 4.28774 182.983 3.95991 182.918C3.63208 182.853 3.33095 182.692 3.0946 182.455C2.85825 182.219 2.69729 181.918 2.63208 181.59C2.56687 181.262 2.60034 180.922 2.72825 180.614C2.85616 180.305 3.07278 180.041 3.3507 179.855C3.62862 179.669 3.95536 179.57 4.28962 179.57C4.51155 179.57 4.7313 179.614 4.93634 179.699C5.14138 179.784 5.32769 179.908 5.48462 180.065C5.64155 180.222 5.76604 180.409 5.85097 180.614C5.9359 180.819 5.97961 181.038 5.97961 181.26Z" fill="#007DFF" fill-opacity="0.58"/>
<path d="M21.1798 181.26C21.1798 181.595 21.0807 181.921 20.895 182.199C20.7093 182.477 20.4453 182.694 20.1365 182.822C19.8277 182.95 19.4879 182.983 19.1601 182.918C18.8323 182.853 18.5311 182.692 18.2948 182.455C18.0584 182.219 17.8975 181.918 17.8323 181.59C17.7671 181.262 17.8005 180.922 17.9284 180.614C18.0564 180.305 18.273 180.041 18.5509 179.855C18.8288 179.669 19.1556 179.57 19.4898 179.57C19.7117 179.57 19.9315 179.614 20.1365 179.699C20.3416 179.784 20.5279 179.908 20.6848 180.065C20.8417 180.222 20.9662 180.409 21.0512 180.614C21.1361 180.819 21.1798 181.038 21.1798 181.26Z" fill="#007DFF" fill-opacity="0.58"/>
<path d="M4.28961 196.49C5.22297 196.49 5.97961 195.734 5.97961 194.8C5.97961 193.867 5.22297 193.11 4.28961 193.11C3.35625 193.11 2.59961 193.867 2.59961 194.8C2.59961 195.734 3.35625 196.49 4.28961 196.49Z" fill="#007DFF" fill-opacity="0.58"/>
<path d="M19.4898 196.49C20.4232 196.49 21.1798 195.734 21.1798 194.8C21.1798 193.867 20.4232 193.11 19.4898 193.11C18.5564 193.11 17.7998 193.867 17.7998 194.8C17.7998 195.734 18.5564 196.49 19.4898 196.49Z" fill="#007DFF" fill-opacity="0.58"/>
<path d="M5.97961 208.31C5.97961 208.644 5.8805 208.971 5.6948 209.249C5.5091 209.527 5.24515 209.744 4.93634 209.871C4.62754 209.999 4.28774 210.033 3.95991 209.968C3.63208 209.902 3.33095 209.741 3.0946 209.505C2.85825 209.269 2.69729 208.968 2.63208 208.64C2.56687 208.312 2.60034 207.972 2.72825 207.663C2.85616 207.355 3.07278 207.091 3.3507 206.905C3.62862 206.719 3.95536 206.62 4.28962 206.62C4.51155 206.62 4.7313 206.664 4.93634 206.749C5.14138 206.834 5.32769 206.958 5.48462 207.115C5.64155 207.272 5.76604 207.458 5.85097 207.663C5.9359 207.868 5.97961 208.088 5.97961 208.31Z" fill="#007DFF" fill-opacity="0.58"/>
<path d="M21.1798 208.31C21.1798 208.644 21.0807 208.971 20.895 209.249C20.7093 209.527 20.4453 209.744 20.1365 209.871C19.8277 209.999 19.4879 210.033 19.1601 209.968C18.8323 209.902 18.5311 209.741 18.2948 209.505C18.0584 209.269 17.8975 208.968 17.8323 208.64C17.7671 208.312 17.8005 207.972 17.9284 207.663C18.0564 207.355 18.273 207.091 18.5509 206.905C18.8288 206.719 19.1556 206.62 19.4898 206.62C19.7117 206.62 19.9315 206.664 20.1365 206.749C20.3416 206.834 20.5279 206.958 20.6848 207.115C20.8417 207.272 20.9662 207.458 21.0512 207.663C21.1361 207.868 21.1798 208.088 21.1798 208.31Z" fill="#007DFF" fill-opacity="0.58"/>
<path d="M274.44 408.49C274.44 408.49 274.44 408.55 274.44 408.59C274.445 408.557 274.445 408.523 274.44 408.49Z" fill="#81A9E6"/>
<path d="M281.71 425.94H281.46C281.46 425.66 281.75 425.84 281.67 425.59C281.31 425.51 281.67 425.16 281.5 425.08C281.5 425.08 281.5 424.96 281.65 424.96C281.45 424.96 281.6 424.84 281.54 424.76C281.48 424.68 281.48 424.76 281.43 424.76L281.35 424.58C281.41 424.51 281.52 424.48 281.55 424.58C281.63 423.498 281.63 422.412 281.55 421.33C281.4 421.4 281.55 421.55 281.27 421.62C281.14 421.49 281.27 421.42 281.17 421.36C281.52 421.3 281.24 421.06 281.59 420.96H281.39L281.51 420.89C281.31 420.3 281.41 420.76 281.46 420.23C281.46 419.92 281.16 419.78 281.26 419.61C281.26 419.61 281.14 419.71 281.09 419.61C281.26 419.61 280.96 419.4 281.14 419.36C281.14 419.28 281.14 419.03 280.9 419.11C281.02 419.11 281.07 418.85 281.17 418.98C281.17 418.9 281.17 418.83 281.17 418.78L281.11 418.87C281.11 418.62 281.25 418.48 281.04 418.31L280.95 418.41C280.95 418.25 280.95 418.12 281.15 418.06L281.22 418.22C281.236 418.004 281.187 417.788 281.08 417.6V417.68C280.85 417.41 280.66 415.99 280.37 415.74L280.18 415.85L280.03 415.64C280.03 415.64 280.62 415.75 280.56 415.77C280.49 414.68 280.51 413.586 280.62 412.5C280.73 412.33 280.91 412.5 280.94 412.5C280.88 412.29 280.75 412.41 280.77 412.23C280.79 412.05 280.92 412.23 280.94 412.23C280.96 412.23 280.99 412.09 280.94 412.08C280.89 412.07 280.65 412.08 280.5 412.16V411.93H280.64C280.64 411.88 280.26 411.78 280.34 411.56C280.42 411.19 280.39 410.78 280.44 410.4C280.52 410.4 280.57 410.49 280.61 410.57C280.65 410.65 280.61 410.44 280.66 410.4C280.51 410.48 280.57 410.24 280.5 410.3C280.17 410.01 280.5 409.66 280.28 409.41C279.96 409.41 274.93 408.57 274.56 408.54C274.56 408.46 274.56 408.38 274.61 408.36C274.66 408.34 274.48 408.53 274.52 408.61H274.72C274.78 408.8 274.6 408.61 274.61 408.83C274.44 408.83 274.42 408.66 274.41 408.51C274.41 408.64 274.26 408.77 274.41 408.84C274.34 408.96 274.22 408.84 274.14 408.96C274.06 409.08 274.34 409.23 274.24 409.35C274.06 409.65 274.46 409.83 274.29 410.1H274.23C274.14 410.19 274.23 410.39 274.15 410.57C274.15 410.52 274.3 410.48 274.32 410.57C274.34 410.66 274.32 410.91 274.17 411.06L274.32 411.21C274.27 411.92 274.32 414.74 274.41 415.45C274.49 416.54 274.47 418.77 274.69 419.89C274.53 420.07 274.56 420.31 274.52 420.49C274.59 420.39 274.7 420.42 274.69 420.49C274.69 421.04 274.79 420.49 274.87 421.08C275.01 422.306 275.01 423.544 274.87 424.77C275.11 425.07 274.95 425.46 275.11 425.77H275.05C275.087 426.186 275.087 426.604 275.05 427.02C275.041 427.455 275.071 427.89 275.14 428.32V428.26C275.31 428.58 275.06 428.56 275 428.83C275.26 428.77 275.43 429.04 275.47 429.15H275.41C275.557 429.396 275.684 429.654 275.79 429.92H275.71C275.89 430.13 275.87 430.56 275.9 430.72C275.765 431.194 275.765 431.696 275.9 432.17L275.53 432.54C275.53 432.54 280.43 432.36 281.4 431.61H281.55V431.5C281.55 431.35 281.43 431.3 281.55 431.29V431.49C281.55 431.34 281.67 431.43 281.75 431.49C281.755 431.426 281.776 431.364 281.81 431.31C281.75 431.31 281.75 431.31 281.72 431.37C281.69 431.43 281.52 431.21 281.58 431.1C281.64 430.99 281.81 431.1 281.81 430.89C281.88 429.991 281.88 429.089 281.81 428.19C281.87 428.19 281.87 428.19 281.9 428.19C281.81 427.92 281.81 427.68 281.72 427.43C281.774 427.372 281.844 427.331 281.92 427.31C281.8 427.41 281.71 425.97 281.71 425.94Z" fill="#81A9E6"/>
<path d="M299.8 357.461C299.95 357.381 299.95 357.251 299.97 357.141C299.83 357.241 299.77 357.351 299.8 357.461Z" fill="#81A9E6"/>
<path d="M292.63 334.16V334.26C292.64 334.228 292.64 334.193 292.63 334.16Z" fill="#81A9E6"/>
<path d="M299.93 351.57H299.71C299.71 351.3 300 351.47 299.93 351.22C299.56 351.14 299.93 350.8 299.75 350.72C299.75 350.72 299.75 350.59 299.9 350.6C299.7 350.6 299.9 350.47 299.8 350.39C299.7 350.31 299.74 350.39 299.68 350.39L299.61 350.21C299.67 350.14 299.78 350.12 299.81 350.21C299.895 349.128 299.895 348.042 299.81 346.96C299.66 347.03 299.81 347.19 299.54 347.25C299.4 347.12 299.54 347.05 299.44 346.99C299.78 346.94 299.51 346.7 299.86 346.59H299.66L299.78 346.53C299.57 345.93 299.68 346.39 299.73 345.86C299.73 345.56 299.42 345.41 299.52 345.24C299.52 345.24 299.4 345.34 299.35 345.24C299.52 345.24 299.23 345.03 299.4 344.99C299.4 344.91 299.4 344.66 299.17 344.75C299.29 344.7 299.34 344.48 299.44 344.61C299.44 344.53 299.44 344.46 299.44 344.41L299.37 344.5C299.37 344.25 299.52 344.11 299.31 343.94L299.21 344.04C299.21 343.89 299.21 343.76 299.42 343.7L299.49 343.85C299.502 343.636 299.45 343.424 299.34 343.24V343.31C299.1 343.04 298.92 341.63 298.62 341.37L298.44 341.49L298.29 341.27C298.29 341.27 298.88 341.38 298.82 341.4C298.745 340.314 298.765 339.223 298.88 338.14C298.99 337.97 299.17 338.14 299.19 338.14C299.19 337.93 299.01 338.04 299.03 337.87C299.05 337.7 299.17 337.87 299.2 337.87C299.23 337.87 299.2 337.72 299.2 337.71C299.2 337.7 298.91 337.71 298.76 337.79V337.57H298.9C298.9 337.52 298.51 337.43 298.6 337.2C298.69 336.97 298.6 336.42 298.69 336.04C298.78 336.04 298.82 336.13 298.87 336.22C298.87 336.16 298.87 336.09 298.92 336.04C298.77 336.13 298.83 335.88 298.76 335.95C298.43 335.65 298.76 335.31 298.53 335.05C298.22 335.05 293.19 334.21 292.82 334.18C292.82 334.117 292.837 334.054 292.87 334C292.847 334.011 292.826 334.026 292.808 334.045C292.791 334.064 292.778 334.086 292.769 334.111C292.761 334.135 292.758 334.161 292.759 334.186C292.761 334.212 292.768 334.237 292.78 334.26H292.98C293.04 334.46 292.86 334.26 292.86 334.49C292.7 334.49 292.67 334.32 292.66 334.16C292.66 334.3 292.52 334.43 292.66 334.49C292.59 334.62 292.46 334.49 292.39 334.62C292.32 334.75 292.58 334.88 292.48 335C292.3 335.29 292.71 335.48 292.53 335.75H292.48C292.38 335.85 292.48 336.05 292.39 336.22C292.39 336.17 292.55 336.13 292.56 336.22C292.57 336.31 292.56 336.57 292.42 336.71L292.57 336.86C292.52 337.57 292.57 340.39 292.65 341.1C292.72 342.19 292.7 344.42 292.92 345.55C292.76 345.72 292.8 345.96 292.76 346.14C292.82 346.04 292.93 346.08 292.93 346.14C292.93 346.69 293.03 346.14 293.11 346.74C293.255 347.966 293.255 349.204 293.11 350.43C293.36 350.72 293.2 351.12 293.36 351.43H293.3C293.337 351.846 293.337 352.264 293.3 352.68C293.286 353.115 293.316 353.551 293.39 353.98C293.56 354.3 293.3 354.27 293.25 354.54C293.51 354.48 293.68 354.76 293.71 354.86H293.65C293.798 355.109 293.925 355.37 294.03 355.64H293.89C294.06 355.85 294.04 356.28 294.07 356.44C293.945 356.912 293.945 357.408 294.07 357.88L293.71 358.16H293.76C293.76 358.16 298.65 357.99 299.63 357.24H299.77V357.12C299.83 356.97 299.66 356.92 299.77 356.92V357.16C299.77 357.02 299.88 357.11 299.97 357.16C299.975 357.099 299.996 357.04 300.03 356.99C299.97 356.99 299.97 356.99 299.94 357.04C299.91 357.09 299.74 356.88 299.8 356.78C299.86 356.68 300.02 356.78 300.02 356.57C300.095 355.668 300.095 354.762 300.02 353.86C300.07 353.86 300.08 353.86 300.1 353.86C300.02 353.59 300.01 353.34 299.93 353.1C299.98 353.02 300.07 353 300.12 352.97C299.98 353.03 299.88 351.6 299.93 351.57Z" fill="#81A9E6"/>
<path d="M335.1 364.271C335.157 364.254 335.206 364.22 335.242 364.173C335.278 364.126 335.298 364.07 335.3 364.011C335.15 364.081 335.09 364.161 335.1 364.271Z" fill="#81A9E6"/>
<path d="M328.94 344.16C328.94 344.16 328.94 344.21 328.94 344.24C328.945 344.214 328.945 344.187 328.94 344.16Z" fill="#81A9E6"/>
<path d="M335.89 359.1H335.64C335.64 358.86 335.93 359.04 335.88 358.81C335.52 358.71 335.88 358.44 335.73 358.36C335.73 358.36 335.78 358.25 335.89 358.26C335.69 358.26 335.89 358.15 335.8 358.08C335.71 358.01 335.74 358.08 335.68 358.08L335.61 357.92C335.68 357.86 335.79 357.85 335.82 357.92C335.981 356.982 336.061 356.032 336.06 355.08C335.91 355.14 336 355.27 335.77 355.32C335.64 355.21 335.82 355.15 335.68 355.1C336.03 355.1 335.77 354.84 336.13 354.76H335.93L336.05 354.7C335.86 354.19 335.96 354.58 336.05 354.13C336.05 353.88 335.76 353.75 335.87 353.61C335.87 353.61 335.74 353.68 335.69 353.61C335.87 353.61 335.57 353.43 335.75 353.4C335.75 353.34 335.75 353.12 335.52 353.19C335.64 353.19 335.69 352.97 335.79 353.08C335.79 353.02 335.79 352.96 335.79 352.91L335.72 352.99C335.72 352.78 335.88 352.67 335.67 352.52L335.57 352.6C335.57 352.47 335.57 352.36 335.78 352.32L335.85 352.45C335.868 352.267 335.822 352.083 335.72 351.93V351.99C335.49 351.76 335.33 350.57 335.05 350.36L334.86 350.45L334.71 350.26C334.71 350.26 335.3 350.37 335.24 350.38C335.17 349.468 335.17 348.552 335.24 347.64C335.35 347.5 335.53 347.64 335.56 347.64C335.5 347.47 335.37 347.56 335.39 347.41C335.41 347.26 335.53 347.41 335.56 347.41C335.59 347.41 335.56 347.29 335.56 347.28C335.56 347.27 335.26 347.28 335.12 347.34V347.15H335.26C335.26 347.15 334.88 347.03 334.96 346.85C335.04 346.67 334.96 346.19 335.03 345.85C335.12 345.85 335.16 345.93 335.21 346C335.26 346.07 335.21 345.89 335.21 345.85C335.06 345.92 335.11 345.72 335.05 345.77C334.71 345.52 335.05 345.24 334.8 345.02L329.08 344.23C329.08 344.17 329.08 344.1 329.13 344.09C329.109 344.094 329.09 344.104 329.074 344.118C329.058 344.131 329.045 344.149 329.037 344.169C329.029 344.188 329.026 344.21 329.029 344.231C329.031 344.252 329.038 344.272 329.05 344.29H329.24C329.31 344.45 329.12 344.29 329.13 344.47C328.97 344.47 328.94 344.33 328.93 344.2C328.93 344.31 328.78 344.42 328.93 344.47C328.86 344.58 328.73 344.47 328.66 344.58C328.59 344.69 328.86 344.8 328.76 344.9C328.59 345.15 329 345.3 328.83 345.53H328.77C328.68 345.6 328.77 345.77 328.69 345.92C328.69 345.92 328.84 345.85 328.86 345.92C328.88 345.99 328.86 346.21 328.72 346.33L328.88 346.45C328.83 347.04 328.99 349.39 329 349.98C328.986 351.212 329.046 352.445 329.18 353.67C329.02 353.81 329.05 354.02 329 354.17C329.07 354.08 329.18 354.11 329.17 354.17C329.17 354.61 329.28 354.17 329.33 354.65C329.394 355.656 329.317 356.666 329.1 357.65C329.32 357.9 329.1 358.21 329.27 358.45H329.22C329.3 358.71 329.05 360.18 329.12 360.45C329.26 360.72 329.01 360.67 328.92 360.88C329.014 360.876 329.106 360.903 329.182 360.958C329.258 361.012 329.314 361.09 329.34 361.18H329.29C329.398 361.39 329.492 361.607 329.57 361.83H329.43C329.58 362.01 329.5 362.35 329.52 362.48C329.45 362.77 329.19 363.21 329.37 363.61L328.95 363.84C328.95 363.84 333.83 364.56 334.88 364.09H335.03V363.99C335.1 363.86 334.94 363.79 335.08 363.81V363.98C335.13 363.86 335.2 363.98 335.28 363.98C335.287 363.924 335.311 363.871 335.35 363.83C335.3 363.83 335.29 363.83 335.26 363.83C335.23 363.83 335.09 363.65 335.15 363.57C335.21 363.49 335.38 363.57 335.4 363.42C335.567 362.677 335.67 361.921 335.71 361.16C335.77 361.16 335.77 361.16 335.8 361.16C335.74 360.91 335.8 360.69 335.71 360.47C335.774 360.427 335.845 360.396 335.92 360.38C335.84 360.39 335.86 359.16 335.89 359.1Z" fill="#81A9E6"/>
<path d="M315.21 375.42C315.267 375.403 315.316 375.369 315.352 375.323C315.388 375.276 315.409 375.219 315.41 375.16C315.26 375.23 315.2 375.31 315.21 375.42Z" fill="#81A9E6"/>
<path d="M309.05 355.34C309.045 355.37 309.045 355.4 309.05 355.43C309.055 355.4 309.055 355.37 309.05 355.34Z" fill="#81A9E6"/>
<path d="M316 372.26H315.75C315.75 372.02 316.04 372.2 315.98 371.98C315.62 371.88 316.03 371.61 315.84 371.52C315.84 371.52 315.84 371.42 316 371.43C315.8 371.43 316 371.31 315.91 371.24C315.82 371.17 315.85 371.24 315.79 371.24L315.72 371.08C315.79 371.02 315.9 371.01 315.92 371.08C316.089 370.146 316.173 369.199 316.17 368.25C316.01 368.25 316.11 368.44 315.88 368.49C315.75 368.37 315.93 368.32 315.79 368.26C316.14 368.26 315.88 368.01 316.23 367.92H316.04L316.16 367.87C315.97 367.35 316.06 367.74 316.16 367.3C316.16 367.04 315.87 366.92 315.98 366.78C315.98 366.78 315.85 366.85 315.8 366.78C315.98 366.78 315.68 366.6 315.86 366.58C315.86 366.51 315.86 366.3 315.63 366.37C315.75 366.37 315.8 366.15 315.9 366.26C315.9 366.2 315.95 366.14 315.9 366.09L315.84 366.17C315.84 365.95 315.99 365.84 315.78 365.7L315.69 365.77C315.69 365.65 315.69 365.54 315.9 365.49L315.97 365.62C315.987 365.437 315.941 365.254 315.84 365.1V365.16C315.61 364.93 315.45 363.74 315.16 363.52L314.98 363.61L314.83 363.43C314.83 363.43 315.42 363.53 315.36 363.55C315.29 362.638 315.29 361.722 315.36 360.81C315.46 360.67 315.65 360.81 315.68 360.81C315.61 360.63 315.49 360.73 315.51 360.58C315.53 360.43 315.65 360.58 315.67 360.58C315.69 360.58 315.72 360.45 315.67 360.45C315.62 360.45 315.38 360.45 315.24 360.51V360.31H315.38C315.38 360.31 315 360.18 315.08 360C315.16 359.82 315.08 359.34 315.15 359C315.24 359 315.28 359.09 315.33 359.15C315.38 359.21 315.33 359.04 315.38 359.01C315.23 359.08 315.28 358.87 315.22 358.93C314.88 358.67 315.22 358.39 314.97 358.17L309.25 357.39C309.25 357.32 309.25 357.26 309.3 357.24C309.279 357.247 309.26 357.257 309.244 357.272C309.228 357.287 309.215 357.304 309.207 357.324C309.198 357.344 309.194 357.366 309.195 357.388C309.195 357.409 309.2 357.431 309.21 357.45H309.41C309.48 357.61 309.29 357.45 309.3 357.64C309.14 357.64 309.11 357.49 309.1 357.37C309.1 357.48 308.95 357.58 309.1 357.64C309.03 357.74 308.9 357.64 308.83 357.74C308.76 357.84 309.03 357.96 308.93 358.06C308.76 358.3 309.17 358.46 308.99 358.68H308.94C308.84 358.76 308.94 358.93 308.86 359.07C308.86 359.07 309.01 359 309.03 359.07C309.05 359.14 309.03 359.35 308.89 359.47L309.05 359.6C309 360.19 309.16 362.53 309.17 363.13C309.164 364.366 309.228 365.601 309.36 366.83C309.2 366.97 309.23 367.17 309.18 367.32C309.25 367.24 309.36 367.32 309.35 367.32C309.35 367.77 309.46 367.32 309.51 367.81C309.577 368.817 309.496 369.827 309.27 370.81C309.5 371.07 309.27 371.37 309.45 371.62H309.4C309.48 371.89 309.22 373.35 309.3 373.62C309.44 373.89 309.19 373.84 309.1 374.04C309.194 374.04 309.285 374.07 309.361 374.126C309.437 374.182 309.492 374.26 309.52 374.35H309.46C309.577 374.561 309.675 374.781 309.75 375.01H309.61C309.76 375.2 309.68 375.53 309.69 375.66C309.63 375.95 309.37 376.39 309.54 376.8L309.13 377.03C309.13 377.03 314.01 377.74 315.06 377.27H315.2V377.16C315.27 377.04 315.11 376.97 315.2 376.99V377.16C315.2 377.04 315.32 377.16 315.39 377.16C315.407 377.108 315.434 377.061 315.47 377.02C315.47 377.02 315.41 377.02 315.38 377.02C315.35 377.02 315.2 376.85 315.27 376.77C315.34 376.69 315.5 376.77 315.52 376.62C315.693 375.834 315.797 375.034 315.83 374.23C315.89 374.23 315.89 374.23 315.91 374.23C315.86 373.99 315.91 373.77 315.83 373.54C315.895 373.5 315.966 373.469 316.04 373.45C315.94 373.55 315.97 372.28 316 372.26Z" fill="#81A9E6"/>
<path d="M312.2 419.89C312.256 419.86 312.303 419.817 312.338 419.765C312.373 419.713 312.394 419.652 312.4 419.59C312.25 419.67 312.18 419.76 312.2 419.89Z" fill="#81A9E6"/>
<path d="M306.23 396.641V396.741C306.24 396.708 306.24 396.673 306.23 396.641Z" fill="#81A9E6"/>
<path d="M313.02 413.91H312.77C312.77 413.63 313.06 413.84 313.01 413.58C312.65 413.47 313.06 413.15 312.87 413.06C312.87 413.06 312.87 412.94 313.02 412.95C312.83 412.95 313.02 412.82 312.93 412.74C312.84 412.66 312.88 412.74 312.81 412.74L312.75 412.56C312.82 412.49 312.93 412.48 312.95 412.56C313.122 411.475 313.209 410.378 313.21 409.28C313.06 409.34 313.16 409.5 312.92 409.56C312.79 409.42 312.97 409.36 312.84 409.3C313.19 409.3 312.93 409 313.29 408.91H313.09L313.21 408.85C313.03 408.26 313.12 408.71 313.21 408.2C313.21 407.89 312.92 407.74 313.03 407.58C313.03 407.58 312.91 407.67 312.86 407.58C313.03 407.58 312.74 407.37 312.92 407.34C312.92 407.26 312.92 407.01 312.69 407.09C312.81 407.09 312.86 406.84 312.96 406.97C312.96 406.89 312.96 406.82 312.96 406.77L312.89 406.86C312.89 406.61 313.05 406.48 312.89 406.31L312.8 406.4C312.8 406.25 312.8 406.12 313.01 406.07L313.08 406.23C313.1 406.018 313.054 405.805 312.95 405.62V405.69C312.73 405.42 312.58 404.03 312.3 403.78L312.11 403.88L311.97 403.67C311.97 403.67 312.55 403.79 312.49 403.81C312.446 402.746 312.473 401.68 312.57 400.62C312.68 400.45 312.86 400.62 312.89 400.62C312.83 400.41 312.7 400.53 312.72 400.35C312.74 400.17 312.86 400.35 312.89 400.4C312.92 400.45 312.89 400.25 312.89 400.24C312.89 400.23 312.59 400.24 312.45 400.32V400.09H312.59C312.59 400.09 312.2 399.94 312.29 399.73C312.36 399.36 312.29 398.96 312.37 398.59C312.46 398.59 312.5 398.69 312.55 398.77C312.6 398.85 312.55 398.64 312.6 398.6C312.45 398.68 312.5 398.43 312.44 398.5C312.1 398.21 312.44 397.88 312.2 397.62C311.89 397.62 306.86 396.79 306.49 396.76C306.49 396.69 306.49 396.61 306.54 396.59C306.517 396.599 306.496 396.614 306.479 396.632C306.462 396.65 306.448 396.671 306.44 396.695C306.432 396.719 306.428 396.744 306.43 396.768C306.432 396.793 306.438 396.818 306.45 396.84H306.65C306.71 397.03 306.53 396.84 306.54 397.06C306.37 397.06 306.34 396.89 306.33 396.75C306.33 396.87 306.19 397 306.33 397.06C306.26 397.18 306.13 397.06 306.06 397.18C305.99 397.3 306.26 397.43 306.16 397.55C305.98 397.84 306.39 398.01 306.22 398.27H306.16C306.06 398.36 306.16 398.55 306.08 398.72C306.08 398.72 306.23 398.63 306.25 398.72C306.27 398.81 306.25 399.05 306.1 399.18L306.26 399.33C306.2 400.01 306.34 402.71 306.34 403.4C306.39 404.4 306.34 406.58 306.48 407.67C306.32 407.83 306.35 408.06 306.3 408.23C306.37 408.14 306.48 408.17 306.47 408.23C306.47 408.76 306.57 408.23 306.62 408.8C306.677 409.96 306.59 411.122 306.36 412.26C306.59 412.56 306.36 412.91 306.54 413.2H306.48C306.56 413.5 306.3 415.2 306.37 415.57V415.52C306.51 415.84 306.25 415.78 306.17 416.02C306.269 416.022 306.365 416.058 306.441 416.122C306.517 416.185 306.57 416.273 306.59 416.37H306.53C306.644 416.615 306.737 416.869 306.81 417.13H306.67C306.82 417.35 306.74 417.74 306.75 417.89C306.571 418.305 306.516 418.764 306.59 419.21L306.18 419.48C306.18 419.48 311.05 420.26 312.11 419.71H312.25V419.59C312.32 419.45 312.16 419.37 312.25 419.39V419.59C312.25 419.44 312.36 419.59 312.44 419.59C312.454 419.531 312.482 419.476 312.52 419.43C312.52 419.43 312.46 419.43 312.43 419.43C312.4 419.43 312.25 419.22 312.32 419.13C312.39 419.04 312.55 419.13 312.57 418.96C312.75 418.05 312.86 417.127 312.9 416.2C312.96 416.2 312.96 416.2 312.98 416.2C312.93 415.91 312.98 415.66 312.9 415.4C312.963 415.345 313.039 415.308 313.12 415.29C312.96 415.4 312.99 413.93 313.02 413.91Z" fill="#81A9E6"/>
<path d="M269.54 381.561C269.7 381.501 269.72 381.381 269.75 381.261C269.6 381.341 269.53 381.431 269.54 381.561Z" fill="#81A9E6"/>
<path d="M263.57 358.311C263.576 358.344 263.576 358.377 263.57 358.411C263.578 358.395 263.581 358.378 263.581 358.361C263.581 358.343 263.578 358.326 263.57 358.311Z" fill="#81A9E6"/>
<path d="M270.37 375.58H270.11C270.11 375.3 270.41 375.51 270.35 375.25C269.99 375.13 270.4 374.82 270.21 374.72C270.21 374.72 270.26 374.6 270.37 374.61C270.17 374.61 270.37 374.48 270.28 374.4C270.19 374.32 270.22 374.4 270.16 374.4L270.1 374.21C270.16 374.14 270.28 374.13 270.3 374.21C270.468 373.125 270.555 372.029 270.56 370.93C270.41 370.99 270.5 371.16 270.27 371.21C270.14 371.07 270.32 371.01 270.18 370.95C270.53 370.95 270.28 370.66 270.63 370.57H270.44L270.56 370.51C270.38 369.92 270.46 370.38 270.56 369.86C270.56 369.56 270.27 369.41 270.38 369.24C270.38 369.24 270.25 369.33 270.2 369.24C270.38 369.24 270.09 369.03 270.26 369C270.26 368.92 270.26 368.68 270.04 368.75C270.15 368.75 270.21 368.5 270.31 368.63C270.31 368.56 270.36 368.49 270.31 368.43L270.25 368.53C270.25 368.27 270.41 368.14 270.2 367.97L270.1 368.06C270.1 367.91 270.1 367.79 270.32 367.74L270.38 367.89C270.403 367.679 270.361 367.467 270.26 367.28V367.36C270.03 367.08 269.89 365.7 269.6 365.44L269.42 365.55L269.28 365.33C269.28 365.33 269.86 365.46 269.8 365.47C269.756 364.406 269.783 363.341 269.88 362.28C269.98 362.11 270.17 362.28 270.19 362.28C270.13 362.07 270 362.18 270.03 362.01C270.06 361.84 270.17 362.01 270.19 362.01C270.21 362.01 270.24 361.87 270.19 361.86C270.14 361.85 269.9 361.86 269.76 361.93V361.71H269.9C269.9 361.66 269.52 361.57 269.6 361.36C269.68 360.99 269.6 360.59 269.69 360.22C269.77 360.22 269.82 360.31 269.87 360.39C269.92 360.47 269.87 360.26 269.92 360.22C269.76 360.3 269.82 360.06 269.76 360.12C269.42 359.84 269.76 359.5 269.52 359.25C269.21 359.25 264.18 358.41 263.8 358.39C263.8 358.31 263.8 358.24 263.8 358.22C263.8 358.2 263.67 358.38 263.72 358.46H263.92C263.98 358.64 263.8 358.46 263.8 358.67C263.64 358.67 263.61 358.5 263.6 358.36C263.6 358.49 263.45 358.61 263.6 358.67C263.53 358.79 263.4 358.67 263.33 358.79C263.26 358.91 263.53 359.04 263.42 359.16C263.24 359.44 263.65 359.62 263.47 359.88H263.42C263.32 359.97 263.42 360.16 263.33 360.33C263.33 360.33 263.49 360.25 263.5 360.33C263.51 360.41 263.5 360.66 263.36 360.8L263.52 360.94C263.46 361.62 263.59 364.33 263.59 365.01C263.59 366.01 263.59 368.2 263.73 369.28C263.56 369.44 263.59 369.67 263.55 369.84C263.61 369.75 263.72 369.84 263.72 369.84C263.72 370.37 263.82 369.84 263.87 370.42C263.921 371.58 263.834 372.741 263.61 373.88C263.83 374.17 263.61 374.52 263.79 374.81H263.73C263.81 375.12 263.54 376.81 263.62 377.18C263.75 377.49 263.5 377.44 263.42 377.68C263.68 377.68 263.82 377.93 263.83 378.03H263.78C263.89 378.277 263.983 378.531 264.06 378.79H263.92C264.06 379 263.99 379.39 264 379.54C263.822 379.959 263.766 380.421 263.84 380.87L263.43 381.14V381.19C263.43 381.19 268.3 381.96 269.36 381.41H269.5V381.28C269.58 381.14 269.41 381.07 269.56 381.08V381.28C269.61 381.14 269.68 381.28 269.76 381.28C269.768 381.217 269.796 381.157 269.84 381.11C269.78 381.11 269.78 381.11 269.75 381.11C269.72 381.11 269.57 380.91 269.64 380.82C269.71 380.73 269.87 380.82 269.89 380.64C270.071 379.73 270.181 378.807 270.22 377.88C270.28 377.88 270.27 377.88 270.3 377.88C270.24 377.59 270.3 377.34 270.22 377.08C270.279 377.027 270.352 376.993 270.43 376.98C270.3 377.08 270.34 375.61 270.37 375.58Z" fill="#81A9E6"/>
<path d="M373.49 384.79C373.65 384.73 373.67 384.6 373.7 384.49C373.55 384.57 373.48 384.66 373.49 384.79Z" fill="#81A9E6"/>
<path d="M367.53 361.54V361.64C367.54 361.607 367.54 361.573 367.53 361.54Z" fill="#81A9E6"/>
<path d="M374.32 378.81H374.07C374.07 378.52 374.36 378.74 374.31 378.47C373.95 378.36 374.31 378.05 374.16 377.95C374.16 377.95 374.21 377.83 374.32 377.84C374.13 377.84 374.32 377.71 374.23 377.63C374.14 377.55 374.17 377.63 374.11 377.63L374.05 377.44C374.11 377.37 374.23 377.36 374.25 377.44C374.423 376.356 374.51 375.259 374.51 374.16C374.36 374.22 374.46 374.38 374.22 374.44C374.09 374.3 374.27 374.24 374.13 374.18C374.48 374.18 374.23 373.89 374.58 373.79H374.39L374.51 373.73C374.33 373.14 374.42 373.59 374.51 373.08C374.51 372.78 374.22 372.63 374.33 372.46C374.33 372.46 374.2 372.55 374.16 372.46C374.33 372.46 374.04 372.25 374.22 372.22C374.22 372.14 374.22 371.9 373.99 371.97C374.11 371.97 374.16 371.72 374.26 371.85C374.26 371.78 374.31 371.71 374.26 371.65L374.19 371.74C374.19 371.49 374.35 371.36 374.14 371.19L374.04 371.28C374.04 371.13 374.04 371 374.26 370.95L374.32 371.11C374.346 370.9 374.304 370.686 374.2 370.5V370.57C373.98 370.3 373.83 368.92 373.55 368.66L373.36 368.76L373.22 368.55C373.22 368.55 373.8 368.67 373.74 368.69C373.696 367.627 373.723 366.561 373.82 365.5C373.92 365.33 374.11 365.5 374.14 365.5C374.07 365.3 373.95 365.41 373.97 365.23C373.99 365.05 374.11 365.23 374.13 365.28C374.15 365.33 374.18 365.14 374.13 365.13C374.08 365.12 373.83 365.13 373.69 365.2V364.98H373.84C373.84 364.98 373.45 364.84 373.53 364.62C373.61 364.4 373.53 363.85 373.62 363.48C373.7 363.48 373.75 363.58 373.8 363.66C373.85 363.74 373.8 363.53 373.8 363.49C373.65 363.57 373.7 363.33 373.64 363.39C373.3 363.1 373.64 362.77 373.4 362.52C373.09 362.52 368.06 361.68 367.69 361.66C367.675 361.601 367.675 361.539 367.69 361.48C367.667 361.49 367.646 361.504 367.629 361.523C367.612 361.541 367.599 361.562 367.59 361.586C367.582 361.609 367.578 361.634 367.58 361.659C367.582 361.684 367.589 361.708 367.6 361.73H367.8C367.86 361.92 367.68 361.73 367.68 361.95C367.52 361.95 367.49 361.78 367.48 361.64C367.48 361.76 367.33 361.89 367.48 361.95C367.41 362.07 367.28 361.95 367.21 362.07C367.14 362.19 367.41 362.32 367.31 362.44C367.13 362.73 367.54 362.9 367.36 363.16H367.31C367.21 363.25 367.31 363.44 367.23 363.61C367.23 363.61 367.38 363.52 367.39 363.61C367.4 363.7 367.39 363.94 367.25 364.07L367.41 364.22C367.35 364.9 367.48 367.6 367.49 368.29C367.49 369.29 367.49 371.47 367.63 372.56C367.47 372.72 367.5 372.95 367.45 373.12C367.51 373.03 367.63 373.06 367.62 373.12C367.62 373.65 367.72 373.12 367.77 373.7C367.827 374.857 367.739 376.016 367.51 377.15C367.73 377.45 367.51 377.8 367.69 378.09H367.63C367.71 378.4 367.44 380.09 367.52 380.46C367.66 380.78 367.4 380.72 367.32 380.96C367.419 380.961 367.514 380.997 367.589 381.061C367.664 381.125 367.714 381.213 367.73 381.31H367.71C367.824 381.556 367.918 381.81 367.99 382.07H367.85C367.938 382.314 367.965 382.574 367.93 382.83C367.752 383.25 367.696 383.711 367.77 384.16L367.36 384.43C367.36 384.43 372.23 385.21 373.29 384.66H373.43V384.54C373.5 384.4 373.34 384.32 373.48 384.34V384.54C373.48 384.39 373.6 384.54 373.68 384.54C373.69 384.48 373.718 384.424 373.76 384.38C373.71 384.38 373.7 384.38 373.67 384.38C373.64 384.38 373.49 384.18 373.56 384.08C373.63 383.98 373.79 384.08 373.81 383.91C373.99 383 374.101 382.078 374.14 381.15C374.2 381.15 374.19 381.15 374.22 381.15C374.22 380.86 374.22 380.61 374.14 380.35C374.198 380.295 374.271 380.26 374.35 380.25C374.25 380.3 374.29 378.83 374.32 378.81Z" fill="#81A9E6"/>
<path d="M293.16 395.691C293.217 395.674 293.266 395.64 293.302 395.593C293.338 395.546 293.358 395.49 293.36 395.431C293.21 395.501 293.15 395.581 293.16 395.691Z" fill="#81A9E6"/>
<path d="M286.33 376.561C286.325 376.587 286.325 376.614 286.33 376.641C286.335 376.614 286.335 376.587 286.33 376.561Z" fill="#81A9E6"/>
<path d="M293.9 390.621H293.64C293.64 390.381 293.93 390.561 293.87 390.341C293.51 390.251 293.87 389.971 293.73 389.891C293.73 389.891 293.73 389.791 293.88 389.801C293.68 389.801 293.88 389.691 293.79 389.621C293.7 389.551 293.73 389.621 293.67 389.621L293.6 389.461C293.67 389.401 293.78 389.391 293.8 389.461C293.956 388.542 294.026 387.612 294.01 386.681C293.86 386.731 293.96 386.871 293.72 386.921C293.59 386.811 293.77 386.751 293.63 386.701C293.98 386.701 293.72 386.451 294.07 386.361H293.88L293.99 386.301C293.78 385.811 293.89 386.191 293.93 385.751C293.93 385.491 293.61 385.371 293.71 385.231C293.71 385.231 293.59 385.311 293.54 385.231C293.71 385.231 293.41 385.061 293.54 385.031C293.54 384.961 293.54 384.751 293.3 384.831C293.42 384.831 293.46 384.601 293.57 384.711C293.57 384.651 293.57 384.591 293.57 384.541L293.51 384.621C293.51 384.411 293.65 384.291 293.43 384.151L293.34 384.241C293.34 384.111 293.34 384.001 293.53 383.951L293.61 384.081C293.619 383.897 293.562 383.717 293.45 383.571V383.631C293.21 383.411 292.99 382.241 292.69 382.041L292.51 382.141L292.35 381.961C292.35 381.961 292.95 382.041 292.89 382.051C292.784 381.152 292.747 380.246 292.78 379.341C292.88 379.201 293.07 379.341 293.1 379.341C293.02 379.171 292.9 379.271 292.91 379.131C292.92 378.991 293.06 379.131 293.08 379.131C293.1 379.131 293.08 379.011 293.08 379.001C293.08 378.991 292.79 379.061 292.64 379.101V378.911H292.78C292.78 378.911 292.39 378.821 292.46 378.631C292.53 378.441 292.46 377.981 292.46 377.631C292.536 377.651 292.603 377.697 292.65 377.761C292.65 377.761 292.65 377.661 292.65 377.621C292.5 377.701 292.54 377.491 292.48 377.551C292.13 377.331 292.48 377.021 292.19 376.831C291.88 376.831 286.81 376.601 286.44 376.621C286.44 376.551 286.44 376.491 286.44 376.471C286.421 376.479 286.404 376.492 286.39 376.507C286.376 376.522 286.365 376.541 286.359 376.56C286.352 376.58 286.35 376.601 286.352 376.622C286.354 376.642 286.36 376.663 286.37 376.681H286.57C286.64 376.831 286.45 376.681 286.47 376.871C286.3 376.871 286.27 376.751 286.25 376.631C286.25 376.741 286.12 376.851 286.3 376.881C286.23 376.991 286.1 376.881 286.03 377.001C285.96 377.121 286.24 377.191 286.15 377.301C285.99 377.551 286.41 377.661 286.25 377.891H286.19C286.1 377.971 286.19 378.121 286.13 378.261C286.13 378.261 286.28 378.191 286.3 378.261C286.32 378.331 286.3 378.531 286.19 378.651L286.35 378.751C286.35 379.311 286.62 381.511 286.66 382.071C286.725 383.24 286.851 384.405 287.04 385.561C286.89 385.691 286.93 385.881 286.89 386.021C286.95 385.941 287.07 385.971 287.06 386.021C287.06 386.451 287.17 386.021 287.25 386.491C287.325 387.445 287.258 388.406 287.05 389.341C287.28 389.581 287.1 389.871 287.24 390.111H287.18C287.27 390.361 287.03 391.771 287.11 392.111C287.25 392.361 287 392.321 286.92 392.521C287.012 392.516 287.103 392.542 287.179 392.595C287.255 392.647 287.312 392.723 287.34 392.811H287.28C287.4 393.011 287.5 393.222 287.58 393.441H287.43C287.58 393.621 287.52 393.941 287.53 394.061C287.46 394.351 287.21 394.771 287.39 395.161L286.98 395.381C286.98 395.381 291.86 396.081 292.91 395.621H293.05V395.511C293.12 395.391 292.96 395.321 293.1 395.341V395.511C293.1 395.391 293.22 395.511 293.3 395.511C293.309 395.458 293.334 395.409 293.37 395.371C293.32 395.371 293.31 395.371 293.28 395.371C293.25 395.371 293.1 395.201 293.17 395.121C293.24 395.041 293.4 395.121 293.42 394.981C293.583 394.211 293.677 393.428 293.7 392.641C293.76 392.641 293.76 392.641 293.78 392.641C293.72 392.401 293.78 392.181 293.69 391.961C293.75 391.913 293.824 391.885 293.9 391.881C293.85 391.891 293.86 390.641 293.9 390.621Z" fill="#81A9E6"/>
<path d="M332.96 410.25C333.02 410.217 333.07 410.169 333.107 410.112C333.144 410.054 333.165 409.988 333.17 409.92C333.105 409.945 333.049 409.991 333.011 410.05C332.973 410.11 332.955 410.18 332.96 410.25Z" fill="#81A9E6"/>
<path d="M325.81 386.25C325.81 386.25 325.81 386.32 325.81 386.35C325.82 386.317 325.82 386.283 325.81 386.25Z" fill="#81A9E6"/>
<path d="M333.8 403.821H333.54C333.54 403.531 333.83 403.741 333.77 403.461C333.41 403.351 333.77 403.011 333.62 402.911C333.62 402.911 333.62 402.781 333.77 402.791C333.58 402.741 333.77 402.651 333.68 402.561C333.59 402.471 333.62 402.561 333.56 402.561L333.49 402.371C333.55 402.291 333.67 402.271 333.69 402.371C333.833 401.213 333.889 400.046 333.86 398.881C333.72 398.951 333.86 399.121 333.58 399.181C333.45 399.041 333.63 398.971 333.49 398.911C333.84 398.851 333.58 398.591 333.92 398.471H333.72L333.84 398.391C333.62 397.761 333.74 398.251 333.77 397.681C333.77 397.351 333.45 397.201 333.54 397.021C333.531 397.035 333.519 397.047 333.504 397.055C333.489 397.064 333.472 397.068 333.455 397.068C333.438 397.068 333.421 397.064 333.407 397.055C333.392 397.047 333.379 397.035 333.37 397.021C333.54 397.021 333.24 396.801 333.37 396.751C333.37 396.671 333.37 396.401 333.13 396.501C333.25 396.451 333.29 396.211 333.4 396.351C333.4 396.271 333.4 396.191 333.4 396.131L333.34 396.241C333.34 395.961 333.47 395.811 333.25 395.641L333.16 395.741C333.16 395.581 333.16 395.441 333.35 395.371L333.43 395.541C333.44 395.309 333.381 395.079 333.26 394.881V394.961C333.02 394.681 332.78 393.191 332.48 392.961L332.3 393.091L332.14 392.871C332.14 392.871 332.74 392.951 332.68 392.981C332.68 392.501 332.34 389.981 332.43 389.501C332.52 389.311 332.72 389.451 332.75 389.451C332.66 389.231 332.55 389.361 332.55 389.171C332.55 388.981 332.69 389.171 332.72 389.171C332.75 389.171 332.72 389.011 332.66 389.011C332.6 389.011 332.38 389.091 332.23 389.141V388.901H332.37C332.37 388.901 331.97 388.791 332.03 388.551C332.03 388.141 331.98 387.711 331.98 387.301C332.07 387.301 332.13 387.381 332.18 387.461C332.23 387.541 332.18 387.331 332.18 387.271C332.04 387.381 332.07 387.111 332.01 387.191C331.64 386.931 331.93 386.521 331.68 386.281C331.36 386.281 326.29 386.281 325.92 386.281C325.92 386.211 325.92 386.131 325.92 386.101C325.88 386.129 325.852 386.171 325.841 386.219C325.829 386.267 325.836 386.317 325.86 386.361H326.06C326.14 386.531 325.95 386.361 325.97 386.591C325.81 386.591 325.76 386.451 325.74 386.311C325.74 386.441 325.62 386.591 325.8 386.621C325.74 386.751 325.6 386.621 325.54 386.781C325.48 386.941 325.77 387.011 325.68 387.141C325.54 387.451 325.96 387.571 325.81 387.851H325.76C325.67 387.951 325.81 388.131 325.76 388.311C325.76 388.311 325.91 388.211 325.93 388.311C325.95 388.411 325.93 388.641 325.84 388.801L326.01 388.921C326.01 389.621 326.5 392.311 326.5 393.031C326.62 394.101 326.67 396.301 326.92 397.411C326.77 397.581 326.81 397.821 326.77 398.001C326.84 397.891 326.95 397.931 326.94 398.001C326.94 398.551 327.05 398.001 327.14 398.591C327.228 399.809 327.175 401.034 326.98 402.241C327.21 402.541 327.03 402.921 327.18 403.241H327.12C327.21 403.561 327 405.371 327.04 405.731C327.17 406.061 326.92 406.011 326.83 406.261C327.09 406.261 327.23 406.511 327.25 406.621H327.19C327.304 406.875 327.395 407.139 327.46 407.411H327.32C327.47 407.631 327.39 408.041 327.4 408.201C327.213 408.639 327.154 409.12 327.23 409.591L326.81 409.871C326.81 409.871 331.68 410.681 332.74 410.081H332.88V409.951C332.96 409.791 332.79 409.711 332.94 409.731V409.941C332.99 409.791 333.06 409.941 333.14 409.941C333.148 409.874 333.176 409.811 333.22 409.761C333.16 409.761 333.16 409.761 333.13 409.761C333.1 409.761 332.95 409.551 333.02 409.451C333.09 409.351 333.25 409.451 333.27 409.261C333.462 408.271 333.582 407.268 333.63 406.261C333.69 406.261 333.68 406.261 333.71 406.261C333.71 405.951 333.71 405.681 333.64 405.401C333.698 405.342 333.771 405.301 333.85 405.281C333.774 404.798 333.757 404.307 333.8 403.821Z" fill="#81A9E6"/>
<path d="M343.9 419.79V419.89C343.91 419.857 343.91 419.823 343.9 419.79Z" fill="#81A9E6"/>
<path d="M350.05 438.051H349.79C349.79 437.771 350.09 437.971 350.03 437.711C349.67 437.611 350.03 437.281 349.88 437.191C349.88 437.191 349.88 437.061 350.03 437.071C349.83 437.071 350.03 436.941 349.94 436.861C349.85 436.781 349.88 436.861 349.82 436.911L349.75 436.721C349.82 436.651 349.93 436.631 349.95 436.721C350.104 435.631 350.168 434.531 350.14 433.431C349.99 433.491 350.09 433.661 349.86 433.711C349.73 433.571 349.91 433.511 349.77 433.451C350.12 433.451 349.86 433.151 350.21 433.061H350.01L350.13 433.001C349.94 432.391 350.03 432.861 350.13 432.331C350.13 432.011 349.86 431.861 349.97 431.691C349.97 431.691 349.84 431.771 349.8 431.691C349.97 431.691 349.69 431.471 349.87 431.441C349.87 431.361 349.87 431.111 349.65 431.181C349.77 431.181 349.83 430.921 349.93 431.061C349.93 430.981 349.98 430.911 349.93 430.851L349.86 430.951C349.86 430.691 350.03 430.561 349.86 430.381L349.76 430.461C349.76 430.311 349.76 430.181 349.99 430.131L350.05 430.301C350.076 430.081 350.038 429.859 349.94 429.661V429.741C349.73 429.451 349.63 428.001 349.36 427.741L349.17 427.841L349.03 427.611C349.03 427.611 349.61 427.771 349.55 427.781C349.552 426.667 349.656 425.556 349.86 424.461C349.98 424.301 350.15 424.461 350.17 424.461C350.17 424.251 349.99 424.351 350.03 424.171C350.07 423.991 350.17 424.171 350.19 424.231C350.21 424.291 350.25 424.081 350.19 424.071C350.13 424.061 349.89 424.071 349.74 424.121L349.79 423.891H349.93C349.93 423.831 349.56 423.711 349.66 423.491C349.741 423.101 349.801 422.707 349.84 422.311C349.93 422.311 349.97 422.411 350.01 422.501C350.05 422.591 350.01 422.371 350.07 422.331C349.91 422.401 349.99 422.151 349.92 422.221C349.61 421.891 349.97 421.571 349.76 421.281C349.45 421.281 344.5 420.031 344.13 419.971C344.13 419.891 344.13 419.811 344.2 419.791C344.27 419.771 344.05 419.951 344.09 420.051H344.28C344.33 420.251 344.16 420.051 344.15 420.271C343.99 420.271 343.98 420.081 343.98 419.921C343.98 420.061 343.81 420.181 343.98 420.261C343.9 420.381 343.78 420.261 343.7 420.371C343.62 420.481 343.87 420.651 343.76 420.771C343.56 421.061 343.95 421.281 343.76 421.541H343.71C343.61 421.631 343.71 421.851 343.59 422.021C343.59 422.021 343.75 421.941 343.76 422.021C343.77 422.101 343.76 422.371 343.57 422.511L343.71 422.671C343.61 423.401 343.45 426.281 343.47 427.031C343.47 428.161 343.3 430.461 343.47 431.631C343.3 431.801 343.32 432.051 343.26 432.231C343.34 432.131 343.44 432.171 343.43 432.231C343.38 432.801 343.53 432.231 343.59 432.861C343.669 434.134 343.605 435.412 343.4 436.671C343.63 436.991 343.45 437.391 343.59 437.671C343.619 438.1 343.619 438.531 343.59 438.961C343.58 439.408 343.601 439.856 343.65 440.301C343.82 440.631 343.56 440.601 343.5 440.871C343.76 440.871 343.92 441.111 343.95 441.221H343.71C343.851 441.478 343.971 441.745 344.07 442.021H343.93C344.042 442.279 344.094 442.559 344.08 442.841C343.954 443.326 343.954 443.835 344.08 444.321L343.7 444.691C343.7 444.691 348.6 444.691 349.6 443.961H349.71V443.841C349.78 443.681 349.61 443.631 349.71 443.631V443.831C349.71 443.681 349.83 443.831 349.91 443.831C349.913 443.766 349.934 443.704 349.97 443.651C349.97 443.651 349.97 443.651 349.89 443.651C349.81 443.651 349.69 443.481 349.75 443.381C349.81 443.281 349.98 443.381 349.98 443.171C350.078 442.251 350.102 441.324 350.05 440.401C350.11 440.401 350.11 440.401 350.14 440.401C350.06 440.121 350.06 439.871 349.98 439.621C350.041 439.566 350.112 439.525 350.19 439.501C350.09 439.531 349.99 438.081 350.05 438.051Z" fill="#81A9E6"/>
<path d="M352.24 390.55C352.4 390.55 352.42 390.4 352.45 390.3C352.3 390.37 352.23 390.45 352.24 390.55Z" fill="#81A9E6"/>
<path d="M346.84 370.23V370.3C346.848 370.29 346.852 370.278 346.852 370.265C346.852 370.253 346.848 370.241 346.84 370.23Z" fill="#81A9E6"/>
<path d="M353.42 385.4H353.17C353.17 385.16 353.47 385.4 353.44 385.13C353.08 385 353.52 384.75 353.34 384.64C353.34 384.64 353.39 384.54 353.5 384.56C353.31 384.5 353.5 384.44 353.43 384.36C353.36 384.28 353.37 384.36 353.3 384.36V384.19C353.37 384.13 353.48 384.13 353.5 384.19C353.75 383.206 353.91 382.202 353.98 381.19C353.83 381.19 353.91 381.39 353.67 381.42C353.56 381.28 353.74 381.24 353.61 381.17C353.96 381.17 353.72 380.91 354.08 380.85L353.89 380.79H354.02C353.87 380.22 353.93 380.66 354.02 380.17C354.02 379.89 353.76 379.72 353.87 379.58C353.87 379.58 353.74 379.65 353.7 379.58C353.87 379.58 353.59 379.38 353.77 379.36C353.77 379.28 353.77 379.05 353.55 379.11C353.67 379.11 353.74 378.88 353.83 379.01C353.83 378.94 353.88 378.87 353.83 378.82L353.75 378.9C353.75 378.66 353.93 378.55 353.75 378.38L353.65 378.46C353.65 378.32 353.65 378.2 353.88 378.16L353.94 378.31C353.966 378.111 353.931 377.909 353.84 377.73V377.8C353.64 377.53 353.51 376.18 353.23 375.94L353.04 376.04L352.9 375.83C352.9 375.83 353.48 375.96 353.42 375.97C353.42 375.76 353.42 375.08 353.42 374.43C353.373 373.904 353.373 373.375 353.42 372.85C353.52 372.68 353.71 372.85 353.74 372.85C353.67 372.65 353.55 372.77 353.56 372.59C353.57 372.41 353.7 372.59 353.73 372.59C353.76 372.59 353.73 372.45 353.68 372.44C353.63 372.43 353.39 372.51 353.25 372.55V372.33H353.4C353.4 372.33 353.01 372.22 353.08 372C353.124 371.608 353.124 371.212 353.08 370.82C353.17 370.82 353.23 370.9 353.29 370.98C353.35 371.06 353.29 370.85 353.29 370.79C353.15 370.9 353.17 370.64 353.12 370.72C352.74 370.47 353.02 370.06 352.75 369.84C352.44 369.84 347.4 370.2 347.04 370.31C347.04 370.25 347.04 370.2 347.04 370.17C347.04 370.14 346.92 370.32 346.98 370.36H347.17C347.25 370.48 347.06 370.41 347.09 370.53C346.93 370.53 346.88 370.46 346.85 370.36C346.85 370.45 346.73 370.56 346.91 370.57C346.86 370.67 346.72 370.57 346.66 370.7C346.6 370.83 346.88 370.84 346.79 370.94C346.65 371.16 347.07 371.22 346.93 371.42H346.87C346.78 371.49 346.92 371.61 346.87 371.73C346.82 371.85 347.01 371.66 347.04 371.73C347.07 371.8 347.04 371.95 346.94 372.08L347.1 372.19C347.1 372.73 347.31 374.92 347.26 375.55C347.26 376.44 347.15 378.3 347.26 379.27C347.1 379.4 347.11 379.6 347.06 379.75C347.13 379.67 347.24 379.75 347.23 379.75C347.17 380.21 347.33 379.75 347.35 380.27C347.332 381.325 347.164 382.372 346.85 383.38C347.05 383.67 346.85 383.98 346.96 384.26H346.91C346.96 384.55 346.56 386.09 346.61 386.44C346.72 386.74 346.47 386.67 346.37 386.89C346.467 386.896 346.558 386.935 346.629 387C346.7 387.066 346.746 387.154 346.76 387.25H346.71C346.811 387.481 346.885 387.722 346.93 387.97H346.79C346.92 388.17 346.79 388.54 346.79 388.69C346.7 389.01 346.41 389.51 346.56 389.97L346.13 390.23V390.28C346.13 390.28 347.34 390.47 348.69 390.59C349.809 390.775 350.951 390.775 352.07 390.59H352.21V390.49C352.29 390.37 352.13 390.3 352.27 390.32V390.49C352.32 390.37 352.39 390.49 352.47 390.49C352.483 390.437 352.511 390.388 352.55 390.35C352.5 390.35 352.49 390.35 352.46 390.35C352.43 390.35 352.29 390.17 352.36 390.1C352.43 390.03 352.59 390.1 352.62 389.96C352.841 389.19 353.001 388.404 353.1 387.61C353.17 387.61 353.16 387.61 353.18 387.61C353.18 387.36 353.18 387.14 353.18 386.9C353.247 386.86 353.322 386.836 353.4 386.83C353.25 386.74 353.39 385.42 353.42 385.4Z" fill="#81A9E6"/>
<path d="M359.71 402.101C359.71 402.101 359.71 402.171 359.71 402.201C359.717 402.185 359.721 402.168 359.721 402.151C359.721 402.133 359.717 402.116 359.71 402.101Z" fill="#81A9E6"/>
<path d="M367.45 419.37H367.19C367.19 419.08 367.48 419.28 367.41 419.02C367.05 418.92 367.41 418.58 367.25 418.49C367.25 418.49 367.25 418.36 367.4 418.37C367.2 418.37 367.35 418.24 367.3 418.16C367.25 418.08 367.24 418.16 367.18 418.16L367.11 417.97C367.17 417.9 367.28 417.88 367.31 417.97C367.426 416.861 367.456 415.744 367.4 414.63C367.25 414.7 367.4 414.86 367.12 414.93C366.99 414.79 367.12 414.73 367.03 414.67C367.37 414.6 367.1 414.36 367.45 414.25H367.25L367.37 414.18C367.16 413.58 367.27 414.04 367.31 413.5C367.31 413.19 366.99 413.05 367.09 412.88C367.09 412.88 366.97 412.97 366.92 412.88C367.09 412.88 366.79 412.67 366.92 412.63C366.92 412.55 366.92 412.29 366.68 412.38C366.8 412.38 366.84 412.11 366.95 412.24C366.95 412.16 366.95 412.09 366.95 412.03L366.89 412.13C366.89 411.87 367.03 411.73 366.81 411.56L366.72 411.66C366.72 411.51 366.72 411.38 366.91 411.31L366.99 411.47C367 411.249 366.945 411.03 366.83 410.84V410.92C366.59 410.65 366.37 409.22 366.07 408.92L365.89 409.04L365.73 408.83C365.73 408.83 366.32 408.92 366.26 408.94C366.162 407.836 366.129 406.728 366.16 405.62C366.26 405.45 366.45 405.62 366.48 405.62C366.4 405.41 366.28 405.54 366.3 405.36C366.32 405.18 366.44 405.36 366.46 405.36C366.48 405.36 366.46 405.21 366.46 405.2C366.46 405.19 366.17 405.27 366.02 405.31V405.08H366.16C366.16 405.03 365.77 404.96 365.84 404.73C365.89 404.34 365.84 403.93 365.84 403.54C365.93 403.54 365.98 403.63 366.03 403.71C366.08 403.79 366.03 403.58 366.03 403.53C365.88 403.63 365.93 403.37 365.86 403.44C365.51 403.17 365.86 402.8 365.58 402.55C365.27 402.55 360.2 402.14 359.82 402.15C359.82 402.07 359.82 401.99 359.87 401.97C359.92 401.95 359.74 402.14 359.79 402.23H359.99C360.06 402.42 359.87 402.23 359.89 402.46C359.73 402.46 359.69 402.31 359.67 402.16C359.67 402.29 359.54 402.43 359.72 402.48C359.65 402.61 359.52 402.48 359.45 402.62C359.38 402.76 359.66 402.86 359.57 402.99C359.41 403.29 359.83 403.44 359.67 403.71H359.61C359.52 403.8 359.61 403.99 359.55 404.17C359.55 404.17 359.7 404.07 359.72 404.17C359.74 404.27 359.72 404.51 359.61 404.66L359.77 404.79C359.77 405.49 360.03 408.23 360.08 408.93C360.134 410.386 360.261 411.838 360.46 413.28C360.3 413.45 360.34 413.68 360.3 413.86C360.37 413.76 360.48 413.79 360.47 413.86C360.47 414.4 360.58 413.86 360.66 414.44C360.775 415.639 360.748 416.847 360.58 418.04C360.82 418.34 360.65 418.72 360.8 419.04C360.89 419.35 360.71 421.15 360.8 421.51C360.95 421.83 360.69 421.79 360.62 422.04C360.88 422.04 361.03 422.28 361.05 422.38H361C361.127 422.628 361.233 422.886 361.32 423.15H361.17C361.279 423.395 361.32 423.664 361.29 423.93C361.132 424.376 361.101 424.857 361.2 425.32L360.8 425.64H360.85C360.85 425.64 365.75 426.03 366.78 425.37H366.92V425.24C366.99 425.09 366.82 425.03 366.92 425.04V425.24C366.92 425.09 367.04 425.24 367.12 425.24C367.129 425.175 367.153 425.114 367.19 425.06C367.13 425.06 367.13 425.06 367.1 425.06C367.07 425.06 366.91 424.87 366.98 424.77C367.05 424.67 367.2 424.77 367.22 424.58C367.35 423.643 367.41 422.697 367.4 421.75C367.46 421.75 367.46 421.75 367.49 421.75C367.42 421.46 367.49 421.2 367.37 420.94C367.425 420.883 367.494 420.841 367.57 420.82C367.46 420.345 367.419 419.857 367.45 419.37Z" fill="#81A9E6"/>
<path d="M51.8735 388.77L56.8735 392.2C57.8035 392.84 58.6735 393.43 59.3535 393.87C59.6635 394.16 60.1435 394.49 60.4935 394.76C60.3135 394.59 60.4035 394.6 60.5635 394.76C61.6635 395.53 60.6635 394.76 61.7935 395.53C62.4235 395.93 63.8535 396.94 65.2935 397.96L70.3635 401.6C70.4335 401.37 70.4635 401.23 70.5035 401.12C70.6435 400.4 70.8235 399.68 71.0135 398.96C71.1135 398.6 71.2035 398.25 71.2935 397.9C71.2935 397.76 71.3635 397.62 71.3935 397.49L71.4535 397.21V397.29C71.6235 396.52 72.8535 392.23 73.0535 391.29L73.0035 391.38C73.0915 390.944 73.2326 390.521 73.4235 390.12C73.2935 390.18 73.4235 389.5 73.4735 389.25C73.5535 388.87 73.6935 387.98 73.8435 387.35H73.8935C73.9735 386.81 74.2635 385.83 74.3535 385.46C74.6035 384.6 75.0535 383.3 75.2835 382.13L75.6435 381.44V381.32L76.0035 378.73C76.0735 378.14 73.6135 379.51 73.5835 379.44C73.7224 379.413 73.8626 379.393 74.0035 379.38C73.7969 379.423 73.598 379.497 73.4135 379.6V379.68C73.0035 379.89 73.2935 379.68 72.8835 379.86C72.8335 379.81 73.2135 379.63 73.5435 379.49C73.2873 379.556 73.0439 379.664 72.8235 379.81C72.5235 379.91 72.8235 379.72 72.4635 379.81C72.2021 379.973 71.9238 380.107 71.6335 380.21C70.9135 380.43 70.6335 380.74 69.9735 380.94C69.7435 380.99 69.3235 381.22 68.9135 381.35C69.0335 381.35 69.1535 381.35 68.9135 381.43C68.4335 381.59 68.1435 381.76 67.7835 381.85L67.4935 382.05C65.8935 382.71 59.6235 385.46 58.0335 386.15L51.8735 388.77Z" fill="#009DE0" fill-opacity="0.49"/>
<path d="M47.0837 368.72L52.0037 365.24C52.9237 364.57 53.7637 363.96 54.4137 363.47C54.7937 363.28 55.2637 362.93 55.6337 362.69C55.4137 362.81 55.4637 362.69 55.6337 362.62C56.7337 361.85 55.6337 362.53 56.7737 361.72C57.3737 361.27 58.7737 360.26 60.2537 359.26L65.4037 355.73L64.9937 355.43C64.3637 355.06 63.7537 354.64 63.1437 354.22L62.2337 353.6L61.8837 353.36L61.6437 353.21H61.7137C61.0437 352.79 57.4437 350.21 56.7137 349.68L56.8137 349.76C56.4509 349.529 56.1154 349.257 55.8137 348.95C55.8137 349.08 55.2237 348.74 55.0037 348.6C54.6737 348.39 53.8937 347.96 53.3437 347.6H53.4037C52.9237 347.35 52.1037 346.75 51.7737 346.53C51.0637 346 49.9937 345.14 48.9737 344.53L48.4337 343.96H48.3337L46.0137 342.73C45.4837 342.46 45.9437 345.25 45.8637 345.25C45.8637 345.06 45.8637 344.87 45.8637 344.81C45.8328 345.019 45.8328 345.231 45.8637 345.44H45.9437C46.0037 345.9 45.9437 345.55 45.9437 346C45.8737 346 45.8437 345.61 45.8137 345.25C45.7898 345.515 45.8101 345.782 45.8737 346.04C45.8737 346.35 45.7937 346.04 45.7837 346.38C45.8404 346.684 45.8705 346.992 45.8737 347.3C45.8737 348.05 46.0337 348.43 46.0037 349.11V349.04C46.0037 349.28 46.0537 349.75 46.0037 350.19C46.0037 350.06 46.0537 349.95 46.0837 350.19C46.0837 350.69 46.0837 351.03 46.0837 351.4L46.1637 351.74C46.2437 353.47 46.6937 360.3 46.8037 362.03V361.97C46.7937 363.64 46.9337 366.09 47.0837 368.72Z" fill="#009DE0" fill-opacity="0.49"/>
<path d="M19.0034 321.44L20.8934 323.87L21.8934 325.06C22.0034 325.25 22.1934 325.48 22.3234 325.66C22.3234 325.58 22.2534 325.56 22.3234 325.66C22.472 325.859 22.6323 326.049 22.8034 326.23C23.0434 326.52 23.5934 327.23 24.1434 327.95L26.0634 330.49C26.1153 330.42 26.1621 330.346 26.2034 330.27C26.3834 329.94 26.5834 329.62 26.7834 329.27L27.0834 328.79C27.1164 328.728 27.1531 328.667 27.1934 328.61L27.2634 328.48C27.4634 328.13 28.7034 326.23 28.9434 325.82C29.0491 325.62 29.1802 325.435 29.3334 325.27C29.2634 325.27 29.4234 324.97 29.4934 324.85C29.5934 324.68 29.7934 324.27 29.9634 323.98C30.0834 323.73 30.3734 323.29 30.4734 323.12C30.8352 322.646 31.1691 322.152 31.4734 321.64L31.7534 321.36V321.3L32.3234 320.09C32.4434 319.82 31.0334 320.09 31.0334 320.09H31.2534C31.1471 320.077 31.0397 320.077 30.9334 320.09C30.7034 320.09 30.8734 320.09 30.6434 320.09C30.6434 320.09 30.8434 320.03 31.0234 320C30.8886 320.001 30.7543 320.017 30.6234 320.05C30.4634 320.05 30.6234 320.05 30.4434 320.05C30.294 320.094 30.1392 320.118 29.9834 320.12C29.6034 320.12 29.4134 320.23 29.0634 320.23C28.9334 320.23 28.6934 320.23 28.4734 320.23C28.5934 320.23 28.5434 320.23 28.4734 320.23C28.3534 320.23 28.0434 320.23 27.8634 320.23H27.6834C26.8034 320.31 23.3334 320.7 22.4434 320.79L19.0034 321.44Z" fill="#009DE0" fill-opacity="0.49"/>
<path d="M130.874 375.92L133.344 374.08L134.554 373.16C134.754 373.05 134.984 372.87 135.174 372.74C135.084 372.74 135.064 372.81 135.174 372.74C135.734 372.33 135.174 372.69 135.754 372.27C136.044 372.03 136.754 371.5 137.504 370.97L140.084 369.11L139.874 368.96C139.554 368.78 139.234 368.57 138.874 368.36L138.404 368.05L138.224 367.94L138.094 367.86C137.754 367.65 135.884 366.36 135.484 366.11C135.29 365.995 135.11 365.861 134.944 365.71C134.944 365.78 134.644 365.61 134.534 365.54C134.364 365.44 133.954 365.23 133.674 365.05C133.383 364.89 133.103 364.713 132.834 364.52C132.454 364.26 131.904 363.83 131.374 363.52L131.094 363.23H131.044L129.844 362.63C129.574 362.49 129.844 363.91 129.794 363.91C129.744 363.91 129.794 363.72 129.794 363.69C129.779 363.796 129.779 363.904 129.794 364.01H129.844C129.844 364.24 129.844 364.06 129.844 364.29C129.844 364.29 129.844 364.1 129.774 363.91C129.753 364.042 129.753 364.177 129.774 364.31C129.774 364.47 129.774 364.31 129.774 364.49C129.807 364.644 129.823 364.802 129.824 364.96C129.824 365.35 129.914 365.54 129.904 365.89C129.904 366.01 129.904 366.25 129.904 366.48C129.904 366.41 129.904 366.36 129.904 366.48C129.904 366.6 129.904 366.9 129.904 367.09V367.27C129.964 368.15 130.274 371.63 130.344 372.52C130.664 373.38 130.764 374.58 130.874 375.92Z" fill="#009DE0" fill-opacity="0.49"/>
<path d="M45.2935 437.76L51.1135 439.29C52.2135 439.58 53.2335 439.83 54.0135 440.01C54.4135 440.19 55.0135 440.32 55.4035 440.46C55.1735 440.37 55.2635 440.34 55.4035 440.4C56.7035 440.75 55.5035 440.4 56.8335 440.7C57.5535 440.87 59.2435 441.33 60.9535 441.8L66.9535 443.49C66.9535 443.25 66.9535 443.11 66.9535 442.99C66.8335 442.26 66.7635 441.53 66.6935 440.79C66.6935 440.42 66.6335 440.05 66.5935 439.69C66.5935 439.55 66.5935 439.41 66.5935 439.27C66.5886 439.176 66.5886 439.083 66.5935 438.99V439.06C66.4835 438.28 66.1835 433.84 66.0635 432.93V433.05C66.0105 432.611 66.0105 432.168 66.0635 431.73C65.9635 431.83 65.8435 431.15 65.8135 430.89C65.8135 430.5 65.5935 429.62 65.5235 428.98H65.5835C65.4735 428.45 65.4035 427.44 65.3635 427.05C65.3635 426.16 65.2935 424.79 65.1135 423.61L65.2135 422.83V422.72L64.6735 420.16C64.5335 419.57 62.6735 421.71 62.6735 421.65C62.7772 421.549 62.8874 421.456 63.0035 421.37C62.8214 421.474 62.6589 421.609 62.5235 421.77V421.85C62.2035 422.19 62.4135 421.85 62.0835 422.2C62.0235 422.2 62.3135 421.88 62.5735 421.62C62.3335 421.84 62.0535 422.03 62.0135 422.17C61.7635 422.36 62.0135 422.09 61.6835 422.32C61.4938 422.561 61.2793 422.783 61.0435 422.98C60.4535 423.43 60.2835 423.83 59.7435 424.24V424.17C59.5435 424.31 59.2335 424.67 58.8935 424.93C58.9935 424.86 59.1035 424.82 58.8935 425C58.5035 425.31 58.2835 425.57 57.9835 425.78L57.7735 426.06C56.4935 427.23 51.5435 431.95 50.2735 433.14L45.2935 437.76Z" fill="#009DE0" fill-opacity="0.49"/>
<path d="M89.1235 393.45L93.1235 397.93C93.8935 398.77 94.5935 399.53 95.1235 400.12C95.3635 400.48 95.7535 400.91 96.0335 401.25C95.8935 401.04 96.0335 401.08 96.1135 401.25C97.0035 402.25 96.2035 401.25 97.1135 402.25C97.6335 402.79 98.7935 404.09 99.9635 405.42L104.064 410.13C104.174 409.92 104.244 409.79 104.304 409.69C104.604 409.02 104.954 408.36 105.304 407.69C105.474 407.36 105.644 407.03 105.814 406.69L106.004 406.31L106.124 406.05V406.13C106.464 405.42 108.644 401.53 109.044 400.71L108.974 400.81C109.156 400.41 109.388 400.034 109.664 399.69C109.524 399.69 109.794 399.08 109.914 398.84C110.084 398.49 110.424 397.66 110.724 397.08V397.13C110.914 396.62 111.424 395.74 111.604 395.39C112.044 394.62 112.784 393.46 113.274 392.39L113.784 391.8V391.69L114.724 389.25C114.934 388.69 112.224 389.46 112.214 389.39L112.644 389.33C112.434 389.326 112.225 389.352 112.024 389.41V389.49C111.574 389.6 111.904 389.49 111.464 389.54C111.464 389.48 111.834 389.4 112.194 389.33C111.927 389.336 111.663 389.387 111.414 389.48C111.104 389.48 111.414 389.39 111.064 389.48C110.769 389.571 110.468 389.638 110.164 389.68C109.414 389.74 109.054 389.97 108.374 390.02H108.444C108.204 390.02 107.744 390.15 107.314 390.18C107.434 390.18 107.544 390.18 107.314 390.25C106.814 390.25 106.494 390.39 106.124 390.4L105.784 390.53C104.074 390.8 97.3535 392.04 95.6335 392.34H95.7035L89.1235 393.45Z" fill="#009DE0" fill-opacity="0.49"/>
<path d="M79.4839 367.1L85.3739 368.4L88.2939 369.01C88.6939 369.16 89.2939 369.28 89.6939 369.39C89.4639 369.31 89.5539 369.28 89.6939 369.33C91.0039 369.63 89.7939 369.33 91.1239 369.58C91.8639 369.72 93.5639 370.1 95.2839 370.51L101.354 371.95C101.354 371.71 101.354 371.57 101.304 371.45C101.154 370.73 101.054 370 100.964 369.26L100.814 368.17L100.754 367.75L100.694 367.47V367.55C100.554 366.77 100.074 362.34 99.9139 361.44V361.56C99.8339 361.125 99.8037 360.682 99.8239 360.24C99.7339 360.34 99.5839 359.67 99.5439 359.41C99.4739 359.02 99.2739 358.15 99.1739 357.51H99.2339C99.1039 356.98 98.9939 355.97 98.9439 355.58C98.8539 354.7 98.7739 353.32 98.5439 352.15L98.6139 351.37V351.26L97.9639 348.72C97.8039 348.15 96.0439 350.35 95.9639 350.3C96.1039 350.17 96.2439 350.03 96.2939 350C96.1182 350.117 95.96 350.259 95.8239 350.42V350.51C95.5239 350.86 95.7139 350.51 95.4039 350.87C95.3339 350.87 95.6239 350.54 95.8739 350.27C95.6339 350.5 95.3739 350.7 95.3239 350.85C95.0939 351.05 95.3239 350.77 95.0039 351.01C94.8232 351.259 94.6189 351.49 94.3939 351.7C93.8239 352.18 93.6739 352.58 93.1439 353.01V352.95C92.9439 353.09 92.6439 353.46 92.3139 353.74C92.4039 353.66 92.5239 353.62 92.3139 353.81C91.9339 354.13 91.7239 354.4 91.4239 354.62L91.2339 354.92C90.0039 356.14 85.2339 361.05 84.0239 362.3V362.24L79.4839 367.1Z" fill="#009DE0" fill-opacity="0.49"/>
<path d="M23.4438 413.95L29.4438 414.51C30.5738 414.61 31.6138 414.69 32.4438 414.74C32.9197 414.836 33.4004 414.906 33.8839 414.95C33.6439 414.9 33.7239 414.86 33.8839 414.88C35.2239 415.02 33.9739 414.88 35.3339 414.95C36.0739 414.95 37.8138 415.16 39.5738 415.35L45.7738 416.03C45.7738 415.79 45.6938 415.66 45.6638 415.54C45.4338 414.84 45.2338 414.13 45.0538 413.41C44.9538 413.05 44.8638 412.69 44.7738 412.35L44.6539 411.94L44.5639 411.67V411.73C44.3339 410.98 43.3038 406.65 43.0338 405.73V405.85C42.896 405.433 42.812 404.999 42.7838 404.56C42.6938 404.67 42.4638 404.02 42.3938 403.77C42.2838 403.4 41.9638 402.56 41.7938 401.94H42.0038C41.8038 401.44 41.5739 400.44 41.4739 400.07C41.2739 399.2 41.0239 397.85 40.6539 396.72V395.93V395.83L39.6539 393.39C39.4339 392.84 37.9639 395.25 37.9039 395.2L38.1838 394.86C38.0246 394.999 37.8865 395.161 37.7738 395.34V395.42C37.5138 395.8 37.6638 395.48 37.3938 395.84C37.3238 395.84 37.5638 395.48 37.7838 395.18C37.598 395.371 37.4398 395.586 37.3139 395.82C37.1039 396.05 37.3138 395.74 37.0238 396.02C36.8711 396.289 36.6937 396.544 36.4939 396.78C35.9839 397.32 35.8739 397.78 35.4039 398.23V398.16C35.2239 398.33 34.9838 398.73 34.6838 399.05C34.7738 398.96 34.8738 398.91 34.6838 399.12C34.3438 399.48 34.1739 399.78 33.9039 400.04L33.7439 400.35C32.6739 401.71 28.5738 407.19 27.5238 408.57V408.51C26.5438 409.91 25.0538 411.85 23.4438 413.95Z" fill="#009DE0" fill-opacity="0.49"/>
<path d="M23.2736 389.78L20.0036 384.7C19.3836 383.7 18.8136 382.87 18.3536 382.2C18.1382 381.768 17.9012 381.348 17.6436 380.94C17.7436 381.16 17.6436 381.11 17.5636 380.94C16.8536 379.8 17.4736 380.89 16.7236 379.75C16.3036 379.13 15.3736 377.66 14.4436 376.15L11.1736 370.84C11.0236 371.02 10.9336 371.13 10.8636 371.23C10.4536 371.84 10.0036 372.43 9.55361 373.02L8.88361 373.89L8.63361 374.23L8.47361 374.46V374.39C8.02361 375.04 5.22361 378.51 4.69361 379.25L4.78361 379.17C4.53143 379.534 4.23965 379.87 3.91361 380.17C4.05361 380.17 3.68361 380.75 3.53361 380.96C3.30361 381.28 2.83361 382.04 2.45361 382.57V382.51C2.17361 382.98 1.53361 383.77 1.30361 384.08C0.743606 384.77 -0.176395 385.79 -0.846395 386.78L-1.44639 387.29L-1.49639 387.39L-2.83639 389.64C-3.13639 390.15 -0.336394 389.84 -0.326394 389.91H-0.756395C-0.547425 389.939 -0.335365 389.939 -0.126395 389.91V389.82C0.333605 389.82 -0.0263941 389.82 0.433606 389.82C0.433606 389.89 0.0336057 389.9 -0.326394 389.91C-0.064496 389.949 0.201707 389.949 0.463606 389.91C0.773606 389.91 0.463606 389.99 0.803606 390.02C1.10947 389.989 1.41774 389.989 1.72361 390.02C2.47361 390.09 2.86361 389.92 3.54361 390.02H3.47361C3.71361 390.02 4.18361 390.02 4.61361 390.02C4.49361 390.02 4.38361 389.96 4.61361 389.95C5.11361 389.95 5.45361 389.95 5.81361 389.95L6.16361 389.88C7.89361 389.88 14.7336 389.78 16.4736 389.76H16.4036L23.2736 389.78Z" fill="#009DE0" fill-opacity="0.49"/>
<path d="M726.092 14.4608L729.908 17.1023C730.625 17.5939 731.291 18.0439 731.816 18.3855C732.099 18.6284 732.394 18.8565 732.7 19.0688C732.558 18.9355 732.625 18.9522 732.75 19.0688C733.583 19.6688 732.825 19.0688 733.7 19.6604C734.183 19.977 735.283 20.7437 736.391 21.5353L740.291 24.3351L740.399 23.9684C740.507 23.4101 740.649 22.8602 740.799 22.3019C740.866 22.0186 740.941 21.7519 741.007 21.4686C741.007 21.3686 741.066 21.2603 741.091 21.152C741.087 21.0826 741.087 21.0131 741.091 20.9437V20.977C741.224 20.3854 742.165 17.0856 742.324 16.394V16.4857C742.39 16.1519 742.496 15.8274 742.64 15.5191C742.54 15.5191 742.64 15.0442 742.64 14.8442C742.707 14.5442 742.815 13.8609 742.932 13.3776H742.974C743.032 12.961 743.249 12.211 743.324 11.9194C743.515 11.2611 743.865 10.2529 744.04 9.36128L744.315 8.81964V8.73633L744.59 6.73648C744.649 6.27818 742.749 7.33645 742.732 7.28646C742.865 7.23646 742.999 7.17812 743.049 7.16979C742.888 7.20094 742.733 7.25719 742.59 7.33645V7.40313C742.274 7.56145 742.499 7.40311 742.182 7.54477C742.182 7.5031 742.432 7.36147 742.69 7.25315C742.492 7.30549 742.303 7.38992 742.132 7.50312C741.907 7.56978 742.132 7.42812 741.865 7.50312C741.664 7.63058 741.449 7.73405 741.224 7.81142C740.674 7.9864 740.449 8.22804 739.949 8.37803C739.766 8.4197 739.449 8.59469 739.116 8.70302C739.207 8.70302 739.299 8.70302 739.116 8.76135C738.749 8.87801 738.516 9.01128 738.282 9.07795L738.049 9.23627C736.824 9.74456 732 11.8611 730.766 12.386L726.092 14.4608Z" fill="#009DE0" fill-opacity="0.49"/>
<path d="M721.017 52.1749L725.508 53.3581C726.342 53.5748 727.175 53.7665 727.742 53.9081C728.088 54.0407 728.441 54.1547 728.8 54.2497C728.7 54.1664 728.625 54.1831 728.8 54.2497C729.8 54.5247 728.875 54.2497 729.891 54.4831C730.45 54.6164 731.75 54.9664 733.066 55.3163L737.691 56.6246C737.691 56.4412 737.691 56.3329 737.691 56.2329C737.607 55.6746 737.549 55.108 737.499 54.5664L737.424 53.7331C737.424 53.6248 737.424 53.5164 737.424 53.4081C737.424 53.2998 737.424 53.2665 737.424 53.1915V53.2498C737.341 52.6415 737.107 49.2251 737.016 48.5252V48.6168C736.976 48.2792 736.976 47.938 737.016 47.6003C736.941 47.6753 736.849 47.1503 736.824 46.9587C736.782 46.6587 736.657 45.9837 736.599 45.4921H736.649C736.567 44.9983 736.511 44.5004 736.482 44.0006C736.482 43.3173 736.424 42.2591 736.282 41.3508L736.358 40.7508V40.6675L735.941 38.6927C735.833 38.2511 734.416 39.8926 734.374 39.8509C734.456 39.771 734.542 39.6958 734.633 39.6259C734.493 39.7132 734.367 39.8198 734.258 39.9426V40.0009C734.016 40.2592 734.174 40.0009 733.924 40.2759C733.874 40.2759 734.099 40.0176 734.299 39.8259C734.116 39.9926 733.899 40.1342 733.866 40.2509C733.674 40.3926 733.866 40.1842 733.616 40.3676C733.467 40.5532 733.299 40.7235 733.116 40.8758C732.658 41.2258 732.533 41.5341 732.108 41.8507V41.8008C731.95 41.9007 731.708 42.1757 731.441 42.3841C731.525 42.3257 731.608 42.2924 731.441 42.434C731.133 42.6757 730.966 42.8756 730.733 43.034L730.575 43.2506C729.591 44.1506 725.775 47.792 724.8 48.7085V48.6668L721.017 52.1749Z" fill="#009DE0" fill-opacity="0.49"/>
<path d="M747.348 -2.22114L751.881 -1.22121C752.715 -1.03789 753.548 -0.879582 754.131 -0.762925C754.439 -0.637935 754.881 -0.55457 755.206 -0.462911C755.031 -0.529572 755.098 -0.546235 755.206 -0.512905C756.214 -0.279591 755.281 -0.512921 756.306 -0.32127C756.873 -0.212946 758.181 0.0870168 759.514 0.395324L764.18 1.50358C764.18 1.32026 764.18 1.21192 764.18 1.12026C764.072 0.570306 763.997 0.00368631 763.922 -0.546268C763.922 -0.829578 763.847 -1.11289 763.805 -1.37953C763.805 -1.48786 763.805 -1.59618 763.805 -1.69618C763.805 -1.79617 763.805 -1.84612 763.764 -1.91278V-1.86279C763.655 -2.45441 763.28 -5.8708 763.164 -6.56241V-6.52076C763.099 -6.85273 763.077 -7.19148 763.097 -7.52903C763.022 -7.45403 762.905 -7.97062 762.872 -8.1706C762.814 -8.47058 762.655 -9.14553 762.58 -9.63716H762.63C762.522 -10.0455 762.447 -10.8287 762.405 -11.1204C762.33 -11.8037 762.272 -12.8619 762.097 -13.7618L762.147 -14.3617V-14.4451L761.656 -16.4033C761.531 -16.8449 760.181 -15.1451 760.139 -15.1867C760.215 -15.2724 760.298 -15.3505 760.389 -15.42C760.254 -15.3297 760.134 -15.2202 760.031 -15.095V-15.0284C759.797 -14.7618 759.947 -15.0284 759.706 -14.7451C759.656 -14.7451 759.872 -15.0034 760.064 -15.2117C759.881 -15.0284 759.681 -14.8784 759.647 -14.7701C759.464 -14.6118 759.647 -14.8284 759.397 -14.6451C759.258 -14.4514 759.099 -14.2727 758.922 -14.1118C758.481 -13.7368 758.364 -13.4285 757.956 -13.0952V-13.1536C757.806 -13.0369 757.581 -12.7535 757.323 -12.5369C757.398 -12.6036 757.481 -12.6369 757.323 -12.4869C757.031 -12.2369 756.873 -12.0286 756.648 -11.862L756.498 -11.637C755.548 -10.6954 751.881 -6.90407 750.948 -5.95414V-5.9958L747.348 -2.22114Z" fill="#009DE0" fill-opacity="0.49"/>
<path d="M704.219 33.8508L708.835 34.2757C709.71 34.3507 710.502 34.409 711.135 34.4507C711.498 34.525 711.865 34.5779 712.235 34.609C712.051 34.609 712.118 34.5423 712.235 34.559C713.268 34.6673 712.31 34.559 713.351 34.6173C713.926 34.6173 715.268 34.7757 716.618 34.9256L721.392 35.4423C721.392 35.2673 721.326 35.1589 721.301 35.0673C721.126 34.5257 720.976 33.9757 720.834 33.4008C720.759 33.1258 720.684 32.8508 720.617 32.5675L720.526 32.2509C720.507 32.1803 720.485 32.1108 720.459 32.0426V32.0926C720.284 31.5176 719.484 28.1846 719.284 27.5013V27.6429C719.182 27.3181 719.118 26.9826 719.092 26.643C719.026 26.7263 718.851 26.2264 718.793 26.0347C718.709 25.7431 718.459 25.0931 718.326 24.6182H718.376C718.226 24.2265 718.051 23.4599 717.968 23.1683C717.809 22.5017 717.626 21.5018 717.334 20.5935V19.9852V19.9019L716.601 18.0271C716.426 17.6021 715.293 19.4603 715.243 19.427C715.312 19.3329 715.387 19.2438 715.468 19.1603C715.345 19.2664 715.238 19.39 715.151 19.5269V19.5936C714.951 19.8853 715.068 19.5936 714.86 19.9102C714.81 19.9102 714.993 19.6353 715.16 19.4103C715.001 19.6019 714.818 19.7853 714.801 19.9019C714.635 20.0769 714.801 19.8436 714.576 20.0519C714.459 20.259 714.322 20.4543 714.168 20.6352C713.776 21.0518 713.701 21.3768 713.335 21.7601V21.7018C713.201 21.8351 713.01 22.1434 712.776 22.385C712.843 22.3184 712.926 22.2767 712.776 22.435C712.518 22.7183 712.385 22.9516 712.176 23.1433L712.051 23.385C711.218 24.4349 708.068 28.6512 707.26 29.7177V29.6678L704.219 33.8508Z" fill="#009DE0" fill-opacity="0.49"/>
<path d="M688.695 54.1653L690.911 50.0906C691.32 49.324 691.695 48.6157 691.978 48.0574C692.178 47.7908 692.386 47.3908 692.561 47.1075C692.453 47.2575 692.453 47.1825 692.561 47.0575C693.069 46.1493 692.561 46.9825 693.053 46.0493C693.311 45.5327 693.961 44.3827 694.628 43.1662C695.569 41.4997 696.528 39.8331 696.986 38.9999L696.603 38.9332C696.044 38.8832 695.478 38.7999 694.936 38.7165L694.103 38.5916H693.778H693.561H693.619C693.02 38.5249 689.636 37.9416 688.936 37.8666H689.028C688.69 37.8337 688.357 37.7609 688.037 37.65C688.087 37.7416 687.562 37.7083 687.362 37.65C687.062 37.65 686.37 37.5916 685.878 37.525C685.453 37.525 684.687 37.3667 684.387 37.325C683.712 37.2083 682.72 36.9667 681.77 36.8917L681.204 36.6751H681.112L679.104 36.6084C678.637 36.6084 679.896 38.3749 679.846 38.3999L679.696 38.0999C679.743 38.2554 679.816 38.4019 679.912 38.5332H679.979C680.171 38.8332 679.979 38.6249 680.162 38.9248C680.121 38.9665 679.954 38.6915 679.812 38.4499C679.937 38.6749 680.021 38.9165 680.121 38.9748C680.221 39.1998 680.054 38.9749 680.179 39.2498C680.321 39.4387 680.446 39.6394 680.554 39.8498C680.787 40.3748 681.054 40.5747 681.262 41.058C681.32 41.233 681.537 41.533 681.67 41.8413C681.629 41.7496 681.62 41.658 681.729 41.8413C681.887 42.1912 682.037 42.4079 682.137 42.6745L682.312 42.8828C682.954 44.0578 685.578 48.6241 686.237 49.7906L688.695 54.1653Z" fill="#009DE0" fill-opacity="0.49"/>
<path d="M704.069 15.236L701.569 11.3196C701.094 10.5863 700.652 9.91141 700.302 9.40312C700.142 9.06583 699.958 8.74009 699.752 8.42822C699.836 8.59487 699.752 8.56154 699.694 8.42822C699.144 7.54496 699.627 8.38657 699.052 7.51165C698.728 7.03669 698.011 5.90343 697.294 4.73686L694.795 0.645508L694.553 0.953811C694.236 1.42044 693.895 1.87875 693.545 2.32872C693.37 2.5537 693.203 2.77867 693.028 2.99532C692.853 3.21197 692.903 3.17864 692.836 3.26197L692.711 3.44531V3.38698C692.361 3.88694 690.212 6.55337 689.803 7.12833L689.87 7.06165C689.679 7.34263 689.455 7.59995 689.203 7.82824C689.303 7.82824 689.02 8.27824 688.903 8.43656C688.728 8.68654 688.37 9.26981 688.07 9.66977C687.862 10.0281 687.362 10.6364 687.187 10.878C686.754 11.4113 686.045 12.2029 685.52 12.9612L685.062 13.3528V13.4278L683.979 15.1443C683.745 15.5443 685.912 15.3026 685.912 15.3526H685.57C685.73 15.3775 685.893 15.3775 686.054 15.3526V15.286C686.412 15.286 686.137 15.3276 686.487 15.286C686.487 15.336 686.187 15.3526 685.904 15.3526C686.105 15.3839 686.31 15.3839 686.512 15.3526C686.754 15.3526 686.512 15.4109 686.779 15.4359C687.01 15.4003 687.244 15.3864 687.478 15.3943C688.053 15.4526 688.312 15.3193 688.878 15.3943H688.82C689.003 15.3943 689.37 15.3943 689.703 15.3943C689.603 15.3943 689.52 15.3526 689.703 15.3443C690.087 15.3443 690.353 15.3443 690.628 15.3443L690.903 15.2943C692.236 15.2943 697.494 15.2193 698.836 15.2027H698.786L704.069 15.236Z" fill="#009DE0" fill-opacity="0.49"/>
</g>
</g>
</g>
</svg>
