<svg width="1307" height="239" viewBox="0 0 1307 239" fill="none" xmlns="http://www.w3.org/2000/svg">
<path d="M95.6226 91.806C100.402 83.5283 97.5656 72.9437 89.2879 68.1646C81.0102 63.3855 70.4256 66.2216 65.6465 74.4993C60.8674 82.7769 63.7035 93.3615 71.9812 98.1407C80.2589 102.92 90.8435 100.084 95.6226 91.806Z" fill="#6F2931"/>
<path d="M71.9572 133.424C70.5773 135.805 68.5953 137.782 66.2101 139.155C63.825 140.528 61.1206 141.25 58.3683 141.248C55.616 141.246 52.9127 140.52 50.5298 139.143C48.1468 137.766 46.1679 135.786 44.7918 133.402L31.7772 110.87C26.8663 102.369 24.2803 92.7241 24.2791 82.9062C24.278 73.0883 26.8618 63.4432 31.7708 54.9406C36.6797 46.4381 43.7408 39.3778 52.2439 34.4698C60.747 29.5619 70.3925 26.9791 80.2104 26.9814L106.231 26.9863C110.357 27.0402 114.295 28.7169 117.193 31.6532C120.092 34.5896 121.717 38.5494 121.717 42.6752C121.717 46.8011 120.092 50.761 117.194 53.6977C114.296 56.6343 110.358 58.3114 106.233 58.3657L80.2061 58.371C75.8985 58.3682 71.666 59.5 67.9348 61.6527C64.2035 63.8053 61.1051 66.9027 58.9512 70.6333C56.7974 74.3638 55.6642 78.5959 55.6656 82.9036C55.667 87.2112 56.803 91.4425 58.9592 95.1717L71.968 117.714C73.347 120.102 74.0721 122.812 74.0702 125.57C74.0683 128.328 73.3395 131.037 71.9572 133.424Z" fill="#6F2931"/>
<path d="M108.929 162.138C108.929 158.715 109.944 155.369 111.845 152.523C113.747 149.677 116.45 147.458 119.612 146.148C122.775 144.839 126.254 144.496 129.612 145.164C132.969 145.831 136.053 147.48 138.473 149.9C140.893 152.32 142.542 155.404 143.209 158.761C143.877 162.118 143.535 165.598 142.225 168.761C140.915 171.923 138.696 174.626 135.85 176.528C133.004 178.429 129.658 179.444 126.235 179.444C123.962 179.446 121.711 178.999 119.611 178.13C117.51 177.261 115.602 175.986 113.994 174.379C112.387 172.771 111.112 170.863 110.243 168.763C109.374 166.662 108.927 164.411 108.929 162.138Z" fill="#0057B2"/>
<path d="M187.649 168.034L174.637 190.572C169.728 199.072 162.668 206.13 154.167 211.037C145.665 215.944 136.023 218.528 126.207 218.528C116.391 218.528 106.748 215.945 98.2468 211.038C89.7455 206.132 82.6851 199.074 77.7752 190.574L64.7564 168.026C62.6814 164.413 62.1267 160.124 63.2143 156.102C64.3019 152.079 66.9427 148.654 70.5559 146.579C74.169 144.504 78.4585 143.949 82.4806 145.037C86.5027 146.125 89.9281 148.765 92.0031 152.379L105.028 174.917C107.191 178.626 110.29 181.703 114.015 183.841C117.739 185.979 121.959 187.102 126.254 187.098C130.548 187.094 134.767 185.964 138.488 183.82C142.209 181.676 145.302 178.594 147.459 174.881L160.471 152.343C162.552 148.739 165.979 146.109 169.999 145.032C174.019 143.955 178.302 144.519 181.906 146.6C185.51 148.681 188.139 152.108 189.217 156.128C190.294 160.147 189.73 164.43 187.649 168.034Z" fill="#0057B2"/>
<path d="M180.493 98.1387C177.529 99.8501 174.123 100.644 170.708 100.42C167.292 100.196 164.02 98.9647 161.304 96.881C158.588 94.7972 156.552 91.955 155.451 88.7137C154.351 85.4724 154.237 81.9776 155.123 78.6713C156.009 75.365 157.855 72.3956 160.429 70.1387C163.002 67.8818 166.187 66.4388 169.581 65.992C172.974 65.5452 176.424 66.1149 179.494 67.6288C182.564 69.1428 185.116 71.5331 186.828 74.4975C189.12 78.4732 189.74 83.1961 188.552 87.6288C187.364 92.0614 184.466 95.8415 180.493 98.1387Z" fill="#007DFF"/>
<path d="M220.664 110.852L207.652 133.389C205.571 136.993 202.144 139.623 198.124 140.7C194.104 141.777 189.821 141.214 186.217 139.133C182.613 137.052 179.984 133.625 178.906 129.605C177.829 125.585 178.393 121.302 180.474 117.698L193.486 95.1609C195.636 91.4299 196.767 87.1989 196.765 82.8926C196.763 78.5863 195.629 74.3562 193.475 70.6271C191.322 66.8979 188.225 63.8009 184.496 61.647C180.767 59.493 176.537 58.3579 172.231 58.3555L146.271 58.3855C144.193 58.4129 142.13 58.0273 140.203 57.2512C138.275 56.475 136.521 55.3238 135.042 53.8642C133.563 52.4046 132.389 50.6659 131.587 48.7488C130.786 46.8317 130.373 44.7745 130.373 42.6966C130.373 40.6187 130.785 38.5614 131.587 36.6443C132.388 34.7271 133.562 32.9882 135.041 31.5285C136.52 30.0688 138.274 28.9173 140.201 28.141C142.129 27.3646 144.191 26.9789 146.269 27.006L172.306 27.0066C182.109 27.0255 191.736 29.6209 200.221 34.5329C208.705 39.4448 215.75 46.5007 220.648 54.9932C225.546 63.4858 228.126 73.1167 228.128 82.9205C228.131 92.7243 225.557 102.357 220.664 110.852Z" fill="#007DFF"/>
<path d="M310.386 85.3038V73.1836H382.606V85.3038H353.49V166.5H339.457V85.3038H310.386ZM398.565 166.5V73.1836H457.07V85.3038H412.645V113.736H454.017V125.811H412.645V154.38H457.617V166.5H398.565ZM483.76 166.5H468.815L502.396 73.1836H518.662L552.243 166.5H537.298L510.916 90.1337H510.187L483.76 166.5ZM486.266 129.957H534.747V141.804H486.266V129.957ZM565.719 73.1836H582.806L612.514 145.723H613.608L643.316 73.1836H660.403V166.5H647.007V98.9732H646.141L618.62 166.363H607.502L579.981 98.9276H579.115V166.5H565.719V73.1836ZM756.1 102.345H747.534C746.896 99.1555 745.741 96.2089 744.071 93.5054C742.43 90.7716 740.365 88.387 737.874 86.3518C735.383 84.3166 732.558 82.737 729.399 81.6131C726.24 80.4891 722.822 79.9272 719.147 79.9272C713.254 79.9272 707.877 81.4612 703.017 84.5292C698.187 87.5972 694.314 92.1081 691.398 98.0619C688.512 103.985 687.069 111.245 687.069 119.842C687.069 128.499 688.512 135.789 691.398 141.713C694.314 147.636 698.187 152.132 703.017 155.2C707.877 158.238 713.254 159.756 719.147 159.756C722.822 159.756 726.24 159.194 729.399 158.071C732.558 156.947 735.383 155.382 737.874 153.377C740.365 151.342 742.43 148.958 744.071 146.224C745.741 143.49 746.896 140.528 747.534 137.339H756.1C755.34 141.622 753.913 145.616 751.817 149.322C749.751 152.998 747.108 156.218 743.888 158.982C740.699 161.746 737.023 163.903 732.862 165.452C728.7 167.001 724.128 167.776 719.147 167.776C711.31 167.776 704.353 165.817 698.278 161.898C692.203 157.949 687.434 152.39 683.971 145.221C680.538 138.052 678.822 129.593 678.822 119.842C678.822 110.091 680.538 101.631 683.971 94.4623C687.434 87.2935 692.203 81.7498 698.278 77.8312C704.353 73.8823 711.31 71.9078 719.147 71.9078C724.128 71.9078 728.7 72.6824 732.862 74.2316C737.023 75.7504 740.699 77.9071 743.888 80.7018C747.108 83.466 749.751 86.6859 751.817 90.3615C753.913 94.037 755.34 98.0315 756.1 102.345ZM852.617 119.842C852.617 129.562 850.885 138.022 847.423 145.221C843.96 152.39 839.191 157.949 833.115 161.898C827.07 165.817 820.114 167.776 812.247 167.776C804.379 167.776 797.408 165.817 791.333 161.898C785.288 157.949 780.534 152.39 777.071 145.221C773.638 138.022 771.922 129.562 771.922 119.842C771.922 110.121 773.638 101.677 777.071 94.5079C780.534 87.3087 785.303 81.7498 791.378 77.8312C797.453 73.8823 804.41 71.9078 812.247 71.9078C820.114 71.9078 827.07 73.8823 833.115 77.8312C839.191 81.7498 843.96 87.3087 847.423 94.5079C850.885 101.677 852.617 110.121 852.617 119.842ZM844.324 119.842C844.324 111.488 842.927 104.335 840.132 98.3809C837.338 92.3967 833.525 87.825 828.696 84.6659C823.866 81.5068 818.383 79.9272 812.247 79.9272C806.141 79.9272 800.673 81.5068 795.843 84.6659C791.014 87.825 787.186 92.3815 784.361 98.3353C781.566 104.289 780.169 111.458 780.169 119.842C780.169 128.195 781.566 135.349 784.361 141.303C787.156 147.257 790.968 151.828 795.798 155.018C800.628 158.177 806.111 159.756 812.247 159.756C818.383 159.756 823.866 158.177 828.696 155.018C833.556 151.859 837.383 147.302 840.178 141.348C842.972 135.364 844.355 128.195 844.324 119.842ZM945.899 73.1836V166.5H937.606L882.473 88.3566H881.744V166.5H873.224V73.1836H881.471L936.786 151.418H937.515V73.1836H945.899ZM1043.38 73.1836V166.5H1035.09L979.959 88.3566H979.23V166.5H970.709V73.1836H978.956L1034.27 151.418H1035V73.1836H1043.38ZM1068.19 166.5V73.1836H1122.33V80.8385H1076.72V115.969H1119.45V123.624H1076.72V158.845H1123.24V166.5H1068.19ZM1217.46 102.345H1208.9C1208.26 99.1555 1207.11 96.2089 1205.44 93.5054C1203.8 90.7716 1201.73 88.387 1199.24 86.3518C1196.75 84.3166 1193.92 82.737 1190.76 81.6131C1187.6 80.4891 1184.19 79.9272 1180.51 79.9272C1174.62 79.9272 1169.24 81.4612 1164.38 84.5292C1159.55 87.5972 1155.68 92.1081 1152.76 98.0619C1149.88 103.985 1148.43 111.245 1148.43 119.842C1148.43 128.499 1149.88 135.789 1152.76 141.713C1155.68 147.636 1159.55 152.132 1164.38 155.2C1169.24 158.238 1174.62 159.756 1180.51 159.756C1184.19 159.756 1187.6 159.194 1190.76 158.071C1193.92 156.947 1196.75 155.382 1199.24 153.377C1201.73 151.342 1203.8 148.958 1205.44 146.224C1207.11 143.49 1208.26 140.528 1208.9 137.339H1217.46C1216.71 141.622 1215.28 145.616 1213.18 149.322C1211.12 152.998 1208.47 156.218 1205.25 158.982C1202.06 161.746 1198.39 163.903 1194.23 165.452C1190.06 167.001 1185.49 167.776 1180.51 167.776C1172.67 167.776 1165.72 165.817 1159.64 161.898C1153.57 157.949 1148.8 152.39 1145.34 145.221C1141.9 138.052 1140.19 129.593 1140.19 119.842C1140.19 110.091 1141.9 101.631 1145.34 94.4623C1148.8 87.2935 1153.57 81.7498 1159.64 77.8312C1165.72 73.8823 1172.67 71.9078 1180.51 71.9078C1185.49 71.9078 1190.06 72.6824 1194.23 74.2316C1198.39 75.7504 1202.06 77.9071 1205.25 80.7018C1208.47 83.466 1211.12 86.6859 1213.18 90.3615C1215.28 94.037 1216.71 98.0315 1217.46 102.345ZM1231.83 80.8385V73.1836H1299.49V80.8385H1269.92V166.5H1261.4V80.8385H1231.83Z" fill="#1C1C1C"/>
</svg>
