<svg width="80" height="74" viewBox="0 0 80 74" fill="none" xmlns="http://www.w3.org/2000/svg">
<path d="M74.7226 17.4084H64.5182L68.3563 7.91498L68.8238 6.76287C69.6599 4.68249 68.3629 2.19393 65.9336 1.21299C64.8205 0.74631 63.5792 0.683419 62.4246 1.03523C61.8845 1.19003 61.3862 1.46455 60.9668 1.83839C60.5473 2.21224 60.2176 2.67579 60.0019 3.19461L59.5345 4.34672L54.2677 17.4018L54.0109 18.0272H5.0627C2.29105 18.0272 0.0394993 20.6606 0.0394993 23.4323L0 68.7332C0.039764 70.1175 0.607435 71.4341 1.58666 72.4133C2.56589 73.3926 3.88252 73.9602 5.26679 74H74.7226C76.053 74 77.329 73.4715 78.2698 72.5307C79.2106 71.5899 79.7392 70.3139 79.7392 68.9834V30.2396V22.425C79.7374 21.095 79.2083 19.82 78.2679 18.8796C77.3275 17.9392 76.0525 17.4101 74.7226 17.4084ZM61.1738 3.66862C61.324 3.32501 61.5482 3.0188 61.8305 2.77185C62.1127 2.5249 62.4459 2.34331 62.8064 2.24002C63.676 1.98993 64.6047 2.04332 65.4398 2.39142C67.224 3.10902 68.2049 4.86024 67.6256 6.28886L67.4017 6.84846L60.9302 4.21506L61.1738 3.66862ZM60.4759 5.41324L66.9409 8.04663L50.8377 47.8241C50.8377 47.8701 50.785 47.9097 50.7653 47.9557L44.32 45.3223C44.3324 45.2753 44.3478 45.2291 44.3661 45.1841L60.4759 5.41324ZM50.0147 49.0486L45.0179 54.8355L43.5761 54.1771L44.0106 46.6061L50.0147 49.0486ZM2.61364 28.9624V23.0372C2.61364 22.379 2.87514 21.7477 3.3406 21.2822C3.80606 20.8168 4.43737 20.5553 5.09563 20.5553H53.0036L49.6066 28.9426H2.58073L2.61364 28.9624ZM77.2045 68.9702C77.2045 69.6285 76.943 70.2598 76.4776 70.7252C76.0121 71.1907 75.3808 71.4522 74.7226 71.4522H5.24704C4.58992 71.4505 3.96031 71.1882 3.49627 70.7229C3.03223 70.2576 2.77166 69.6273 2.77166 68.9702V31.5036H48.5466L43.1877 44.7562C43.1694 44.8012 43.154 44.8474 43.1416 44.8944L42.8387 44.7759L42.2594 54.9803L42.6478 55.1581L42.9177 55.2831L42.5293 58.5749C42.5246 58.6181 42.5343 58.6616 42.5569 58.6987C42.5794 58.7359 42.6136 58.7645 42.6541 58.7803C42.6946 58.796 42.7391 58.798 42.7808 58.7858C42.8226 58.7737 42.8591 58.7482 42.8848 58.7131L44.7348 56.0798L44.9455 56.1719L45.3734 56.3563L52.128 48.5219L51.9437 48.4429C51.9437 48.4034 51.9898 48.3639 52.0095 48.3178L58.8169 31.4904H77.2045V68.9702ZM77.2045 28.9624H59.8439L63.4911 19.943H74.7226C75.3808 19.943 76.0121 20.2045 76.4776 20.67C76.943 21.1354 77.2045 21.7667 77.2045 22.425V28.9624Z" fill="#0057B2"/>
</svg>
