<svg width="399" height="199" viewBox="0 0 399 199" fill="none" xmlns="http://www.w3.org/2000/svg">
<path d="M35.6302 198.709C35.6302 198.709 -33.4659 112.729 20.7844 60.0276C101.531 -18.4141 156.49 93.0656 187.595 46.9358C239.049 -29.3808 407.374 -9.79555 355.877 85.1086C328.856 134.897 419.261 127.457 382.405 198.818L35.6302 198.709Z" fill="#85B8E6"/>
<path d="M266.869 91.7546L269.363 85.9102L269.423 85.7724C269.567 85.4296 269.581 85.0456 269.461 84.6934C269.341 84.3412 269.096 84.0454 268.772 83.8623L264.146 81.2619C264.072 81.2218 264.001 81.1758 263.934 81.1241C263.709 80.9399 263.542 80.6938 263.455 80.4161C263.368 80.1384 263.364 79.8413 263.444 79.5614C264.406 76.1708 264.681 72.6221 264.253 69.1238C264.238 68.9819 264.242 68.8389 264.264 68.698C264.31 68.4364 264.423 68.1912 264.592 67.9862C264.761 67.7812 264.98 67.6234 265.228 67.528L269.373 65.9694C269.634 65.8655 269.863 65.6921 270.033 65.4679C270.203 65.2437 270.308 64.9772 270.338 64.6974C270.353 64.5195 270.34 64.3403 270.298 64.1668L268.677 57.8828C268.579 57.5075 268.343 57.1826 268.017 56.9724C267.691 56.7622 267.298 56.6819 266.916 56.7473L261.11 57.734C260.829 57.7809 260.541 57.7471 260.28 57.6366C260.018 57.526 259.793 57.3433 259.631 57.1097C259.143 56.4207 258.633 55.7647 258.079 55.1197C257.06 53.9341 255.938 52.8412 254.726 51.8537C254.483 51.6589 254.305 51.3945 254.217 51.0959C254.129 50.7973 254.134 50.479 254.232 50.1835L256.102 44.5003L256.193 44.2136C256.312 43.8584 256.293 43.4715 256.14 43.1296C255.987 42.7878 255.711 42.5161 255.366 42.3684L249.394 39.8162C249.042 39.667 248.647 39.6527 248.284 39.776C247.921 39.8992 247.617 40.1514 247.428 40.4846L244.534 45.6317C244.38 45.9104 244.141 46.1329 243.852 46.2674C243.563 46.4018 243.239 46.4412 242.926 46.38C240.227 45.8793 237.466 45.8003 234.742 46.1457C234.404 46.1864 234.063 46.1124 233.772 45.9357C233.482 45.759 233.259 45.4898 233.14 45.1714L231.282 40.2627C231.147 39.9052 230.884 39.6103 230.545 39.4347C230.205 39.2592 229.813 39.2154 229.443 39.3118L223.134 40.9379C222.776 41.0307 222.465 41.2545 222.264 41.565C222.063 41.8755 221.985 42.2502 222.047 42.6151L223.196 49.4448C223.245 49.7298 223.213 50.0229 223.105 50.2908C222.996 50.5588 222.814 50.7908 222.58 50.9607C221.993 51.3861 221.42 51.839 220.862 52.3195C219.825 53.2092 218.858 54.1767 217.968 55.2135C217.779 55.4429 217.524 55.6093 217.238 55.6908C216.952 55.7722 216.647 55.7648 216.365 55.6696L209.535 53.3875C209.174 53.2675 208.781 53.2877 208.434 53.4442C208.087 53.6007 207.812 53.882 207.663 54.2323L205.098 60.2269C204.97 60.5355 204.946 60.8778 205.03 61.2014C205.114 61.5249 205.302 61.8119 205.565 62.0184C205.622 62.0645 205.684 62.1047 205.749 62.1383L211.457 65.3534C211.718 65.4959 211.93 65.7123 212.068 65.9755C212.206 66.2386 212.263 66.5366 212.232 66.832C212.229 66.885 212.222 66.9375 212.21 66.9891C212.173 67.1437 212.145 67.3001 212.126 67.4577C211.774 69.3149 211.622 71.2045 211.674 73.094C211.684 73.4048 211.595 73.7107 211.42 73.9678C211.246 74.2249 210.994 74.4198 210.701 74.5245L205.518 76.491C205.161 76.6262 204.867 76.8893 204.693 77.2292C204.518 77.5691 204.476 77.9616 204.575 78.3307L204.933 79.7295L206.196 84.6037C206.292 84.9734 206.522 85.2939 206.843 85.5018C207.163 85.7097 207.549 85.79 207.926 85.7269L213.647 84.7622C213.944 84.7114 214.25 84.7536 214.523 84.8831C214.796 85.0125 215.022 85.223 215.171 85.4857C216.003 86.9231 216.966 88.2799 218.049 89.5386C218.858 90.4814 219.733 91.3656 220.667 92.1846L220.273 93.3766L218.665 98.2688C218.567 98.5595 218.562 98.8737 218.651 99.1675C218.74 99.4613 218.918 99.7199 219.161 99.9073C219.264 99.9881 219.377 100.054 219.498 100.103L225.507 102.684C225.851 102.827 226.235 102.84 226.588 102.719C226.941 102.598 227.237 102.353 227.422 102.03L229.395 98.5086C229.56 98.2178 229.816 97.9897 230.124 97.8596C230.432 97.7295 230.774 97.7048 231.097 97.7892C233.815 98.5275 236.633 98.8303 239.446 98.6863C239.764 98.6651 240.08 98.7476 240.347 98.9216C240.614 99.0956 240.817 99.3515 240.926 99.651L243.268 105.852C243.397 106.187 243.645 106.464 243.964 106.628C244.283 106.793 244.651 106.834 244.999 106.745L251.374 105.092C251.738 105.002 252.053 104.778 252.258 104.465C252.463 104.151 252.541 103.772 252.477 103.403L251.279 96.2995C251.227 96.0006 251.267 95.6931 251.393 95.417C251.518 95.1409 251.724 94.9091 251.984 94.7519C253.137 94.0368 254.232 93.2313 255.259 92.343C255.824 91.8579 256.363 91.3527 256.877 90.8271C257.075 90.6278 257.324 90.4869 257.598 90.4201C257.871 90.3532 258.157 90.3629 258.425 90.4482L264.972 92.6076C265.338 92.7276 265.735 92.7067 266.086 92.5489C266.437 92.3911 266.716 92.1078 266.869 91.7546ZM249.85 64.3377C252.799 68.6621 253.158 73.5543 251.538 77.3096C245.83 90.4592 228.126 89.2823 224.118 75.7289C223.134 72.2465 223.551 68.3645 226.063 64.5844C231.943 55.8267 244.208 56.0748 249.85 64.3377Z" fill="#DFEDFB"/>
<path d="M185.618 171.663L191.344 161.843L191.482 161.607C191.816 161.031 191.927 160.352 191.792 159.699C191.657 159.047 191.287 158.467 190.752 158.071L183.118 152.421C182.995 152.329 182.879 152.228 182.772 152.117C182.413 151.741 182.172 151.267 182.079 150.754C181.986 150.242 182.045 149.714 182.249 149.234C184.71 143.429 185.986 137.19 186.004 130.884C186.01 130.629 186.048 130.376 186.118 130.13C186.257 129.677 186.51 129.267 186.854 128.94C187.197 128.613 187.619 128.38 188.079 128.264L195.783 126.418C196.272 126.294 196.718 126.038 197.072 125.678C197.425 125.318 197.674 124.868 197.789 124.377C197.855 124.064 197.871 123.742 197.836 123.424L196.353 111.908C196.263 111.22 195.918 110.59 195.386 110.145C194.855 109.699 194.175 109.469 193.482 109.5L182.95 109.961C182.443 109.981 181.941 109.857 181.502 109.602C181.063 109.348 180.705 108.974 180.47 108.525C179.756 107.204 178.998 105.915 178.158 104.648C176.61 102.315 174.857 100.125 172.922 98.1022V98.0912C172.535 97.691 172.279 97.1822 172.189 96.6328C172.099 96.0834 172.178 95.5196 172.417 95.0167L176.999 85.3412L177.225 84.852C177.514 84.2468 177.564 83.5551 177.367 82.9142C177.169 82.2734 176.738 81.7304 176.158 81.393L166.12 75.5334C165.527 75.1907 164.829 75.0777 164.159 75.2159C163.488 75.3541 162.891 75.7339 162.482 76.2831L156.199 84.779C155.861 85.2378 155.387 85.5781 154.845 85.7514C154.302 85.9246 153.718 85.9219 153.177 85.7436C148.495 84.2541 143.609 83.5005 138.695 83.5097C138.087 83.5058 137.498 83.2981 137.022 82.9199C136.546 82.5416 136.21 82.0147 136.069 81.4233L133.864 72.2949C133.704 71.6303 133.304 71.0484 132.74 70.6616C132.177 70.2748 131.49 70.1104 130.812 70.2003L119.249 71.6831C118.588 71.7666 117.984 72.0957 117.555 72.6049C117.127 73.1142 116.906 73.7661 116.936 74.431L117.459 86.8116C117.48 87.3269 117.358 87.8381 117.105 88.2875C116.852 88.737 116.479 89.1069 116.027 89.3556C114.892 89.9794 113.774 90.656 112.675 91.3855C110.638 92.7342 108.708 94.2361 106.9 95.878C106.512 96.2422 106.023 96.4803 105.497 96.561C104.971 96.6417 104.433 96.5611 103.954 96.33L92.3322 90.8094C91.7175 90.5209 91.0173 90.4725 90.3688 90.6736C89.7202 90.8748 89.1703 91.311 88.8267 91.8967L82.9416 101.969C82.6454 102.488 82.5274 103.09 82.6055 103.683C82.6836 104.275 82.9536 104.826 83.3743 105.25C83.4648 105.345 83.5645 105.43 83.6719 105.505L93.0955 112.484C93.5261 112.795 93.8551 113.226 94.0412 113.723C94.2273 114.22 94.2622 114.762 94.1414 115.279C94.1249 115.373 94.0995 115.465 94.0656 115.554C93.9677 115.821 93.8836 116.092 93.8134 116.367C92.7764 119.586 92.0876 122.907 91.759 126.273C91.7083 126.827 91.483 127.351 91.1155 127.769C90.748 128.187 90.2573 128.477 89.7141 128.598L80.0755 130.94C79.4135 131.101 78.8342 131.5 78.4495 132.063C78.0648 132.625 77.9018 133.309 77.9921 133.985L78.3187 136.546L79.4789 145.482C79.5653 146.16 79.9033 146.78 80.4257 147.221C80.9481 147.661 81.6169 147.889 82.2995 147.859L92.6725 147.407C93.2109 147.384 93.7434 147.527 94.1979 147.817C94.6524 148.106 95.0069 148.529 95.2134 149.026C96.3697 151.763 97.779 154.386 99.423 156.861C100.652 158.715 102.011 160.48 103.489 162.142L102.525 164.17L98.5852 172.501C98.3458 172.994 98.2668 173.551 98.3592 174.092C98.4516 174.632 98.7108 175.131 99.1006 175.517C99.2626 175.684 99.4483 175.827 99.6517 175.94L109.745 181.866C110.325 182.195 111.005 182.302 111.658 182.166C112.311 182.03 112.893 181.661 113.293 181.127L117.577 175.315C117.934 174.835 118.44 174.487 119.016 174.324C119.592 174.162 120.205 174.194 120.76 174.416C125.422 176.33 130.357 177.493 135.383 177.861C135.951 177.893 136.494 178.108 136.929 178.475C137.364 178.841 137.669 179.339 137.797 179.894L140.587 191.433C140.741 192.056 141.119 192.602 141.648 192.965C142.178 193.329 142.823 193.484 143.46 193.403L155.146 191.887C155.81 191.806 156.419 191.477 156.85 190.966C157.281 190.455 157.503 189.799 157.471 189.131L156.92 176.252C156.894 175.71 157.033 175.173 157.317 174.711C157.601 174.248 158.018 173.883 158.513 173.661C160.72 172.647 162.844 171.46 164.863 170.111C165.974 169.376 167.043 168.602 168.071 167.79C168.467 167.479 168.942 167.284 169.442 167.226C169.942 167.168 170.449 167.249 170.906 167.461L182.049 172.749C182.672 173.048 183.384 173.102 184.045 172.901C184.706 172.7 185.267 172.258 185.618 171.663ZM161.492 119.203C163 122.183 163.987 125.399 164.41 128.712C164.518 129.539 164.564 130.373 164.548 131.206C164.468 135.055 163.308 139.715 161.609 142.605C148.554 164.683 117.377 158.659 113.271 133.705C113.208 133.291 113.146 132.878 113.095 132.465C112.593 128.566 113.828 122.563 115.789 119.163C116.774 117.456 117.916 115.844 119.2 114.348C131.588 100.113 153.314 103.274 161.492 119.203Z" fill="#D6E8FC"/>
<path d="M51.3203 197.969C51.3203 197.969 51.0158 195.597 50.3103 194.188C49.6048 192.778 45.1183 193.675 45.1183 193.675C45.1183 193.675 44.2212 194.444 44.0283 198.034L51.3203 197.969Z" fill="#233862"/>
<path d="M66.6039 197.937C65.5498 197.293 66.1492 192.492 66.1492 192.492C66.1492 192.492 71.0615 188.562 71.7381 191.572C72.4146 194.581 76.4051 195.932 78.6759 196.3C80.2454 196.555 80.7304 197.423 80.8806 197.937H66.6039Z" fill="#233862"/>
<path d="M56.4311 163.02C56.6035 163.896 56.7236 164.782 56.7908 165.672C57.2482 174.582 64.2894 194.951 65.5489 195.425C67.4972 196.161 70.5659 194.598 72.1725 194.086C72.8367 193.873 73.2859 193.202 73.1371 192.521C69.6496 176.489 68.3681 153.403 67.901 139.741C67.6653 132.851 66.4831 128.102 66.4831 128.102C66.4831 128.102 49.31 123.518 49.208 129.316C49.1198 134.438 54.8989 154.557 56.4311 163.02Z" fill="#213F7A"/>
<path d="M56.4304 163.02L67.903 139.73C67.6674 132.84 66.4851 128.091 66.4851 128.091C66.4851 128.091 49.312 123.508 49.21 129.305C49.1191 134.438 54.8981 154.557 56.4304 163.02Z" fill="#233862"/>
<path d="M60.2509 129.33L51.1717 195.137C51.1717 195.137 47.1854 196.102 44.0837 195.33C44.0837 195.33 41.4257 160.327 41.6475 151.868C41.8694 143.41 39.7391 129.227 42.1325 127.664C44.526 126.101 60.2509 129.33 60.2509 129.33Z" fill="#213F7A"/>
<path d="M40.3635 128.233C40.3431 128.521 40.4223 128.807 40.5879 129.044C40.7534 129.281 40.9953 129.454 41.2729 129.534C42.5392 129.902 43.9998 130.158 46.8163 130.741C50.2977 131.444 53.8402 131.8 57.3919 131.803C64.3463 131.849 66.9795 129.451 66.9795 129.451C67.2785 129.451 66.8211 128.001 66.4077 121.079C66.2699 118.736 66.1321 115.764 66.037 112.007C65.9488 108.628 65.8896 104.612 65.8841 99.8498C65.8841 94.1197 57.0089 87.9556 56.8449 87.9556C56.8449 88.7824 55.5441 90.2983 53.5379 90.4361C51.1609 90.5918 48.2452 89.4081 48.2452 88.0396C48.2452 88.0258 43.9489 94.9135 42.4235 102.252C42.2292 103.182 42.079 104.165 41.9591 105.197C41.6009 108.311 41.9495 106.091 40.3635 128.233Z" fill="#0057B2"/>
<path d="M58.502 87.7467C58.502 87.7467 65.8186 87.6772 67.5805 90.4853C69.3424 93.2934 73.2049 108.397 71.1875 113.423C69.17 118.448 65.4029 111.338 63.3096 108.265C61.2163 105.193 58.502 87.7467 58.502 87.7467Z" fill="#007DFF"/>
<path d="M56.9295 86.6977V87.5508C56.9295 87.5508 57.161 90.216 53.8787 90.606C50.5965 90.996 48.1521 90.1154 48.2416 88.0579C48.5365 86.4648 48.819 84.8222 48.841 83.5034C48.8473 82.9691 48.8081 82.4352 48.7239 81.9075L55.0844 81.7808L56.9584 82.0867L56.9295 86.6977Z" fill="#FFB27D"/>
<path d="M56.9542 82.0867L56.9294 86.6977C56.2117 87.0333 55.4288 87.206 54.6365 87.2035C51.714 87.2035 49.8235 85.0592 48.8369 83.5034C48.8431 82.9691 48.8039 82.4352 48.7197 81.9075L55.0802 81.7808L56.9542 82.0867Z" fill="#E2915A"/>
<path d="M48.2312 80.8833C48.9698 84.8549 54.0943 84.7253 56.31 84.4759C56.9328 84.4056 57.3255 84.3271 57.3255 84.3271C58.0283 84.1383 58.4196 83.0317 58.6015 81.5819C58.9639 78.7114 58.5064 74.4986 58.0228 73.421C57.2924 71.8003 55.9187 70.046 50.7569 71.3111C45.5952 72.5762 47.2846 75.794 48.2312 80.8833Z" fill="#FFB27D"/>
<path d="M65.2778 99.1152C65.2778 99.1152 68.4663 106.16 68.374 108.271C67.3282 108.256 66.2857 108.39 65.2778 108.669C62.7851 109.412 65.2778 99.1152 65.2778 99.1152Z" fill="#007DFF"/>
<path d="M59.6066 69.6396C57.8983 69.4447 56.2292 68.9932 54.6557 68.3001C52.4799 67.3547 49.7365 68.3966 48.8464 68.8651C48.8784 68.6727 48.9522 68.4897 49.0627 68.329C49.0627 68.329 48.6631 68.6129 48.6038 69.0098C48.5625 69.0401 48.5446 69.0608 48.5556 69.0677C48.5666 69.0746 48.1023 68.985 47.8102 69.1159C47.8102 69.1159 48.0141 69.087 48.0857 69.2179C48.0945 69.2317 48.1057 69.2438 48.1188 69.2537C44.7264 70.8936 44.4122 76.2557 45.5007 77.496C46.8139 78.9885 48.7595 82.311 48.7595 82.311C48.7595 82.311 48.9635 81.5558 48.7251 80.2439C48.4867 78.932 49.6194 78.9306 51.0524 78.3339C52.4855 77.7372 51.2922 76.0642 52.5461 75.0499C53.8 74.0357 58.3968 74.6365 58.3334 73.8551C60.0489 73.2322 59.6066 69.8146 59.6066 69.6396Z" fill="#233862"/>
<path d="M47.1924 112.31C48.5386 117.718 63.0978 120.511 66.4076 121.079C66.2698 118.736 66.132 115.764 66.0369 112.007L47.1924 112.31Z" fill="#0057B2"/>
<path d="M50.3838 114.069C50.246 114.069 47.1471 113.606 46.5932 113.329C46.0392 113.052 43.4997 109.444 45.1615 108.52C46.8233 107.595 51.285 111.294 51.285 111.294L50.3838 114.069Z" fill="#FFB27D"/>
<path d="M69.2306 115.14C69.2306 115.14 57.2495 115.79 49.208 114.069C49.208 114.069 49.0054 111.746 51.5325 110.714C51.5325 110.714 64.0648 108.057 67.0755 108.797C70.0863 109.537 69.2306 115.14 69.2306 115.14Z" fill="#007DFF"/>
<path d="M41.7153 105.735C44.1956 108.734 47.4516 111.183 51.0356 111.756C51.7415 110.55 52.0514 109.152 51.9216 107.76C51.8307 106.67 51.471 105.417 50.6167 104.086C50.3365 103.636 50.1007 103.16 49.9126 102.665C47.9559 97.6724 48.2467 88.0479 48.2467 88.0479C48.2467 88.0479 39.9364 88.9174 37.3473 92.6176C35.7627 94.8762 37.7855 100.995 41.7153 105.735Z" fill="#007DFF"/>
<path d="M56.3085 84.4755C56.9313 84.4052 57.324 84.3267 57.324 84.3267C58.0268 84.1379 58.4181 83.0313 58.6 81.5815C57.2827 81.9054 56.6791 82.9238 56.427 83.3579C56.3154 83.5536 56.2919 83.9904 56.3085 84.4755Z" fill="#E2915A"/>
<path d="M59.6574 86.7226C59.6574 86.7226 62.5276 81.9861 60.2968 81.7808C58.0659 81.5754 57.1675 83.0844 56.845 83.6398C56.5226 84.1952 56.9291 86.6978 56.9291 86.6978L59.6574 86.7226Z" fill="#FFB27D"/>
<path d="M48.7187 107.594C48.8047 108.162 48.9694 108.716 49.2079 109.239C49.644 110.191 50.2651 111.047 51.035 111.757C58.4882 108.392 59.9915 96.8378 60.2492 90.4889C60.3512 87.9367 60.2492 86.2266 60.2492 86.2266C56.8871 85.1131 55.9418 87.0534 55.9418 87.0534C55.9418 87.0534 51.972 96.4946 49.912 102.666C49.1252 105.021 48.6181 106.903 48.7187 107.594Z" fill="#007DFF"/>
<path d="M41.7148 105.735C44.1951 108.734 47.4511 111.183 51.0351 111.756C58.4883 108.391 59.9917 96.8371 60.2493 90.4883C60.2493 90.4883 56.7218 103.282 51.9211 107.754C51.0544 108.563 50.1436 109.099 49.2066 109.24C49.2066 109.24 43.1534 107.528 41.883 105.917C41.8377 105.847 41.7809 105.786 41.7148 105.735Z" fill="#007DFF"/>
<path d="M352.395 175.027C352.395 175.027 348.75 170.773 352.17 168.072C352.17 168.072 354.67 166.556 356.706 166.681C356.706 166.681 353.812 171.522 354.754 172.005C355.695 172.487 357.581 166.378 357.581 166.378C357.581 166.378 363.268 165.827 365.096 166.706C365.096 166.706 360.235 170.683 361.259 170.92C362.283 171.157 367.534 167.253 367.534 167.253C367.534 167.253 372.825 168.153 372.543 171.387C372.26 174.622 370.437 175.613 369.637 175.522C368.836 175.431 364.147 173.646 364.045 174.303C363.943 174.961 366.764 177.106 368.741 177.206C368.741 177.206 365.009 181.322 362.529 180.134C360.049 178.946 359.838 177.064 358.292 176.358C356.746 175.653 355.427 175.653 356.065 176.373C356.703 177.094 359.502 177.793 360.385 179.357C361.268 180.921 362.062 181.975 359.496 181.589C356.931 181.203 352.761 179.327 352.578 177.18L352.395 175.027Z" fill="#C8DBF4"/>
<path d="M369.941 171.469C369.941 171.469 355.568 170.917 352.393 175.027C352.393 175.027 351.692 177.128 349.532 179.044L349.195 179.962C349.195 179.962 351.685 177.335 352.577 177.177C352.577 177.177 351.184 172.083 369.941 171.469Z" fill="#C8DBF4"/>
<path d="M349.533 179.044C349.533 179.044 346.448 181.326 346.234 185.402L346.794 185.453C346.794 185.453 347.779 181.237 349.561 179.588C351.342 177.94 349.533 179.044 349.533 179.044Z" fill="#C8DBF4"/>
<path d="M339.65 169.677C339.65 169.677 345.45 166.429 342.744 162.022C342.744 162.022 340.579 159.316 338.259 158.62C338.259 158.62 339.499 165.192 338.259 165.347C337.019 165.503 337.409 157.924 337.409 157.924C337.409 157.924 331.3 154.984 328.904 155.217C328.904 155.217 332.692 161.635 331.455 161.48C330.217 161.326 325.965 154.83 325.965 154.83C325.965 154.83 319.702 153.67 318.696 157.382C317.69 161.095 319.315 162.95 320.244 163.181C321.172 163.413 327.125 163.337 326.971 164.11C326.816 164.883 322.801 166.115 320.552 165.426C320.552 165.426 323.033 171.535 326.275 171.225C329.517 170.915 330.527 168.906 332.538 168.744C334.548 168.583 336.017 169.13 335.018 169.672C334.019 170.213 330.608 169.85 328.988 171.229C327.368 172.608 326.049 173.46 329.065 174.079C332.081 174.698 337.493 174.312 338.573 171.991L339.65 169.677Z" fill="#C8DBF4"/>
<path d="M321.558 158.542C321.558 158.542 337.795 163.8 339.65 169.677C339.65 169.677 339.573 172.307 341.197 175.327V176.488C341.197 176.488 339.495 172.544 338.568 172.002C338.565 171.997 342.199 166.894 321.558 158.542Z" fill="#C8DBF4"/>
<path d="M341.196 175.322C341.196 175.322 343.7 179.125 342.272 183.754L341.627 183.582C341.627 183.582 342.253 178.483 340.938 175.919C339.624 173.354 341.196 175.322 341.196 175.322Z" fill="#C8DBF4"/>
<path d="M348.874 165.198C348.874 165.198 341.23 160.917 344.797 155.107C344.797 155.107 347.651 151.539 350.708 150.621C350.708 150.621 349.078 159.285 350.708 159.489C352.339 159.693 351.83 149.705 351.83 149.705C351.83 149.705 359.881 145.832 363.041 146.138C363.041 146.138 358.047 154.598 359.677 154.394C361.307 154.19 366.914 145.628 366.914 145.628C366.914 145.628 375.171 144.099 376.495 148.992C377.819 153.886 375.679 156.33 374.457 156.636C373.235 156.942 365.386 156.84 365.589 157.86C365.791 158.88 371.094 160.51 374.049 159.592C374.049 159.592 370.788 167.646 366.506 167.238C362.225 166.83 360.901 164.18 358.251 163.976C355.601 163.772 353.664 164.486 354.99 165.2C356.315 165.914 360.799 165.433 362.939 167.253C365.079 169.073 366.812 170.194 362.837 171.01C358.862 171.826 351.728 171.316 350.298 168.254L348.874 165.198Z" fill="#D4E4F8"/>
<path d="M372.725 150.519C372.725 150.519 351.322 157.451 348.876 165.198C348.876 165.198 348.978 168.664 346.837 172.64V174.17C346.837 174.17 349.08 168.97 350.302 168.258C350.302 168.256 345.513 161.529 372.725 150.519Z" fill="#D4E4F8"/>
<path d="M346.835 172.639C346.835 172.639 343.528 177.652 345.416 183.754L346.266 183.525C346.266 183.525 345.44 176.805 347.169 173.424C348.898 170.044 346.835 172.639 346.835 172.639Z" fill="#D4E4F8"/>
<path d="M348.618 196.984C352.587 196.982 356.393 195.404 359.2 192.597C362.007 189.789 363.584 185.982 363.586 182.012H333.644C333.645 185.983 335.223 189.791 338.031 192.599C340.839 195.406 344.647 196.984 348.618 196.984Z" fill="#D4E4F8"/>
<path d="M363.799 197.748H333.438C333.438 197.259 333.632 196.789 333.978 196.443C334.325 196.096 334.794 195.902 335.284 195.902H361.951C362.194 195.902 362.434 195.949 362.658 196.042C362.882 196.135 363.086 196.271 363.257 196.442C363.429 196.614 363.565 196.817 363.658 197.041C363.751 197.266 363.799 197.506 363.799 197.748Z" fill="#D4E4F8"/>
<path d="M363.931 182.012H333.151V182.471H363.931V182.012Z" fill="#9FC1F4"/>
<path d="M296.543 82.1482C294.338 81.0044 292.573 81.7237 292.573 81.7237C285.828 80.9313 283.86 88.7974 283.953 91.5081C284.045 94.2188 284.352 97.121 281.334 100.636C272.636 110.793 290.856 111.248 290.856 111.248C291.009 103.132 300.736 106.094 300.31 106.915C312.783 109.899 301.554 84.7486 296.543 82.1482Z" fill="#163560"/>
<path d="M270.525 115.978C270.525 115.978 269.34 114.172 268.384 114.136C267.427 114.101 265.658 113.606 265.799 113.96C265.939 114.314 267.039 114.35 267.145 114.562C267.251 114.775 265.516 115.093 265.02 115.129C264.524 115.165 263.357 115.129 263.391 115.377C263.426 115.625 265.497 116.65 266.959 116.51C268.421 116.369 270.224 116.934 270.224 116.934L270.525 115.978Z" fill="#FFB27D"/>
<path d="M287.68 116.562C287.161 117.531 286.554 118.449 285.865 119.306C284.457 121.071 282.282 123.111 279.555 123.513C278.252 123.704 276.977 123.425 275.806 122.904C272.499 121.432 270.001 118.049 270.001 118.049C269.825 117.609 269.767 117.132 269.833 116.663C269.898 116.194 270.084 115.75 270.373 115.375C270.373 115.375 277.063 116.88 277.701 116.562C278.339 116.244 282.055 105.537 282.937 104.188C283.819 102.839 286.839 102.143 286.839 102.143L287.68 116.562Z" fill="#F9DDBF"/>
<path d="M285.862 119.306C284.453 121.071 282.279 123.11 279.552 123.513C278.249 123.704 276.974 123.425 275.803 122.904C275.932 122.922 279.248 123.33 280.561 120.974C281.906 118.567 283.361 114.743 285.36 116.013C286.223 116.563 286.184 117.93 285.862 119.306Z" fill="#F2CCAA"/>
<path d="M312.64 188.794C312.64 188.794 314.681 190.658 314.282 191.981C313.884 193.304 312.042 194.186 311.792 195.807C311.543 197.427 310.552 198.308 309.651 198.308H305.38C305.38 198.308 304.72 197.168 306.314 196.825C307.908 196.482 308.507 194.58 308.408 192.815C308.309 191.05 308.557 188.696 308.557 188.696L311.944 187.912L312.64 188.794Z" fill="#233862"/>
<path d="M295.36 189.585C295.36 189.585 296.094 197.48 295.199 197.921L283.728 197.898C283.728 197.898 283.728 196.573 285.57 196.28C287.412 195.986 290.649 194.902 291.196 192.504C291.743 190.106 295.36 189.585 295.36 189.585Z" fill="#233862"/>
<path d="M303.533 132.953C301.173 127.658 299.729 126.138 300.004 124.496C300.21 123.272 299.38 101.691 299.38 101.691C299.105 101.604 298.538 101.527 298.231 101.458C297.754 101.356 297.311 101.135 296.944 100.815C296.576 100.496 296.295 100.087 296.128 99.6295C295.726 98.5036 295.406 96.843 295.415 94.7607L295.111 94.82L290.028 95.8329C290.028 95.8329 290.144 97.4328 290.147 98.9405V98.9777C290.151 99.6144 289.947 100.235 289.566 100.745C289.185 101.256 288.649 101.628 288.037 101.805L286.836 102.149C286.836 102.149 284.969 107.48 284.612 112.956C284.255 118.431 288.007 120.811 284.584 131.754C281.088 142.926 304.838 135.877 303.533 132.953Z" fill="#FFB27D"/>
<path d="M290.027 95.8326C290.027 95.8326 290.143 97.4325 290.146 98.9401C292.991 98.8588 294.495 96.2639 295.106 94.8252L290.027 95.8326Z" fill="#E8945B"/>
<path d="M289.079 97.254C289.079 97.254 295.81 97.3656 295.815 93.1721C295.821 88.9786 296.692 86.1687 292.394 85.9207C288.096 85.6726 287.26 87.2712 286.917 88.6768C286.574 90.0825 287.327 97.1176 289.079 97.254Z" fill="#FFB27D"/>
<path d="M289.33 85.817C289.33 85.817 291.172 90.7367 294.001 91.4671C296.83 92.1975 298.056 91.4368 298.056 91.4368C296.662 90.2103 295.736 88.5376 295.438 86.7045C295.438 86.7045 290.72 83.4756 289.33 85.817Z" fill="#163560"/>
<path d="M289.784 86.2165C289.784 86.2165 288.417 86.7278 287.855 87.7241C287.176 88.8887 286.859 90.2292 286.945 91.5745C286.945 91.5745 285.556 88.2299 287.117 86.3378C288.772 84.3327 289.784 86.2165 289.784 86.2165Z" fill="#163560"/>
<path d="M290.544 94.6533C290.371 94.8488 290.156 95.0017 289.914 95.0999C289.672 95.1982 289.411 95.2392 289.151 95.2197C288.933 95.2066 288.722 95.1359 288.539 95.0149C288.357 94.8939 288.21 94.7268 288.113 94.5307C288.113 94.5307 289.488 94.2041 290.544 94.6533Z" fill="#EBF3FA"/>
<path d="M304.185 111.238C304.288 113.004 304.288 114.774 304.185 116.54C304.071 118.457 302.132 121.025 301.856 121.661C301.167 123.254 300.387 123.513 300.387 123.513L294.365 124.989L292.248 125.507L285.569 123.513C285.569 123.513 282.528 115.022 283.749 110.242C284.97 105.461 286.837 102.143 286.837 102.143C286.837 102.143 292.285 107.48 299.376 101.691L304.185 111.238Z" fill="#F9DDBF"/>
<path d="M302.422 117.322C302.309 119.239 302.133 121.025 301.857 121.66C301.168 123.254 300.388 123.513 300.388 123.513L294.365 124.989L291.747 124.22C291.747 124.22 300.479 122.897 299.512 115.383L302.422 117.322Z" fill="#F2CCAA"/>
<path d="M285.992 124.802C285.992 124.802 282.685 135.097 282.473 138.602C282.261 142.106 288.795 188.396 289.058 190.011C289.306 191.527 291.195 192.504 291.195 192.504C291.195 192.504 292.065 193.017 293.306 192.667C295.027 192.18 295.571 191.599 295.571 191.599C295.571 191.599 298.145 158.585 296.552 146.793C295.583 139.501 295.044 132.158 294.94 124.802H285.992Z" fill="#007DFF"/>
<path d="M300.003 124.497C300.003 124.497 305.047 131.266 305.514 135.841C305.981 140.416 306.251 156.491 307.253 160.952C308.255 165.413 311.938 173.999 311.938 187.913C311.938 187.913 311.555 188.711 310.374 189.135C309.922 189.287 309.462 189.414 308.996 189.516C308.523 189.624 308.027 189.569 307.588 189.361C307.15 189.153 306.794 188.803 306.578 188.368C304.09 183.356 296.161 167.192 295.754 163.838C295.468 161.464 292.964 145.749 287.503 136.527C286.193 134.314 288.308 125.503 288.308 125.503L300.003 124.497Z" fill="#0057B2"/>
<path d="M290.391 94.7652C290.391 94.7652 290.275 95.2599 289.046 95.1786C289.046 95.1786 288.014 95.1152 288.046 94.5723C288.046 94.5764 289.046 94.1892 290.391 94.7652Z" fill="white"/>
<path d="M285.465 123.212C285.465 123.212 286.794 124.262 289.431 124.315C292.581 124.378 300.387 123.511 300.387 123.511C300.602 124.154 300.714 124.827 300.72 125.504C300.72 125.504 291.185 127.909 285.661 125.856C285.661 125.857 284.949 124.516 285.465 123.212Z" fill="#233862"/>
<path d="M288.674 127.031C287.881 127.031 287.236 126.301 287.236 125.404C287.236 124.507 287.881 123.776 288.674 123.776C289.466 123.776 290.111 124.507 290.111 125.404C290.111 126.301 289.466 127.031 288.674 127.031ZM288.674 124.253C288.144 124.253 287.709 124.77 287.709 125.404C287.709 126.038 288.14 126.555 288.674 126.555C289.207 126.555 289.638 126.039 289.638 125.404C289.638 124.769 289.204 124.253 288.674 124.253Z" fill="white"/>
<path d="M299.005 111.688L289.237 120.195L300.881 133.567L310.649 125.06L299.005 111.688Z" fill="#007DFF"/>
<path d="M298.183 125.105C298.183 125.105 294.6 125.519 294.615 126.373C294.63 127.228 295.507 128.97 295.949 129.047C296.391 129.124 298.862 126.686 298.862 126.686L298.183 125.105Z" fill="#FFB27D"/>
<path d="M299.376 101.691C299.376 101.691 304.153 102.026 305.99 106.478C307.827 110.931 311.296 118.408 311.296 119.667C311.296 120.925 309.355 124.801 298.929 127.031C298.929 127.031 297.852 125.897 297.916 125C297.916 125 304.424 119.409 304.407 118.756C304.373 117.515 303.34 115.888 297.626 110.172C296.069 108.617 299.376 101.691 299.376 101.691Z" fill="#F9DDBF"/>
<path d="M346.809 113.323L349.659 123.284C349.699 123.427 349.714 123.576 349.704 123.724C349.686 123.987 349.588 124.238 349.422 124.443C349.256 124.648 349.031 124.797 348.778 124.869L331.482 129.819C331.321 129.866 331.151 129.88 330.984 129.86C330.817 129.841 330.655 129.789 330.508 129.708C330.361 129.626 330.231 129.516 330.127 129.384C330.022 129.252 329.945 129.1 329.899 128.938L327.049 118.982C326.956 118.655 326.996 118.305 327.161 118.007C327.326 117.71 327.602 117.491 327.929 117.397L345.224 112.448C345.551 112.355 345.9 112.395 346.197 112.559C346.494 112.723 346.714 112.998 346.809 113.323Z" fill="#CDE0FB"/>
<path d="M349.703 123.73C349.686 123.993 349.587 124.244 349.422 124.449C349.256 124.654 349.031 124.803 348.777 124.875L331.482 129.825C331.227 129.898 330.956 129.89 330.706 129.802C330.456 129.715 330.24 129.552 330.086 129.336L338.896 121.309L349.703 123.73Z" fill="#BED7FB"/>
<path d="M346.809 113.324L339.065 122.94L327.196 119.495L327.049 118.985C326.956 118.658 326.996 118.308 327.161 118.011C327.326 117.713 327.602 117.494 327.929 117.4L345.224 112.452C345.55 112.358 345.9 112.397 346.197 112.561C346.493 112.724 346.714 112.999 346.809 113.324Z" fill="#DFEBFD"/>
<path d="M200.363 198.034H200.314C200.245 198.034 200.177 198.02 200.113 197.993C200.05 197.966 199.992 197.927 199.944 197.878C199.896 197.829 199.858 197.77 199.833 197.706C199.808 197.642 199.795 197.573 199.797 197.505L200.581 163.488L202.893 163.212L200.921 197.5C200.915 197.644 200.853 197.779 200.749 197.879C200.645 197.978 200.507 198.034 200.363 198.034Z" fill="#B0D4FF"/>
<path d="M186.893 198.034H186.843C186.774 198.034 186.706 198.02 186.643 197.993C186.579 197.966 186.522 197.927 186.474 197.878C186.425 197.828 186.388 197.77 186.362 197.706C186.337 197.642 186.325 197.573 186.326 197.505L187.11 163.488L189.423 163.212L187.451 197.5C187.444 197.644 187.382 197.779 187.278 197.879C187.174 197.978 187.036 198.034 186.893 198.034Z" fill="#95C0F4"/>
<path d="M224.063 198.034H224.111C224.18 198.034 224.249 198.02 224.312 197.993C224.376 197.967 224.433 197.927 224.482 197.878C224.53 197.829 224.568 197.77 224.593 197.706C224.619 197.642 224.631 197.573 224.629 197.505L223.845 163.488L221.533 163.212L223.504 197.5C223.511 197.644 223.573 197.78 223.677 197.879C223.781 197.978 223.919 198.034 224.063 198.034Z" fill="#B0D4FF"/>
<path d="M185.361 161.378V138.07C185.361 137.094 185.553 136.129 185.927 135.228C186.3 134.327 186.847 133.508 187.536 132.818C188.226 132.129 189.044 131.582 189.945 131.208C190.846 130.835 191.812 130.643 192.787 130.643H209.578C210.554 130.643 211.519 130.835 212.42 131.208C213.321 131.582 214.14 132.129 214.829 132.818C215.519 133.508 216.066 134.327 216.439 135.228C216.812 136.129 217.004 137.094 217.004 138.07V162.27L185.361 161.378Z" fill="#B0D4FF"/>
<path d="M185.361 161.378H220.012V165.058H187.591C187 165.058 186.432 164.823 186.014 164.405C185.596 163.987 185.361 163.42 185.361 162.828V161.378Z" fill="#95C0F4"/>
<path d="M223.9 161.378H199.37C198.46 161.378 197.722 162.116 197.722 163.027V163.41C197.722 164.32 198.46 165.058 199.37 165.058H223.9C224.81 165.058 225.548 164.32 225.548 163.41V163.027C225.548 162.116 224.81 161.378 223.9 161.378Z" fill="#B0D4FF"/>
<path d="M222.947 155.571C220.541 159.758 217.515 161.374 217.515 161.374H204.928C204.928 161.374 224.782 152.377 222.947 155.571Z" fill="#233862"/>
<path d="M213.277 187.969C213.127 188.134 213.028 188.338 212.991 188.558C212.954 188.778 212.981 189.004 213.069 189.209C213.068 189.211 213.068 189.214 213.069 189.216C213.368 190.043 214.36 190.972 215.512 191.896C215.659 192.016 215.787 192.124 215.904 192.224C215.935 192.25 215.965 192.277 215.993 192.303L216.06 192.363C217.135 193.354 216.73 193.582 218.66 195.591C220.865 197.881 222.381 197.923 222.808 197.715C223.172 197.537 222.432 196.321 221.61 194.958C221.57 194.894 221.532 194.821 221.491 194.76L221.164 194.209C220.199 192.566 220.449 191.796 220.678 189.35C220.862 187.362 223.768 178.249 223.768 178.249L219.55 177.523C219.55 177.523 218.28 184.78 216.881 185.898C216.133 186.493 215.295 186.501 214.576 186.942C214.525 186.972 214.476 187.004 214.426 187.037C214.003 187.294 213.616 187.608 213.277 187.969Z" fill="#FFB27D"/>
<path d="M213.277 187.968C213.127 188.134 213.028 188.338 212.991 188.558C212.954 188.778 212.981 189.004 213.069 189.209C213.068 189.211 213.068 189.213 213.069 189.216C213.435 190.042 214.403 190.966 215.516 191.888C215.662 192.009 215.791 192.119 215.904 192.224C215.935 192.25 215.965 192.276 215.993 192.303L216.06 192.363C217.135 193.354 216.73 193.581 218.66 195.591C220.865 197.881 222.381 197.922 222.808 197.714C223.172 197.536 222.432 196.321 221.61 194.958C220.07 194.356 218.717 193.358 217.687 192.064C216.362 190.372 215.483 188.206 214.576 186.94C214.525 186.971 214.476 187.002 214.426 187.036C214.002 187.293 213.616 187.607 213.277 187.968Z" fill="#233862"/>
<path d="M247.291 185.333C247.552 186.636 249.408 186.418 251.481 185.912C253.555 185.406 253.062 186.007 256.012 185.681C258.962 185.354 259.856 184.253 259.947 183.815C260.027 183.426 258.569 183.288 257.006 183.108L256.413 183.038C254.648 182.816 253.355 181.676 251.751 180.74C250.236 179.854 247.965 176.242 247.965 176.242L243.918 176.563C243.918 176.563 246.041 179.789 246.864 181.191C247.346 182.018 247.32 183.106 247.261 183.947C247.209 184.408 247.219 184.875 247.291 185.333Z" fill="#FFB27D"/>
<path d="M251.478 185.912C253.545 185.405 253.059 186.007 256.009 185.681C258.959 185.354 259.853 184.253 259.944 183.815C260.024 183.426 258.566 183.288 257.003 183.108L256.987 183.138C255.724 183.95 254.264 184.404 252.763 184.452C250.761 184.501 248.64 183.926 247.251 183.95C247.2 184.409 247.21 184.872 247.281 185.328C247.549 186.636 249.405 186.418 251.478 185.912Z" fill="#233862"/>
<path d="M231.777 159.456L227.997 169.635L223.054 182.927C222.174 182.992 221.29 182.911 220.436 182.687C219.255 182.345 217.899 181.447 217.899 181.447C217.899 181.447 219.277 167.174 221.829 158.984C222.484 156.881 223.22 155.179 224.034 154.222C227.997 149.539 231.777 159.456 231.777 159.456Z" fill="#233862"/>
<path d="M227.932 143.288C225.452 142.489 218.384 143.516 211.284 144.905L209.798 142.453L194.461 141.254C194.461 141.254 189.399 152.479 192.172 159.638C192.585 160.689 193.389 161.363 194.768 161.385H194.992H207.084C214.711 161.385 223.226 156.149 224.327 155.923C226.129 155.562 226.851 159.168 228.654 162.951C230.456 166.734 245.602 179.719 245.602 179.719C245.602 179.719 247.93 179.743 248.891 179.382C249.925 178.994 250.304 178.49 250.304 178.49C250.304 178.49 233.521 145.091 227.932 143.288Z" fill="#2B478B"/>
<path d="M209.195 97.7901C207.23 96.7593 204.235 96.6188 203.755 96.5499C197.943 95.7685 194.446 104.215 194.239 106.774C193.86 111.491 191.366 112.21 187.854 115.164C180.811 121.089 182.877 127.97 186.727 130.528C189.038 132.062 193.109 130.528 193.109 130.528C193.167 130.568 204.247 124.326 209.708 121.326C217.896 120.166 214.201 100.42 209.195 97.7901Z" fill="#233862"/>
<path d="M205.122 118.769C205.146 118.784 202.435 119.711 200.622 118.907C198.917 118.153 197.625 115.348 197.65 115.346C198.427 115.31 199.278 114.632 199.934 110.181L200.264 110.3L205.818 112.299C205.818 112.299 205.416 114.081 205.155 115.778C204.942 117.202 204.825 118.571 205.122 118.769Z" fill="#FFB27D"/>
<path d="M205.827 112.299C205.827 112.299 205.425 114.081 205.164 115.778C201.974 115.204 200.722 112.025 200.272 110.3L205.827 112.299Z" fill="#ED975D"/>
<path d="M206.654 114.068C206.654 114.068 199.055 113.048 199.765 108.325C200.474 103.603 199.968 100.288 204.852 100.746C209.735 101.203 210.404 103.141 210.551 104.775C210.698 106.41 208.649 114.212 206.654 114.068Z" fill="#FFB27D"/>
<path d="M210.272 102.18C210.272 102.18 205.407 106.372 202.098 106.711C198.79 107.05 197.536 105.986 197.536 105.986C198.857 104.805 199.92 103.364 200.66 101.753C200.828 101.373 201.094 101.045 201.432 100.802C201.769 100.56 202.166 100.412 202.579 100.375C204.941 100.178 209.421 100.084 210.272 102.18Z" fill="#233862"/>
<path d="M207.231 101.804C207.231 101.804 208.859 103.378 209.371 104.545C209.866 105.672 210.013 108.366 209.621 109.436C209.621 109.436 212.156 104.505 210.723 102.109C209.198 99.5688 207.231 101.804 207.231 101.804Z" fill="#233862"/>
<path d="M211.529 129.966C211.299 145.351 211.466 142.136 209.783 143.595C209.378 143.947 208.238 144.156 206.738 144.255C202.021 144.568 193.729 143.791 193.413 142.92C192.325 139.903 193.094 138.966 192.186 134.347C192.091 133.856 191.973 133.324 191.837 132.746C191.079 129.576 190.343 128.494 193.028 123.398C195.464 118.782 197.988 115.036 198.221 115.171C204.645 118.984 205.163 115.779 205.163 115.779C205.163 115.779 211.642 122.461 211.529 129.966Z" fill="white"/>
<path d="M227.997 169.636L223.054 182.927C222.174 182.992 221.29 182.911 220.436 182.687C219.255 182.346 217.899 181.447 217.899 181.447C217.899 181.447 219.277 167.174 221.829 158.984L227.997 169.636Z" fill="#2B478B"/>
<path d="M205.163 115.778C205.163 115.778 211.777 116.9 212.55 119.745L217.895 139.326C217.895 139.326 214.534 139.93 212.981 138.378C211.429 136.827 207.58 123.973 207.58 123.973L205.163 115.778Z" fill="white"/>
<path d="M206.737 144.256C202.02 144.569 193.728 143.792 193.412 142.921C192.324 139.904 193.093 138.967 192.185 134.348L194.46 127.941C194.46 127.941 194.083 135.075 196.187 136.952C198.292 138.829 204.802 140.575 205.825 142.143C206.318 142.896 206.639 143.652 206.737 144.256Z" fill="#EBF3FF"/>
<path d="M201.335 141.254C201.335 141.254 205.988 140.218 206.739 140.631C207.49 141.045 209.326 142.548 209.554 143.072C209.783 143.595 207.883 142.675 207.264 142.509C206.865 142.402 205.81 142.767 205.288 142.942C203.092 143.674 201.746 143.298 201.746 143.298L201.335 141.254Z" fill="#FFB27D"/>
<path d="M198.219 115.167C198.219 115.167 191.97 115.553 189.813 118.569C186.768 122.817 180.729 140.919 184.19 143.334C188.088 146.051 201.933 144.045 201.933 144.045C201.933 144.045 202.394 141.891 201.753 140.849C201.112 139.807 190.695 138.124 190.214 137.643C189.733 137.163 196.225 128.273 196.225 126.824C196.225 125.376 198.219 115.167 198.219 115.167Z" fill="white"/>
<path d="M206.962 141.927C206.962 141.927 207.937 143.185 208.257 143.335C208.418 143.422 208.601 143.462 208.784 143.448L208.126 142.264L206.962 141.927Z" fill="#FFB27D"/>
<path d="M206.738 140.632L209.573 142.01C209.573 142.01 209.453 142.208 209.104 142.192C208.756 142.175 207.874 141.854 207.874 141.854L206.738 140.632Z" fill="#FFB27D"/>
<path d="M208.258 145.262H230.684L237.429 128.485H215.039L208.258 145.262Z" fill="#007DFF"/>
<path d="M230.946 144.608H201.333V145.262H230.684L230.946 144.608Z" fill="#0057B2"/>
<path d="M225.023 136.874C225.192 136.284 224.852 135.806 224.262 135.806C223.673 135.806 223.057 136.284 222.884 136.874C222.712 137.463 223.055 137.942 223.645 137.942C224.235 137.942 224.855 137.463 225.023 136.874Z" fill="white"/>
<path d="M104.545 129.381H104.474C103.64 129.381 102.965 130.056 102.965 130.89V162.751C102.965 163.584 103.64 164.26 104.474 164.26H104.545C105.379 164.26 106.054 163.584 106.054 162.751V130.89C106.054 130.056 105.379 129.381 104.545 129.381Z" fill="#B0D4FF"/>
<path d="M104.496 198.034H104.448C104.379 198.034 104.311 198.02 104.247 197.993C104.183 197.967 104.126 197.927 104.078 197.878C104.029 197.829 103.991 197.77 103.966 197.706C103.941 197.642 103.928 197.573 103.93 197.505L104.715 163.488L107.026 163.212L105.056 197.5C105.049 197.644 104.986 197.78 104.882 197.879C104.778 197.978 104.64 198.034 104.496 198.034Z" fill="#95C0F4"/>
<path d="M141.666 198.034H141.715C141.784 198.034 141.852 198.02 141.916 197.993C141.979 197.966 142.037 197.927 142.085 197.878C142.133 197.829 142.171 197.77 142.196 197.706C142.221 197.642 142.234 197.573 142.232 197.505L141.448 163.488L139.136 163.212L141.108 197.5C141.114 197.644 141.176 197.779 141.28 197.879C141.384 197.978 141.522 198.034 141.666 198.034Z" fill="#B0D4FF"/>
<path d="M141.501 161.378H102.965V162.828C102.965 163.121 103.022 163.411 103.134 163.682C103.246 163.952 103.41 164.198 103.617 164.405C103.825 164.612 104.07 164.777 104.341 164.889C104.612 165.001 104.902 165.058 105.194 165.058H141.501C141.94 165.058 142.36 164.884 142.671 164.574C142.981 164.263 143.155 163.843 143.155 163.404V163.022C143.152 162.586 142.977 162.167 142.667 161.859C142.357 161.551 141.938 161.378 141.501 161.378Z" fill="#B0D4FF"/>
<path d="M160.797 190.762C160.797 190.762 160.229 197.815 161.486 197.908C161.653 197.921 167.89 197.921 167.89 197.921L175.852 197.874C175.852 197.874 175.8 195.956 173.472 195.55C171.145 195.145 166.539 193.186 165.129 190.11C163.652 186.874 160.797 190.762 160.797 190.762Z" fill="#163560"/>
<path d="M112.898 152.123C112.898 152.123 113.163 159.055 114.385 161.379H142.543C142.543 161.379 149.309 162.079 149.926 162.535C150.703 163.111 147.216 168.823 160.291 191.142L166.697 190.98C166.697 190.98 159.999 154.78 158.81 153.864C157.029 152.494 136.198 147.725 132.629 147.62C129.06 147.515 112.898 152.123 112.898 152.123Z" fill="#1C468A"/>
<path d="M128.681 111.052C130.854 112.399 130.976 115.08 130.976 115.08C125.677 116.45 117.966 110.566 117.966 110.566C117.966 110.566 121.376 108.274 122.641 103.236C122.705 102.982 122.762 102.722 122.813 102.454C122.99 101.546 123.086 100.624 123.101 99.6982L125.536 101.88L129.585 105.507C129.585 105.507 129.492 107.012 128.986 109.601C128.898 110.052 128.796 110.536 128.681 111.052Z" fill="#FFB27D"/>
<path d="M131.684 138.879C131.504 140.061 131.87 141.012 132.046 141.893C132.12 142.215 132.147 142.547 132.126 142.878C131.836 146.149 133.003 146.564 132.638 147.62C132.638 147.62 131.397 148.349 129.11 149.214C128.118 149.588 126.929 149.99 125.561 150.369L125.344 150.427C120.048 151.859 114.478 152.166 112.904 152.123C109.898 152.043 109.291 144.423 110.406 134.826C112.144 119.875 114.492 112.626 120.683 107.388C121.073 107.059 120.81 108.181 122.887 109.18C124.81 110.104 127.129 110.321 128.927 109.922L130.343 111.374C133.154 115.815 133.449 121.086 133.209 125.481C132.905 131.042 132.204 135.475 131.684 138.879Z" fill="#B0D4FF"/>
<path d="M129.587 105.506C129.587 105.506 129.802 105.278 129.295 107.868C124.811 106.571 123.35 104.285 122.752 102.769C122.581 102.34 124.418 102.113 125.539 101.876L129.587 105.506Z" fill="#ED975D"/>
<path d="M131.669 105.518C131.669 105.518 123.017 106.758 122.328 101.356C121.64 95.9541 120.06 92.4786 125.556 91.4602C131.051 90.4418 132.389 92.3642 133.057 94.1102C133.725 95.8563 133.903 105.056 131.669 105.518Z" fill="#FFB27D"/>
<path d="M164.235 145.544L164.896 145.751L170.316 128.423L169.655 128.216L164.235 145.544Z" fill="#1C468A"/>
<path d="M145.828 145.569L164.878 145.766L164.89 144.626L145.839 144.43L145.828 145.569Z" fill="#1C468A"/>
<path d="M119.57 91.5687C119.501 91.4874 119.34 91.4213 118.98 91.3992C119.187 91.2842 119.418 91.2208 119.654 91.2145C119.733 90.7157 120.006 89.8365 120.868 89.6242C120.727 89.7051 120.607 89.8168 120.515 89.9509C120.423 90.085 120.363 90.2381 120.339 90.3987C121.344 89.3831 123.485 88.6541 129.395 89.1681C137.183 89.8447 134.576 94.8182 133.562 95.4012C132.548 95.9841 130.022 94.3373 128.141 94.4709C126.26 94.6046 125.881 97.3194 125.247 97.6874C124.613 98.0553 124.863 97.398 124.007 96.9983C123.151 96.5987 123.054 98.0305 123.295 98.9621C123.536 99.8937 122.343 101.111 122.343 101.111L121.155 99.811C119.967 98.5115 118.88 93.0364 119.434 91.876C119.472 91.7768 119.521 91.6721 119.57 91.5687Z" fill="#2C3A64"/>
<path d="M132.631 147.62C132.631 147.62 131.391 148.349 129.104 149.214C119.232 142.011 119.286 124.96 119.232 124.668L131.634 135.588L132.047 141.893C132.121 142.215 132.148 142.547 132.127 142.878C131.829 146.149 132.997 146.564 132.631 147.62Z" fill="#91B8EF"/>
<path d="M150.504 139.599C151.062 139.663 151.626 139.571 152.135 139.335C152.973 138.942 155.856 137.7 156.407 137.87C156.958 138.039 158.722 139.04 159.139 139.23C159.557 139.42 160.293 140.396 160.293 140.396C159.987 140.705 158.915 139.996 158.43 140.01C157.945 140.024 154.398 141.963 153.342 142.005C152.287 142.048 150.642 141.832 150.642 141.832L150.504 139.599Z" fill="#FFB27D"/>
<path d="M156.939 139.753C156.948 139.811 158.237 141.249 159.22 140.792L158.142 139.729L156.939 139.753Z" fill="#FFB27D"/>
<path d="M152.135 139.335C152.135 139.335 153.291 138.264 153.674 137.75C153.674 137.75 153.905 137.855 153.914 138.05C153.93 138.376 153.612 138.974 153.612 138.974L152.135 139.335Z" fill="#FFB27D"/>
<path d="M129.393 113.894C123.038 110.023 115.538 116.788 118.692 123.525C122.348 131.34 128.436 140.871 133.272 141.44C136.717 141.841 146.572 143.105 150.744 142.326C150.744 142.326 152.766 142.426 151.67 139.171C151.67 139.171 138.187 135.413 135.948 132.497C134.748 130.935 132.703 127.773 129.541 113.99C129.528 113.928 129.443 113.924 129.393 113.894Z" fill="#B0D4FF"/>
<path d="M300.245 198.034H300.314C300.41 198.034 300.504 198.015 300.592 197.978C300.679 197.941 300.759 197.887 300.825 197.818C300.892 197.75 300.944 197.669 300.979 197.581C301.014 197.492 301.03 197.397 301.028 197.302L299.945 150.31L296.751 149.936L299.475 197.303C299.486 197.501 299.571 197.686 299.715 197.822C299.858 197.958 300.048 198.034 300.245 198.034Z" fill="#739AF0"/>
<path d="M143.245 198.034H143.177C143.082 198.034 142.988 198.015 142.9 197.978C142.812 197.941 142.732 197.887 142.666 197.818C142.599 197.75 142.547 197.669 142.512 197.581C142.477 197.492 142.46 197.397 142.462 197.302L143.547 150.31L146.739 149.936L144.016 197.303C144.005 197.501 143.919 197.686 143.776 197.822C143.632 197.958 143.442 198.034 143.245 198.034Z" fill="#739AF0"/>
<path d="M140.055 145.504H303.028C303.598 145.504 304.144 145.731 304.547 146.134C304.95 146.537 305.176 147.083 305.176 147.653V149.031C305.176 149.6 304.95 150.146 304.547 150.549C304.145 150.952 303.599 151.178 303.029 151.178H140.055C139.486 151.178 138.94 150.952 138.537 150.549C138.134 150.146 137.908 149.6 137.908 149.031V147.653C137.908 147.371 137.963 147.091 138.071 146.831C138.179 146.57 138.337 146.333 138.537 146.134C138.736 145.934 138.973 145.776 139.233 145.668C139.494 145.56 139.773 145.504 140.055 145.504Z" fill="#739AF0"/>
<path d="M308 61.7074C307.996 65.4897 309.312 69.1547 311.72 72.0706C313.732 74.5015 314.836 77.5568 314.843 80.7125V85.2602C314.847 86.6544 315.402 87.9903 316.388 88.9762C317.374 89.9621 318.71 90.5177 320.104 90.5217H328.521C329.916 90.518 331.252 89.9626 332.238 88.9767C333.224 87.9908 333.78 86.6546 333.784 85.2602V80.7042C333.797 77.5433 334.906 74.4847 336.921 72.0499C339.037 69.4672 340.31 66.2974 340.567 62.9683C340.824 59.6393 340.054 56.3115 338.36 53.4343C336.666 50.5571 334.13 48.2691 331.094 46.8793C328.059 45.4894 324.67 45.0647 321.385 45.6625C321.176 45.6997 320.972 45.7424 320.758 45.7879C317.139 46.5961 313.903 48.6133 311.584 51.5072C309.265 54.401 308.001 57.9988 308 61.7074Z" fill="#F9DDBF"/>
<path d="M328.488 90.5264L328.47 90.6642L328.238 92.4364L328.178 92.9036L328.116 93.3735L327.888 95.154L327.826 95.6211L327.766 96.0911L327.731 96.3515C327.614 97.25 326.586 97.9377 325.356 97.9377H322.586C322.304 97.9385 322.024 97.9014 321.752 97.8274C321.527 97.7669 321.31 97.6771 321.107 97.5601L321.092 97.5504C320.942 97.4616 320.803 97.3542 320.679 97.2307C320.434 97.0019 320.273 96.6986 320.219 96.368L320.121 95.679L320.059 95.2463V95.238L319.998 94.8149L319.758 93.1737L319.696 92.7423V92.7327L319.636 92.3068L319.381 90.5264H328.488Z" fill="#95C0F4"/>
<path d="M327.387 90.5264H325.821C323.295 91.2567 320.789 91.9789 319.627 92.3068L319.688 92.7327V92.7478L319.75 93.1792C320.691 92.9187 322.948 92.2724 328.468 90.6724L328.486 90.5346L327.387 90.5264Z" fill="#739AF0"/>
<path d="M320.048 95.2407V95.249L320.11 95.6817C321.199 95.3757 323.442 94.7322 328.115 93.3775L328.177 92.9076L328.237 92.4404C325.284 93.2962 321.71 94.3284 319.986 94.819L320.048 95.2407Z" fill="#739AF0"/>
<path d="M321.086 97.5542L321.101 97.5638C321.304 97.6808 321.521 97.7707 321.746 97.8312C323.028 97.4646 324.929 96.9148 327.76 96.0948L327.82 95.6249L327.882 95.1577C325.355 95.8895 322.456 96.726 320.666 97.2386C320.792 97.3611 320.933 97.4671 321.086 97.5542Z" fill="#739AF0"/>
<path d="M318.213 69.6279L317.486 69.751L321.019 90.6158L321.746 90.4927L318.213 69.6279Z" fill="white"/>
<path d="M329.992 71.1416L326.234 91.6006L326.957 91.7333L330.714 71.2743L329.992 71.1416Z" fill="white"/>
<path d="M294.432 42.7685C294.325 42.7672 294.219 42.7542 294.114 42.7299C294.02 42.7103 293.935 42.6615 293.87 42.5905C293.805 42.5195 293.764 42.4299 293.753 42.3344C293.669 41.8728 294.029 41.028 294.537 40.3114C294.273 39.847 293.919 39.4653 293.548 39.3467C292.997 39.18 292.16 39.6858 291.576 40.3321C291.681 40.4824 291.777 40.6388 291.864 40.8006C292.163 41.367 292.378 42.0905 292.083 42.4254C291.974 42.5494 291.751 42.6624 291.309 42.4943C290.758 42.2862 290.558 41.8176 290.764 41.2099C290.884 40.883 291.062 40.5801 291.288 40.3155C290.835 39.7243 290.23 39.2751 289.635 39.3509C289.34 39.3867 289.059 39.4931 288.815 39.661C289.196 40.3707 289.285 41.2719 289.019 41.7556C288.838 42.085 288.524 42.1897 288.131 42.0505C287.856 41.9499 287.703 41.5627 287.758 41.0638C287.822 40.4985 288.094 39.9775 288.523 39.6031C288.409 39.4216 288.266 39.2608 288.098 39.1276C287.07 38.3297 286.22 39.1855 286.184 39.2227L286.024 39.0684C286.034 39.0574 287.052 38.0321 288.229 38.9512C288.412 39.0964 288.569 39.2711 288.693 39.468C288.964 39.2845 289.274 39.1687 289.599 39.1304C290.268 39.0463 290.935 39.5176 291.431 40.146C292.068 39.457 292.975 38.943 293.607 39.1345C294.007 39.2544 294.384 39.6403 294.672 40.1157C294.912 39.7911 295.202 39.5064 295.531 39.2723C295.996 38.9636 296.3 39.0339 296.472 39.1469C296.65 39.2677 296.804 39.4216 296.925 39.6003C297.06 39.4939 297.205 39.4015 297.358 39.3247C297.898 39.0491 298.393 39.0766 298.754 39.3812L298.609 39.5507C298.22 39.2227 297.72 39.3936 297.457 39.5245C297.31 39.6015 297.171 39.6939 297.044 39.8001C297.403 40.4478 297.472 41.2926 297.267 41.7019C297.242 41.7602 297.207 41.8131 297.161 41.8573C297.116 41.9015 297.063 41.9362 297.004 41.9593C296.945 41.9825 296.882 41.9936 296.819 41.9919C296.756 41.9903 296.693 41.976 296.636 41.9499C296.148 41.7708 296.028 41.4345 296.014 41.1851C295.988 40.7055 296.32 40.1612 296.753 39.7588C296.648 39.5953 296.511 39.4547 296.351 39.3454C296.14 39.2076 295.856 39.3357 295.655 39.4694C295.322 39.7096 295.031 40.0023 294.792 40.3362C295.127 40.9729 295.301 41.7143 295.174 42.1952C295.138 42.3632 295.044 42.5131 294.909 42.6182C294.773 42.7232 294.604 42.7765 294.432 42.7685ZM294.654 40.5291C294.212 41.1741 293.901 41.9072 293.972 42.2945C293.976 42.3467 293.997 42.3962 294.031 42.4356C294.066 42.4749 294.112 42.5018 294.164 42.5122C294.601 42.6114 294.869 42.4833 294.962 42.1318C295.069 41.7267 294.929 41.0928 294.654 40.5291ZM291.426 40.514C291.233 40.7448 291.081 41.0067 290.975 41.2885C290.806 41.7887 290.945 42.1263 291.389 42.2931C291.568 42.3606 291.802 42.413 291.918 42.2848C292.093 42.085 291.991 41.5214 291.667 40.9067C291.594 40.7715 291.513 40.6404 291.426 40.514ZM288.636 39.8056C288.268 40.141 288.034 40.5983 287.978 41.0928C287.937 41.4745 288.029 41.7818 288.206 41.8452C288.488 41.9458 288.698 41.8824 288.822 41.6536C289.049 41.2402 288.966 40.4423 288.636 39.8056ZM296.873 39.9435C296.486 40.3155 296.221 40.7937 296.242 41.1617C296.257 41.4277 296.417 41.6192 296.716 41.7295C296.748 41.7464 296.783 41.7563 296.819 41.7584C296.855 41.7605 296.891 41.7548 296.925 41.7418C296.959 41.7287 296.989 41.7085 297.014 41.6826C297.04 41.6567 297.059 41.6257 297.071 41.5916C297.243 41.2526 297.169 40.5195 296.873 39.949V39.9435Z" fill="white"/>
<path d="M101.474 73.0146H98.7529V83.0278H101.474V73.0146Z" fill="#D6E8FC"/>
<path d="M101.13 72.0235H99.2134C99.1232 72.0232 99.0369 71.9872 98.9731 71.9235C98.9094 71.8597 98.8734 71.7733 98.873 71.6832C98.8734 71.593 98.9094 71.5066 98.9731 71.4429C99.0369 71.3791 99.1232 71.3431 99.2134 71.3428H101.13C101.22 71.3431 101.307 71.3791 101.37 71.4429C101.434 71.5066 101.47 71.593 101.47 71.6832C101.47 71.7733 101.434 71.8597 101.37 71.9235C101.307 71.9872 101.22 72.0232 101.13 72.0235Z" fill="#D6E8FC"/>
<path d="M96.7829 65.1514H94.0615V83.0278H96.7829V65.1514Z" fill="#D6E8FC"/>
<path d="M96.3802 64.4122H94.4635C94.3733 64.4118 94.287 64.3758 94.2232 64.3121C94.1595 64.2483 94.1235 64.162 94.1231 64.0718C94.1222 64.0265 94.1303 63.9814 94.147 63.9392C94.1637 63.897 94.1886 63.8586 94.2203 63.8262C94.2519 63.7937 94.2897 63.7679 94.3315 63.7502C94.3733 63.7325 94.4181 63.7233 94.4635 63.7231H96.3802C96.4703 63.7235 96.5567 63.7595 96.6204 63.8232C96.6842 63.887 96.7201 63.9734 96.7205 64.0635C96.7214 64.1089 96.7133 64.1539 96.6966 64.1961C96.68 64.2383 96.6551 64.2767 96.6234 64.3092C96.5917 64.3416 96.5539 64.3674 96.5121 64.3851C96.4704 64.4028 96.4255 64.412 96.3802 64.4122Z" fill="#D6E8FC"/>
<path d="M92.2859 52.7031H89.5645V83.0278H92.2859V52.7031Z" fill="#D6E8FC"/>
<path d="M91.885 51.8722H89.9683C89.8781 51.8718 89.7918 51.8358 89.728 51.7721C89.6643 51.7083 89.6283 51.622 89.6279 51.5318C89.6283 51.4416 89.6643 51.3553 89.728 51.2915C89.7918 51.2278 89.8781 51.1918 89.9683 51.1914H91.885C91.9751 51.1918 92.0615 51.2278 92.1252 51.2915C92.189 51.3553 92.225 51.4416 92.2253 51.5318C92.225 51.622 92.189 51.7083 92.1252 51.7721C92.0615 51.8358 91.9751 51.8718 91.885 51.8722Z" fill="#D6E8FC"/>
<path d="M87.6716 58.2061H84.9502V83.0294H87.6716V58.2061Z" fill="#D6E8FC"/>
<path d="M87.2707 57.5416H85.354C85.2639 57.5412 85.1775 57.5053 85.1138 57.4415C85.05 57.3778 85.014 57.2914 85.0137 57.2012C85.014 57.1111 85.05 57.0247 85.1138 56.9609C85.1775 56.8972 85.2639 56.8612 85.354 56.8608H87.2707C87.3609 56.8612 87.4472 56.8972 87.511 56.9609C87.5747 57.0247 87.6107 57.1111 87.6111 57.2012C87.6107 57.2914 87.5747 57.3778 87.511 57.4415C87.4472 57.5053 87.3609 57.5412 87.2707 57.5416Z" fill="#D6E8FC"/>
<path d="M83.1745 44.4302H80.4531V83.0288H83.1745V44.4302Z" fill="#D6E8FC"/>
<path d="M82.7717 43.6906H80.855C80.7648 43.6903 80.6785 43.6543 80.6147 43.5905C80.551 43.5268 80.515 43.4404 80.5146 43.3502C80.515 43.2602 80.551 43.174 80.6148 43.1104C80.6786 43.0469 80.765 43.0112 80.855 43.0112H82.7717C82.8617 43.0112 82.9481 43.0469 83.0119 43.1104C83.0757 43.174 83.1117 43.2602 83.112 43.3502C83.1117 43.4404 83.0757 43.5268 83.012 43.5905C82.9482 43.6543 82.8618 43.6903 82.7717 43.6906Z" fill="#D6E8FC"/>
<path d="M78.7956 50.4585H76.0742V83.0294H78.7956V50.4585Z" fill="#D6E8FC"/>
<path d="M78.3947 49.7648H76.4767C76.3869 49.7645 76.3009 49.7286 76.2374 49.6651C76.1739 49.6016 76.1381 49.5156 76.1377 49.4258C76.1377 49.3358 76.1734 49.2494 76.2369 49.1856C76.3004 49.1218 76.3866 49.0858 76.4767 49.0854H78.3947C78.4849 49.0858 78.5713 49.1218 78.635 49.1855C78.6988 49.2493 78.7347 49.3357 78.7351 49.4258C78.7347 49.5159 78.6987 49.6021 78.6349 49.6656C78.5711 49.7292 78.4848 49.7648 78.3947 49.7648Z" fill="#D6E8FC"/>
<path d="M278.822 145.504H256.398L249.651 128.728H272.043L278.822 145.504Z" fill="#2B478B"/>
<path d="M256.135 144.851H285.748V145.504H256.398L256.135 144.851Z" fill="#2B478B"/>
<path d="M262.059 137.116C261.89 136.527 262.231 136.048 262.821 136.048C263.411 136.048 264.025 136.527 264.199 137.116C264.373 137.706 264.027 138.184 263.437 138.184C262.847 138.184 262.229 137.706 262.059 137.116Z" fill="white"/>
<path d="M399 198.043V198.206C399.004 198.327 398.959 198.444 398.877 198.533C398.795 198.621 398.681 198.674 398.56 198.679H12.0091C11.8884 198.674 11.7745 198.621 11.6922 198.533C11.6099 198.444 11.5658 198.327 11.5696 198.206V198.043C11.5658 197.923 11.6099 197.805 11.6922 197.717C11.7745 197.628 11.8884 197.576 12.0091 197.571H398.56C398.681 197.576 398.795 197.628 398.877 197.717C398.959 197.805 399.004 197.923 399 198.043Z" fill="#2E3552"/>
</svg>
